<svg width="20" height="16" viewBox="0 0 20 16" fill="none" xmlns="http://www.w3.org/2000/svg">
<path d="M14.9506 13.3037C13.5428 14.3768 11.8287 14.9713 10.0588 15.0002C4.29411 15.0002 1 8.41198 1 8.41198C2.02438 6.50295 3.44517 4.83507 5.16705 3.52022L14.9506 13.3037ZM8.3294 2.0214C8.89626 1.88871 9.47663 1.82238 10.0588 1.82375C15.8235 1.82375 19.1176 8.41198 19.1176 8.41198C18.6177 9.34718 18.0216 10.2276 17.3388 11.039L8.3294 2.0214ZM11.8047 10.1579C11.5785 10.4006 11.3058 10.5953 11.0027 10.7303C10.6996 10.8653 10.3725 10.938 10.0408 10.9438C9.70904 10.9497 9.37953 10.8886 9.0719 10.7644C8.76427 10.6401 8.48482 10.4552 8.25022 10.2206C8.01561 9.98597 7.83067 9.70652 7.70641 9.39888C7.58215 9.09125 7.52113 8.76175 7.52698 8.43002C7.53284 8.09829 7.60544 7.77114 7.74048 7.46809C7.87551 7.16503 8.0702 6.89228 8.31293 6.6661" fill="white"/>
<path d="M11.8047 10.1579C11.5785 10.4006 11.3058 10.5953 11.0027 10.7303C10.6996 10.8653 10.3725 10.938 10.0408 10.9438C9.70904 10.9497 9.37953 10.8886 9.0719 10.7644C8.76427 10.6401 8.48482 10.4552 8.25022 10.2206C8.01561 9.98597 7.83067 9.70652 7.70641 9.39888C7.58215 9.09125 7.52113 8.76175 7.52698 8.43002C7.53284 8.09829 7.60544 7.77114 7.74048 7.46809C7.87551 7.16503 8.0702 6.89228 8.31293 6.6661M14.9506 13.3037C13.5428 14.3768 11.8287 14.9713 10.0588 15.0002C4.29411 15.0002 1 8.41198 1 8.41198C2.02438 6.50295 3.44517 4.83507 5.16705 3.52022L14.9506 13.3037ZM8.3294 2.0214C8.89626 1.88871 9.47663 1.82238 10.0588 1.82375C15.8235 1.82375 19.1176 8.41198 19.1176 8.41198C18.6177 9.34718 18.0216 10.2276 17.3388 11.039L8.3294 2.0214Z" stroke="#888888" stroke-width="1.6" stroke-linecap="round" stroke-linejoin="round"/>
<path d="M2.64844 1L16.2367 14.5882" stroke="#888888" stroke-width="1.6" stroke-linecap="round" stroke-linejoin="round"/>
</svg>
