<svg width="744" height="946" viewBox="0 0 744 946" fill="none" xmlns="http://www.w3.org/2000/svg">
<path d="M217.096 832.993C215.36 846.021 250.168 846.018 256.155 832.327C262.142 818.637 218.862 820.144 217.096 832.993Z" fill="#228B6A"/>
<path d="M664.311 863.265C658.822 867.862 673.676 881.78 681.235 878.542C688.795 875.303 669.823 858.591 664.311 863.265Z" fill="#228B6A"/>
<path d="M688.103 882.989C682.578 887.592 697.468 901.504 704.991 898.272C712.515 895.039 693.615 878.315 688.103 882.989Z" fill="#228B6A"/>
<path d="M735.797 998.578C735.797 998.578 762.901 830.496 585.515 803.875C408.129 777.255 235.122 875.161 161.294 796.117C87.4653 717.073 233.807 645.752 233.542 506.034C233.276 366.315 143.107 313.044 19.7234 265.645C-127.916 208.94 -147.239 137.991 -147.239 137.991C-147.239 137.991 -263.946 99.5024 -329.65 199.401C-329.65 199.401 -275.98 368.375 -90.0293 409.542C95.9214 450.709 125.893 486.664 60.3668 615.491C-10.4325 754.715 5.10387 861.708 156.041 903.872C281.015 938.71 500.034 814.802 621.644 850.526C743.253 886.25 735.797 998.578 735.797 998.578Z" fill="url(#paint0_linear_400_17894)"/>
<path style="mix-blend-mode:multiply" opacity="0.72" d="M-53.4612 351.077C-53.4612 351.077 -139.919 342.145 -158.972 287.662C-169.899 256.513 -18.0784 199.398 187.915 367.758C149.723 321.817 90.1677 292.687 19.7229 265.644C-127.916 208.94 -147.24 137.991 -147.24 137.991C-147.24 137.991 -226.037 112.064 -290.572 158.215C-205.038 353.082 -53.4612 351.077 -53.4612 351.077Z" fill="url(#paint1_linear_400_17894)"/>
<path style="mix-blend-mode:multiply" opacity="0.72" d="M123.269 746.934C123.269 746.934 135.6 821.878 103.984 843.073C72.3684 864.268 3.17509 790.039 91.0663 652.287C91.0663 652.287 -38.9557 817.396 138.082 898.036C143.91 899.995 149.81 901.942 156.154 903.668C211.386 919.105 284.937 903.493 360.311 884.368C203.349 893.169 134.382 825.255 123.269 746.934Z" fill="url(#paint2_linear_400_17894)"/>
<path d="M-90.0712 409.29C95.7356 450.481 125.851 486.412 60.3249 615.239C4.01422 725.966 2.3951 816.28 80.0423 869.802C21.106 811.872 21.6914 762.208 46.7789 704.931C82.4923 623.078 148.829 555.541 117.204 476.976C88.6794 406.027 -11.7942 386.696 -105.811 358.546C-204.501 329.171 -255.368 276.044 -303.877 168.53C-313.714 177.573 -322.382 187.809 -329.68 199C-329.68 199 -276.046 368.201 -90.0712 409.29Z" fill="url(#paint3_linear_400_17894)"/>
<path d="M533.234 799.404C374.784 794.894 227.57 867.429 161.17 796.249C160.416 795.486 159.842 794.694 159.16 793.92C189.7 836.467 272.786 888.687 366.444 874.68C399.086 869.826 430.61 863.789 459.732 859.329C520.266 845.453 577.461 837.335 621.61 850.31C682.687 868.257 711.182 905.563 724.473 938.28C705.837 876.673 668.066 810.163 533.234 799.404Z" fill="url(#paint4_linear_400_17894)"/>
<g style="mix-blend-mode:multiply" opacity="0.33">
<path d="M79.9463 869.891C37.4533 828.129 26.2525 790.599 32.3119 751.522C28.6298 712.977 37.0319 671.52 54.0938 628.121C4.16716 732.958 5.42975 818.329 79.9463 869.891Z" fill="#310150"/>
</g>
<g style="mix-blend-mode:multiply" opacity="0.5">
<path d="M161.193 796.392C160.44 795.63 159.866 794.838 159.184 794.063C187.96 834.205 263.592 882.887 350.675 876.535C245.109 873.186 255.994 836.713 327.981 820.804C256.161 831.219 196.932 834.612 161.193 796.392Z" fill="#310150"/>
</g>
<path style="mix-blend-mode:color-dodge" d="M195.8 622.495C153.838 685.689 121.908 735.967 128.149 769.179C129.31 773.087 130.65 776.967 132.129 780.786C133.896 784.114 135.415 787.567 136.674 791.119C157.407 833.802 200.682 868.196 272.819 880.371C179.94 860.935 140.425 805.83 133.475 764.941C129.587 741.315 156.363 693.399 180.827 655.91C205.994 614.834 233.543 566.902 233.415 506.165C233.419 490.697 232.114 475.257 229.515 460.01C230.595 467.921 240.665 554.945 195.8 622.495Z" fill="url(#paint5_linear_400_17894)"/>
<path style="mix-blend-mode:color-dodge" opacity="0.44" d="M187.471 367.315C-10.0679 206.095 -157.597 252.236 -159.438 283.713C-159.363 285.001 -159.214 286.283 -158.991 287.554C-155.474 297.353 -149.781 306.229 -142.341 313.513C-72.2189 371.154 185.452 338.875 226.716 445.475C219.947 416.705 206.504 389.931 187.471 367.315Z" fill="url(#paint6_linear_400_17894)"/>
<path style="mix-blend-mode:color-dodge" opacity="0.44" d="M103.986 843.073C135.638 821.872 123.27 746.934 123.27 746.934C124.341 754.46 125.972 761.895 128.149 769.179C122.768 740.516 145.615 699.489 178.709 648.429L178.92 648.136C255.178 529.288 206.896 458.857 110.463 436.46L142.337 485.547C192.282 576.868 39.9369 703.323 49.1938 792.365C55.9216 836.171 85.9835 855.158 103.986 843.073Z" fill="url(#paint7_linear_400_17894)"/>
<g style="mix-blend-mode:color-dodge" opacity="0.6">
<path d="M93.4214 665.012C91.5184 657.938 74.7531 688.767 82.581 688.956C90.4089 689.146 95.6987 673.686 93.4214 665.012Z" fill="#636363"/>
</g>
<g style="mix-blend-mode:color-dodge" opacity="0.6">
<path d="M112.301 373.073C119.242 370.343 86.5364 357.294 87.2631 365.078C87.9898 372.863 103.981 376.4 112.301 373.073Z" fill="#636363"/>
</g>
<g style="mix-blend-mode:color-dodge" opacity="0.6">
<path d="M76.4354 692.923C77.1987 697.562 84.3129 697.906 81.1498 691.482C77.9866 685.059 75.5901 687.337 76.4354 692.923Z" fill="#636363"/>
</g>
<g style="mix-blend-mode:multiply" opacity="0.33">
<path d="M582.295 835.727C583.555 843.386 560.039 844.191 555.727 836.405C551.416 828.619 580.896 828.127 582.295 835.727Z" fill="#310150"/>
</g>
<path d="M582.714 837.836C583.975 845.496 560.494 846.294 556.183 838.508C551.872 830.723 581.31 830.2 582.714 837.836Z" fill="#2AAC83"/>
<g style="mix-blend-mode:multiply" opacity="0.49">
<g style="mix-blend-mode:multiply" opacity="0.49">
<path d="M575.273 839.763C577.314 841.384 567.423 841.682 564.232 840.028C561.04 838.374 573.239 838.177 575.273 839.763Z" fill="#061A14"/>
</g>
</g>
<g style="mix-blend-mode:multiply">
<g style="mix-blend-mode:multiply">
<path d="M573.062 839.794C573.996 840.527 572.478 840.962 570.248 841.107C573.551 841.191 576.465 840.712 575.274 839.763C572.559 838.784 569.659 838.428 566.789 838.721C568.933 838.613 571.075 838.979 573.062 839.794Z" fill="#061A14"/>
</g>
</g>
<g style="mix-blend-mode:multiply" opacity="0.33">
<path d="M614.929 843.616C615.092 851.346 591.62 848.375 588.635 839.891C585.65 831.407 614.783 835.995 614.929 843.616Z" fill="#310150"/>
</g>
<path d="M615.042 845.887C615.212 853.653 591.733 850.646 588.748 842.162C585.763 833.678 614.873 838.122 615.042 845.887Z" fill="#2AAC83"/>
<g style="mix-blend-mode:multiply" opacity="0.49">
<g style="mix-blend-mode:multiply" opacity="0.49">
<path d="M607.362 846.597C609.15 848.482 599.335 847.216 596.318 845.053C593.302 842.89 605.61 844.706 607.362 846.597Z" fill="#061A14"/>
</g>
</g>
<g style="mix-blend-mode:multiply">
<g style="mix-blend-mode:multiply">
<path d="M605.164 846.257C605.972 847.122 604.419 847.34 602.237 847.108C605.443 847.726 608.434 847.714 607.364 846.597C604.86 845.18 602.055 844.376 599.181 844.25C601.302 844.456 603.348 845.143 605.164 846.257Z" fill="#061A14"/>
</g>
</g>
<g style="mix-blend-mode:multiply" opacity="0.33">
<path d="M639.815 849.346C640.065 856.027 620.231 853.159 617.585 845.838C614.939 838.517 639.608 842.695 639.815 849.346Z" fill="#310150"/>
</g>
<path d="M639.929 851.174C640.178 857.855 620.344 854.988 617.698 847.666C615.052 840.345 639.721 844.523 639.929 851.174Z" fill="#2AAC83"/>
<g style="mix-blend-mode:multiply" opacity="0.49">
<g style="mix-blend-mode:multiply" opacity="0.49">
<path d="M633.469 851.646C634.994 853.279 626.701 852.058 624.103 850.195C621.506 848.333 631.95 850.049 633.469 851.646Z" fill="#061A14"/>
</g>
</g>
<g style="mix-blend-mode:multiply">
<g style="mix-blend-mode:multiply">
<path d="M631.616 851.397C632.292 852.135 630.99 852.312 629.145 852.099C631.859 852.649 634.376 852.678 633.479 851.718C631.364 850.472 628.991 849.725 626.543 849.535C628.351 849.773 630.083 850.409 631.616 851.397Z" fill="#061A14"/>
</g>
</g>
<g style="mix-blend-mode:multiply" opacity="0.33">
<path d="M672.138 858.284C668.967 864.161 653.247 851.715 654.684 844.055C656.121 836.394 675.268 852.376 672.138 858.284Z" fill="#310150"/>
</g>
<path d="M671.298 859.9C668.168 865.807 652.448 853.362 653.849 845.707C655.25 838.053 674.433 854.029 671.298 859.9Z" fill="#2AAC83"/>
<g style="mix-blend-mode:multiply" opacity="0.49">
<g style="mix-blend-mode:multiply" opacity="0.49">
<path d="M665.373 857.144C665.734 859.337 659.295 854.118 658.037 851.186C656.778 848.253 665.006 854.914 665.373 857.144Z" fill="#061A14"/>
</g>
</g>
<g style="mix-blend-mode:multiply">
<g style="mix-blend-mode:multiply">
<path d="M663.993 855.931C664.159 856.938 662.997 856.39 661.519 855.267C663.601 857.14 665.709 858.271 665.519 857.12C664.324 854.975 662.642 853.14 660.61 851.76C662.032 852.884 663.187 854.308 663.993 855.931Z" fill="#061A14"/>
</g>
</g>
<g style="mix-blend-mode:multiply" opacity="0.33">
<path d="M690.259 881.49C686.005 886.622 673.096 871.276 676.049 864.068C679.001 856.86 694.406 876.375 690.259 881.49Z" fill="#310150"/>
</g>
<path d="M689.156 883.111C684.866 888.249 671.993 872.897 674.94 865.653C677.886 858.409 693.382 877.798 689.156 883.111Z" fill="#2AAC83"/>
<g style="mix-blend-mode:multiply" opacity="0.49">
<g style="mix-blend-mode:multiply" opacity="0.49">
<path d="M683.977 879.014C683.978 881.267 678.633 874.833 677.968 871.692C677.304 868.552 683.94 876.767 683.977 879.014Z" fill="#061A14"/>
</g>
</g>
<g style="mix-blend-mode:multiply">
<g style="mix-blend-mode:multiply">
<path d="M682.774 877.55C682.94 878.557 681.695 877.727 680.481 876.413C682.142 878.651 683.973 880.344 683.976 879.014C683.217 876.67 681.93 874.531 680.213 872.763C681.406 874.153 682.28 875.786 682.774 877.55Z" fill="#061A14"/>
</g>
</g>
<g style="mix-blend-mode:multiply" opacity="0.33">
<path d="M709.39 905.009C705.099 910.147 692.226 894.795 695.179 887.587C698.131 880.379 713.65 899.912 709.39 905.009Z" fill="#310150"/>
</g>
<path d="M708.26 906.45C703.969 911.588 691.097 896.236 694.043 888.992C696.99 881.748 712.532 901.426 708.26 906.45Z" fill="#2AAC83"/>
<g style="mix-blend-mode:multiply" opacity="0.49">
<g style="mix-blend-mode:multiply" opacity="0.49">
<path d="M703.071 902.54C703.108 904.787 697.763 898.353 697.099 895.212C696.434 892.071 703.07 900.287 703.071 902.54Z" fill="#061A14"/>
</g>
</g>
<g style="mix-blend-mode:multiply">
<g style="mix-blend-mode:multiply">
<path d="M701.904 901.069C702.069 902.076 700.824 901.247 699.61 899.932C701.272 902.17 703.103 903.864 703.069 902.539C702.321 900.197 701.046 898.057 699.342 896.283C700.536 897.672 701.41 899.306 701.904 901.069Z" fill="#061A14"/>
</g>
</g>
<g style="mix-blend-mode:multiply" opacity="0.33">
<path d="M662.752 863.669C660.653 869.998 643.045 860.449 643.097 852.684C643.15 844.919 664.774 857.316 662.752 863.669Z" fill="#310150"/>
</g>
<path d="M662.186 865.388C660.086 871.717 642.442 862.173 642.531 854.402C642.619 846.631 664.249 859.065 662.186 865.388Z" fill="#2AAC83"/>
<g style="mix-blend-mode:multiply" opacity="0.49">
<g style="mix-blend-mode:multiply" opacity="0.49">
<path d="M655.954 863.68C656.776 865.761 649.43 861.762 647.806 859.074C646.181 856.387 655.023 861.617 655.954 863.68Z" fill="#061A14"/>
</g>
</g>
<g style="mix-blend-mode:multiply">
<g style="mix-blend-mode:multiply">
<path d="M654.321 862.73C654.696 863.665 653.432 863.393 651.738 862.527C654.09 864.024 656.45 864.891 655.955 863.68C654.376 861.79 652.398 860.274 650.162 859.241C651.782 860.093 653.2 861.283 654.321 862.73Z" fill="#061A14"/>
</g>
</g>
<g style="mix-blend-mode:multiply" opacity="0.33">
<path d="M258.677 848.534C261.521 858.63 234.251 857.281 228.118 846.508C221.985 835.735 255.833 838.439 258.677 848.534Z" fill="#310150"/>
</g>
<path d="M262.307 849.709C265.151 859.805 237.88 858.456 231.753 847.719C225.626 836.982 259.463 839.613 262.307 849.709Z" fill="#228B6A"/>
<g style="mix-blend-mode:multiply" opacity="0.49">
<g style="mix-blend-mode:multiply" opacity="0.49">
<path d="M254.667 848.196C257.299 850.496 245.966 849.886 241.823 847.392C237.681 844.897 252.07 845.89 254.667 848.196Z" fill="#061A14"/>
</g>
</g>
<g style="mix-blend-mode:multiply">
<g style="mix-blend-mode:multiply">
<path d="M252.106 847.915C253.273 848.942 251.642 849.358 249.088 849.335C252.857 849.786 256.197 849.421 254.647 848.088C251.552 846.584 248.15 845.817 244.708 845.846C247.3 845.961 249.831 846.669 252.106 847.915Z" fill="#061A14"/>
</g>
</g>
<g style="mix-blend-mode:multiply" opacity="0.33">
<path d="M290.858 832.12C296.059 841.274 269.141 846.11 260.637 837.093C252.133 828.077 285.795 822.907 290.858 832.12Z" fill="#310150"/>
</g>
<path d="M293.92 832.318C299.121 841.472 272.245 846.338 263.735 837.285C255.225 828.233 288.899 823.135 293.92 832.318Z" fill="#228B6A"/>
<g style="mix-blend-mode:multiply" opacity="0.49">
<g style="mix-blend-mode:multiply" opacity="0.49">
<path d="M286.163 832.561C289.24 834.196 278.039 836.187 273.463 834.65C268.887 833.113 283.085 830.925 286.163 832.561Z" fill="#061A14"/>
</g>
</g>
<g style="mix-blend-mode:multiply">
<g style="mix-blend-mode:multiply">
<path d="M283.645 832.975C285.022 833.709 283.492 834.515 281.027 835.031C284.805 834.41 287.984 833.517 286.164 832.561C282.811 831.776 279.319 831.806 275.98 832.648C278.527 832.182 281.147 832.294 283.645 832.975Z" fill="#061A14"/>
</g>
</g>
<g style="mix-blend-mode:multiply" opacity="0.33">
<path d="M223.299 837.217C223.547 847.703 197.598 839.563 194.267 827.627C190.935 815.691 223.106 826.833 223.299 837.217Z" fill="#310150"/>
</g>
<path d="M226.931 837.284C227.178 847.77 201.229 839.63 197.892 827.658C194.555 815.686 226.719 826.792 226.931 837.284Z" fill="#228B6A"/>
<g style="mix-blend-mode:multiply" opacity="0.49">
<g style="mix-blend-mode:multiply" opacity="0.49">
<path d="M219.945 833.891C221.898 836.783 211.057 833.322 207.725 829.918C204.394 826.514 217.997 831.035 219.945 833.891Z" fill="#061A14"/>
</g>
</g>
<g style="mix-blend-mode:multiply">
<g style="mix-blend-mode:multiply">
<path d="M217.517 833.071C218.395 834.367 216.699 834.388 214.243 833.61C217.8 835.019 221.096 835.511 219.931 833.819C217.322 831.566 214.208 829.975 210.854 829.181C213.346 829.944 215.628 831.275 217.517 833.071Z" fill="#061A14"/>
</g>
</g>
<g style="mix-blend-mode:multiply" opacity="0.33">
<path d="M377.649 857.914C375.058 870.012 346.429 873.43 345.706 861.175C344.983 848.921 380.21 845.858 377.649 857.914Z" fill="#310150"/>
</g>
<path d="M378.317 860.39C375.762 872.482 347.133 875.9 346.409 863.645C345.686 851.391 380.908 848.292 378.317 860.39Z" fill="#2AAC83"/>
<g style="mix-blend-mode:multiply" opacity="0.49">
<g style="mix-blend-mode:multiply" opacity="0.49">
<path d="M370.428 861.171C369.108 867.297 354.611 869.018 354.252 862.798C353.894 856.578 371.784 855.038 370.428 861.171Z" fill="#061A14"/>
</g>
</g>
<g style="mix-blend-mode:multiply">
<g style="mix-blend-mode:multiply">
<path d="M367.284 861.392C366.684 862.858 365.686 864.128 364.402 865.057C363.118 865.986 361.6 866.538 360.02 866.65C364.371 866.821 369.686 864.764 370.473 861.237C371.259 857.709 366.053 856.83 361.411 857.594C364.918 857.571 367.853 858.787 367.284 861.392Z" fill="#061A14"/>
</g>
</g>
<g style="mix-blend-mode:multiply" opacity="0.33">
<path d="M337.957 861.01C333.102 872.373 304.371 870.23 306.021 858.029C307.672 845.827 342.669 849.671 337.957 861.01Z" fill="#310150"/>
</g>
<path d="M338.192 863.557C333.337 874.92 304.57 872.783 306.22 860.582C307.871 848.38 343.084 852.189 338.192 863.557Z" fill="#2AAC83"/>
<g style="mix-blend-mode:multiply" opacity="0.49">
<g style="mix-blend-mode:multiply" opacity="0.49">
<path d="M330.306 862.786C327.854 868.545 313.297 867.432 314.131 861.274C314.965 855.117 332.794 857.021 330.306 862.786Z" fill="#061A14"/>
</g>
</g>
<g style="mix-blend-mode:multiply">
<g style="mix-blend-mode:multiply">
<path d="M327.142 862.421C326.264 863.737 325.04 864.786 323.605 865.452C322.169 866.119 320.578 866.376 319.006 866.197C323.229 867.164 328.866 866.163 330.306 862.787C331.746 859.41 326.864 857.591 322.045 857.498C325.598 858.206 328.214 859.954 327.142 862.421Z" fill="#061A14"/>
</g>
</g>
<g style="mix-blend-mode:multiply" opacity="0.33">
<path d="M328.975 837.188C324.12 848.55 295.389 846.408 297.009 834.248C298.629 822.088 333.831 825.825 328.975 837.188Z" fill="#310150"/>
</g>
<path d="M331.776 838.278C326.92 849.64 298.189 847.498 299.81 835.338C301.43 823.178 336.631 826.915 331.776 838.278Z" fill="#2AAC83"/>
<g style="mix-blend-mode:multiply" opacity="0.49">
<g style="mix-blend-mode:multiply" opacity="0.49">
<path d="M323.891 837.507C321.439 843.266 306.887 842.188 307.716 835.995C308.544 829.801 326.379 831.742 323.891 837.507Z" fill="#061A14"/>
</g>
</g>
<g style="mix-blend-mode:multiply">
<g style="mix-blend-mode:multiply">
<path d="M320.764 837.135C319.889 838.455 318.665 839.506 317.229 840.173C315.793 840.839 314.2 841.095 312.627 840.912C316.851 841.879 322.452 840.883 323.892 837.507C325.331 834.13 320.456 832.347 315.631 832.218C319.148 832.932 321.728 834.686 320.764 837.135Z" fill="#061A14"/>
</g>
</g>
<g style="mix-blend-mode:multiply" opacity="0.33">
<path d="M296.943 857.418C291.38 868.527 262.928 864.935 265.19 852.855C267.451 840.774 302.391 846.29 296.943 857.418Z" fill="#310150"/>
</g>
<path d="M299.318 858.614C293.756 869.724 265.298 866.096 267.524 854.022C269.749 841.947 304.743 847.565 299.318 858.614Z" fill="#228B6A"/>
<g style="mix-blend-mode:multiply" opacity="0.49">
<g style="mix-blend-mode:multiply" opacity="0.49">
<path d="M291.488 857.502C288.718 863.129 274.265 861.297 275.405 855.199C276.544 849.102 294.287 852.056 291.488 857.502Z" fill="#061A14"/>
</g>
</g>
<g style="mix-blend-mode:multiply">
<g style="mix-blend-mode:multiply">
<path d="M288.443 856.969C287.5 858.24 286.225 859.226 284.758 859.819C283.291 860.412 281.689 860.59 280.128 860.332C284.315 861.527 289.957 860.783 291.558 857.491C293.16 854.198 288.387 852.14 283.676 851.807C287.001 852.7 289.527 854.575 288.443 856.969Z" fill="#061A14"/>
</g>
</g>
<g style="mix-blend-mode:multiply" opacity="0.33">
<path d="M371.318 831.993C369.773 845.064 340.127 847.689 338.441 834.301C336.756 820.912 372.988 819.013 371.318 831.993Z" fill="#310150"/>
</g>
<path d="M373.244 833.375C371.7 846.446 342.053 849.071 340.362 835.647C338.67 822.222 374.795 820.341 373.244 833.375Z" fill="#2AAC83"/>
<g style="mix-blend-mode:multiply" opacity="0.49">
<g style="mix-blend-mode:multiply" opacity="0.49">
<path d="M365.161 833.893C364.326 840.494 349.362 841.848 348.465 835.052C347.569 828.255 365.991 827.255 365.161 833.893Z" fill="#061A14"/>
</g>
</g>
<g style="mix-blend-mode:multiply">
<g style="mix-blend-mode:multiply">
<path d="M361.894 834.024C361.428 835.563 360.489 836.918 359.212 837.896C357.935 838.875 356.382 839.429 354.774 839.48C359.305 839.842 364.668 837.852 365.191 834.072C365.715 830.292 360.233 829.089 355.466 829.763C359.092 829.794 362.242 831.196 361.894 834.024Z" fill="#061A14"/>
</g>
</g>
<g style="mix-blend-mode:multiply" opacity="0.33">
<path d="M551.511 834.143C547.952 844.849 524.691 846.313 525.614 835.302C526.537 824.291 555.112 823.467 551.511 834.143Z" fill="#310150"/>
</g>
<path d="M551.487 835.33C547.927 846.036 524.631 847.505 525.59 836.488C526.548 825.472 555.052 824.66 551.487 835.33Z" fill="#2AAC83"/>
<g style="mix-blend-mode:multiply" opacity="0.49">
<g style="mix-blend-mode:multiply" opacity="0.49">
<path d="M545.096 835.568C543.292 840.999 531.518 841.755 531.998 836.136C532.477 830.516 546.906 830.174 545.096 835.568Z" fill="#061A14"/>
</g>
</g>
<g style="mix-blend-mode:multiply">
<g style="mix-blend-mode:multiply">
<path d="M542.552 835.617C541.955 836.844 541.042 837.89 539.907 838.648C538.772 839.406 537.456 839.849 536.093 839.93C537.861 840.237 539.681 839.981 541.296 839.198C542.911 838.415 544.239 837.146 545.094 835.568C546.119 832.592 542.153 831.398 538.346 831.84C541.121 832.085 543.198 833.258 542.552 835.617Z" fill="#061A14"/>
</g>
</g>
<g style="mix-blend-mode:multiply" opacity="0.33">
<path d="M582.873 820.821C577.21 831.319 553.886 826.329 556.962 814.706C560.037 803.082 588.458 810.299 582.873 820.821Z" fill="#310150"/>
</g>
<path d="M582.598 822.084C576.936 832.582 553.611 827.592 556.687 815.969C559.763 804.345 588.189 811.598 582.598 822.084Z" fill="#2AAC83"/>
<g style="mix-blend-mode:multiply" opacity="0.49">
<g style="mix-blend-mode:multiply" opacity="0.49">
<path d="M576.193 820.442C573.371 825.745 561.502 823.229 563.079 817.318C564.656 811.407 579.064 815.205 576.193 820.442Z" fill="#061A14"/>
</g>
</g>
<g style="mix-blend-mode:multiply">
<g style="mix-blend-mode:multiply">
<path d="M573.66 819.862C572.874 820.997 571.766 821.872 570.479 822.373C569.192 822.874 567.784 822.98 566.437 822.675C568.062 823.501 569.922 823.74 571.703 823.353C573.484 822.965 575.077 821.975 576.212 820.55C577.795 817.593 574.107 815.171 570.242 814.588C572.962 815.618 574.875 817.593 573.66 819.862Z" fill="#061A14"/>
</g>
</g>
<g style="mix-blend-mode:multiply" opacity="0.33">
<path d="M621.556 829.339C614.953 839.29 592.161 832.145 596.327 820.859C600.493 809.573 628.105 819.286 621.556 829.339Z" fill="#310150"/>
</g>
<path d="M621.17 830.585C614.568 840.536 591.775 833.391 595.941 822.105C600.107 810.819 627.737 820.64 621.17 830.585Z" fill="#2AAC83"/>
<g style="mix-blend-mode:multiply" opacity="0.49">
<g style="mix-blend-mode:multiply" opacity="0.49">
<path d="M614.947 828.47C611.634 833.484 600.067 829.884 602.189 824.143C604.311 818.401 618.291 823.414 614.947 828.47Z" fill="#061A14"/>
</g>
</g>
<g style="mix-blend-mode:multiply">
<g style="mix-blend-mode:multiply">
<path d="M612.467 827.548C611.582 828.607 610.4 829.377 609.074 829.76C607.748 830.142 606.337 830.12 605.024 829.696C606.564 830.672 608.395 831.083 610.205 830.859C612.014 830.635 613.69 829.791 614.947 828.47C616.781 825.694 613.334 822.937 609.554 821.97C612.171 823.276 613.874 825.322 612.467 827.548Z" fill="#061A14"/>
</g>
</g>
<g style="mix-blend-mode:multiply" opacity="0.33">
<path d="M648.799 841.736C644.794 850.188 625.993 840.798 627.891 830.772C629.788 820.746 652.779 833.14 648.799 841.736Z" fill="#310150"/>
</g>
<path d="M648.626 842.725C644.628 851.213 625.821 841.786 627.719 831.76C629.616 821.734 652.589 834.242 648.626 842.725Z" fill="#2AAC83"/>
<g style="mix-blend-mode:multiply" opacity="0.49">
<g style="mix-blend-mode:multiply" opacity="0.49">
<path d="M643.484 839.989C641.455 844.274 631.916 839.528 632.874 834.347C633.833 829.166 645.513 835.703 643.484 839.989Z" fill="#061A14"/>
</g>
</g>
<g style="mix-blend-mode:multiply">
<g style="mix-blend-mode:multiply">
<path d="M641.412 838.852C640.509 840.773 638.051 840.882 635.764 839.781C638.487 841.734 642.256 842.407 643.46 839.845C644.664 837.283 641.547 834.508 638.427 833.286C640.677 834.836 642.291 837.008 641.412 838.852Z" fill="#061A14"/>
</g>
</g>
<g style="mix-blend-mode:multiply" opacity="0.33">
<path d="M547.277 810.426C549.68 825.026 526.743 832.273 521.433 817.966C516.122 803.66 544.773 795.658 547.277 810.426Z" fill="#310150"/>
</g>
<path d="M548.519 809.224C550.921 823.824 527.985 831.071 522.71 816.758C517.436 802.446 546.081 794.63 548.519 809.224Z" fill="#2AAC83"/>
<g style="mix-blend-mode:multiply" opacity="0.49">
<g style="mix-blend-mode:multiply" opacity="0.49">
<path d="M542.132 811.051C543.345 818.423 531.768 822.175 529.051 814.865C526.333 807.556 540.913 803.643 542.132 811.051Z" fill="#061A14"/>
</g>
</g>
<g style="mix-blend-mode:multiply">
<g style="mix-blend-mode:multiply">
<path d="M539.649 811.681C539.878 813.153 539.593 814.659 538.843 815.946C538.093 817.233 536.922 818.223 535.528 818.749C536.49 818.725 537.436 818.501 538.307 818.092C539.178 817.682 539.953 817.096 540.585 816.37C541.216 815.644 541.69 814.794 541.974 813.876C542.259 812.957 542.35 811.989 542.239 811.033C541.565 806.934 536.843 806.307 533.207 807.792C536.073 807.468 539.128 808.517 539.649 811.681Z" fill="#061A14"/>
</g>
</g>
<g style="mix-blend-mode:multiply" opacity="0.33">
<path d="M520.137 837.496C518.151 852.153 494.06 852.387 493.236 837.047C492.412 821.707 522.152 822.796 520.137 837.496Z" fill="#310150"/>
</g>
<path d="M522.875 838.19C520.896 852.884 496.769 853.123 495.981 837.777C495.192 822.431 524.861 823.533 522.875 838.19Z" fill="#2AAC83"/>
<g style="mix-blend-mode:multiply" opacity="0.49">
<g style="mix-blend-mode:multiply" opacity="0.49">
<path d="M516.236 838.027C515.261 845.575 503.033 845.592 502.606 837.832C502.179 830.072 517.235 830.623 516.236 838.027Z" fill="#061A14"/>
</g>
</g>
<g style="mix-blend-mode:multiply">
<g style="mix-blend-mode:multiply">
<path d="M513.592 837.909C513.361 839.383 512.632 840.733 511.526 841.735C510.42 842.737 509.004 843.33 507.514 843.415C508.442 843.687 509.416 843.76 510.375 843.631C511.333 843.502 512.253 843.172 513.076 842.664C513.898 842.156 514.604 841.481 515.149 840.682C515.693 839.883 516.063 838.979 516.235 838.028C516.783 833.948 512.466 831.963 508.563 832.272C509.266 832.305 509.955 832.478 510.591 832.78C511.226 833.082 511.795 833.508 512.263 834.033C512.731 834.558 513.09 835.172 513.318 835.837C513.547 836.502 513.64 837.207 513.592 837.909Z" fill="#061A14"/>
</g>
</g>
<g style="mix-blend-mode:multiply" opacity="0.33">
<path d="M507.747 814.751C505.768 829.445 481.677 829.678 480.852 814.338C480.028 798.998 509.732 800.094 507.747 814.751Z" fill="#310150"/>
</g>
<path d="M509.773 812.904C507.788 827.561 483.661 827.801 482.872 812.455C482.084 797.109 511.596 798.384 509.773 812.904Z" fill="#2AAC83"/>
<g style="mix-blend-mode:multiply" opacity="0.49">
<g style="mix-blend-mode:multiply" opacity="0.49">
<path d="M503.156 812.885C502.18 820.432 489.947 820.414 489.52 812.654C489.092 804.894 504.148 805.445 503.156 812.885Z" fill="#061A14"/>
</g>
</g>
<g style="mix-blend-mode:multiply">
<g style="mix-blend-mode:multiply">
<path d="M500.506 812.73C500.264 814.201 499.534 815.549 498.432 816.554C497.33 817.56 495.922 818.165 494.434 818.272C495.362 818.532 496.333 818.597 497.287 818.463C498.241 818.328 499.157 817.998 499.977 817.491C500.797 816.985 501.502 816.314 502.049 815.521C502.596 814.728 502.973 813.831 503.155 812.885C503.697 808.77 499.38 806.784 495.477 807.094C498.347 807.693 500.908 809.561 500.506 812.73Z" fill="#061A14"/>
</g>
</g>
<g style="mix-blend-mode:multiply" opacity="0.33">
<path d="M482.447 842.664C480.461 857.321 456.377 857.591 455.546 842.215C454.716 826.839 484.492 828.144 482.447 842.664Z" fill="#310150"/>
</g>
<path d="M485.336 843.149C483.357 857.843 459.23 858.082 458.442 842.736C457.653 827.39 487.322 828.492 485.336 843.149Z" fill="#2AAC83"/>
<g style="mix-blend-mode:multiply" opacity="0.49">
<g style="mix-blend-mode:multiply" opacity="0.49">
<path d="M478.693 842.986C477.718 850.533 465.49 850.551 465.063 842.791C464.636 835.031 479.692 835.582 478.693 842.986Z" fill="#061A14"/>
</g>
</g>
<g style="mix-blend-mode:multiply">
<g style="mix-blend-mode:multiply">
<path d="M476.053 842.867C475.822 844.341 475.093 845.691 473.987 846.693C472.881 847.695 471.465 848.288 469.975 848.373C470.903 848.639 471.876 848.708 472.832 848.576C473.788 848.444 474.706 848.114 475.527 847.607C476.348 847.1 477.054 846.427 477.6 845.631C478.146 844.835 478.519 843.934 478.696 842.986C479.244 838.906 474.927 836.921 471.024 837.23C471.727 837.263 472.416 837.436 473.052 837.738C473.687 838.04 474.255 838.466 474.724 838.991C475.192 839.516 475.551 840.13 475.779 840.795C476.008 841.46 476.1 842.165 476.053 842.867Z" fill="#061A14"/>
</g>
</g>
<g style="mix-blend-mode:multiply" opacity="0.33">
<path d="M474.572 816.591C472.593 831.284 448.502 831.518 447.678 816.178C446.853 800.837 476.594 801.927 474.572 816.591Z" fill="#310150"/>
</g>
<path d="M475.8 814.172C473.815 828.83 449.724 829.063 448.9 813.723C448.075 798.383 477.815 799.695 475.8 814.172Z" fill="#2AAC83"/>
<g style="mix-blend-mode:multiply" opacity="0.49">
<g style="mix-blend-mode:multiply" opacity="0.49">
<path d="M469.16 814.009C468.185 821.557 455.951 821.538 455.56 813.772C455.169 806.006 470.189 806.564 469.16 814.009Z" fill="#061A14"/>
</g>
</g>
<g style="mix-blend-mode:multiply">
<g style="mix-blend-mode:multiply">
<path d="M466.512 813.854C466.295 815.33 465.577 816.686 464.478 817.695C463.378 818.703 461.965 819.302 460.476 819.391C461.401 819.657 462.371 819.726 463.325 819.594C464.278 819.463 465.194 819.133 466.012 818.626C466.83 818.119 467.533 817.446 468.075 816.651C468.618 815.856 468.987 814.956 469.161 814.01C469.739 809.889 465.421 807.903 461.488 808.254C464.46 808.799 466.956 810.716 466.512 813.854Z" fill="#061A14"/>
</g>
</g>
<g style="mix-blend-mode:multiply" opacity="0.33">
<path d="M445.887 846.39C443.902 861.047 419.775 861.287 418.986 845.941C418.198 830.595 447.872 831.732 445.887 846.39Z" fill="#310150"/>
</g>
<path d="M448.27 847.622C446.285 862.28 422.194 862.514 421.37 847.173C420.545 831.833 450.256 832.965 448.27 847.622Z" fill="#2AAC83"/>
<g style="mix-blend-mode:multiply" opacity="0.49">
<g style="mix-blend-mode:multiply" opacity="0.49">
<path d="M441.629 847.459C440.653 855.007 428.42 854.988 428.028 847.222C427.637 839.457 442.657 840.014 441.629 847.459Z" fill="#061A14"/>
</g>
</g>
<g style="mix-blend-mode:multiply">
<g style="mix-blend-mode:multiply">
<path d="M438.982 847.305C438.766 848.78 438.048 850.136 436.948 851.145C435.849 852.153 434.436 852.752 432.946 852.841C433.871 853.101 434.84 853.166 435.792 853.032C436.743 852.897 437.657 852.567 438.473 852.061C439.29 851.554 439.993 850.884 440.536 850.092C441.08 849.3 441.453 848.403 441.631 847.46C442.21 843.339 437.892 841.353 433.953 841.668C436.931 842.25 439.421 844.13 438.982 847.305Z" fill="#061A14"/>
</g>
</g>
<g style="mix-blend-mode:multiply" opacity="0.33">
<path d="M440.768 821.341C438.783 835.998 414.692 836.232 413.868 820.892C413.043 805.552 442.747 806.647 440.768 821.341Z" fill="#310150"/>
</g>
<path d="M442.786 819.679C440.8 834.337 416.71 834.57 415.885 819.23C415.061 803.89 444.825 805.124 442.786 819.679Z" fill="#2AAC83"/>
<g style="mix-blend-mode:multiply" opacity="0.49">
<g style="mix-blend-mode:multiply" opacity="0.49">
<path d="M436.182 819.51C435.171 827.063 422.937 827.045 422.546 819.279C422.155 811.513 437.175 812.07 436.182 819.51Z" fill="#061A14"/>
</g>
</g>
<g style="mix-blend-mode:multiply">
<g style="mix-blend-mode:multiply">
<path d="M433.497 819.361C433.268 820.831 432.546 822.18 431.449 823.186C430.353 824.192 428.946 824.795 427.462 824.897C428.389 825.158 429.361 825.223 430.315 825.088C431.269 824.954 432.185 824.623 433.004 824.117C433.824 823.61 434.53 822.94 435.077 822.147C435.624 821.354 436 820.456 436.182 819.51C436.725 815.395 432.407 813.409 428.468 813.725C431.44 814.27 433.936 816.187 433.497 819.361Z" fill="#061A14"/>
</g>
</g>
<g style="mix-blend-mode:multiply" opacity="0.33">
<path d="M412.438 848.57C416.604 862.659 394.746 872.867 387.726 859.174C380.706 845.481 408.254 834.374 412.438 848.57Z" fill="#310150"/>
</g>
<path d="M414.978 848.299C419.143 862.388 397.279 872.56 390.259 858.867C383.24 845.174 410.788 834.067 414.978 848.299Z" fill="#2AAC83"/>
<g style="mix-blend-mode:multiply" opacity="0.49">
<g style="mix-blend-mode:multiply" opacity="0.49">
<path d="M408.857 850.858C410.94 857.902 399.798 863.171 396.324 856.207C392.85 849.244 406.751 843.67 408.857 850.858Z" fill="#061A14"/>
</g>
</g>
<g style="mix-blend-mode:multiply">
<g style="mix-blend-mode:multiply">
<path d="M406.393 851.817C406.776 853.256 406.662 854.781 406.068 856.146C405.474 857.511 404.436 858.636 403.122 859.337C404.062 859.198 404.964 858.868 405.772 858.366C406.579 857.865 407.275 857.203 407.815 856.421C408.355 855.639 408.729 854.754 408.912 853.822C409.096 852.89 409.086 851.93 408.882 851.002C407.71 847.021 402.969 846.952 399.512 848.85C402.409 848.041 405.338 848.778 406.393 851.817Z" fill="#061A14"/>
</g>
</g>
<g style="mix-blend-mode:multiply" opacity="0.33">
<path d="M403.054 827.03C407.219 841.119 385.361 851.327 378.341 837.634C371.322 823.941 398.846 812.69 403.054 827.03Z" fill="#310150"/>
</g>
<path d="M404.754 824.792C408.92 838.88 387.062 849.089 380.042 835.396C373.022 821.703 400.571 810.595 404.754 824.792Z" fill="#2AAC83"/>
<g style="mix-blend-mode:multiply" opacity="0.49">
<g style="mix-blend-mode:multiply" opacity="0.49">
<path d="M398.659 827.494C400.778 834.533 389.594 839.771 386.126 832.844C382.658 825.916 396.529 820.162 398.659 827.494Z" fill="#061A14"/>
</g>
</g>
<g style="mix-blend-mode:multiply">
<g style="mix-blend-mode:multiply">
<path d="M396.174 828.346C396.561 829.78 396.448 831.303 395.852 832.663C395.256 834.024 394.214 835.141 392.897 835.829C393.84 835.696 394.745 835.369 395.555 834.869C396.365 834.369 397.063 833.706 397.604 832.923C398.145 832.14 398.518 831.253 398.7 830.319C398.881 829.384 398.866 828.423 398.657 827.494C397.485 823.513 392.744 823.444 389.287 825.343C389.936 825.084 390.63 824.957 391.329 824.968C392.028 824.979 392.717 825.129 393.357 825.408C393.998 825.688 394.577 826.091 395.06 826.595C395.543 827.1 395.922 827.695 396.174 828.346Z" fill="#061A14"/>
</g>
</g>
<g style="mix-blend-mode:multiply" opacity="0.33">
<path d="M24.8465 435.996C20.9334 452.411 -31.5584 433.421 -33.7705 413.914C-35.9827 394.407 28.7538 419.545 24.8465 435.996Z" fill="#310150"/>
</g>
<path d="M26.2796 440.451C22.3664 456.866 -30.1253 437.876 -32.3015 418.363C-34.4777 398.85 30.1868 424 26.2796 440.451Z" fill="#2AAC83"/>
<g style="mix-blend-mode:multiply" opacity="0.49">
<g style="mix-blend-mode:multiply" opacity="0.49">
<path d="M8.21542 437.772C11.2498 442.739 -10.7554 434.763 -16.4665 428.574C-22.1777 422.385 5.18102 432.805 8.21542 437.772Z" fill="#061A14"/>
</g>
</g>
<g style="mix-blend-mode:multiply">
<g style="mix-blend-mode:multiply">
<path d="M3.32772 435.917C4.69556 438.166 1.00414 437.74 -4.03335 436.094C3.0811 439.134 9.91697 440.705 8.14296 437.784C6.36895 434.862 -2.59523 430.686 -9.45335 428.306C-3.69821 430.72 2.0555 433.799 3.32772 435.917Z" fill="#061A14"/>
</g>
</g>
<g style="mix-blend-mode:multiply" opacity="0.33">
<path d="M84.4191 470.405C79.0557 483.845 37.0135 461.215 37.6127 444.422C38.2119 427.629 89.9323 456.977 84.4191 470.405Z" fill="#310150"/>
</g>
<path d="M85.0694 474.36C79.8859 487.771 37.6998 465.165 38.263 448.377C38.8263 431.59 90.5649 460.824 85.0694 474.36Z" fill="#2AAC83"/>
<g style="mix-blend-mode:multiply" opacity="0.49">
<g style="mix-blend-mode:multiply" opacity="0.49">
<path d="M70.2851 469.849C72.2234 474.442 54.7107 465.025 50.5397 458.989C46.3687 452.953 68.3109 465.262 70.2851 469.849Z" fill="#061A14"/>
</g>
</g>
<g style="mix-blend-mode:multiply">
<g style="mix-blend-mode:multiply">
<path d="M66.3782 467.649C67.2369 469.723 64.1877 468.932 60.194 466.893C65.827 470.362 71.3791 472.44 70.2877 469.849C69.1964 467.259 62.0555 462.487 56.5591 459.624C60.3589 461.581 63.7044 464.315 66.3782 467.649Z" fill="#061A14"/>
</g>
</g>
<g style="mix-blend-mode:multiply" opacity="0.33">
<path d="M114.067 528.648C102.761 537.637 77.4805 497.18 86.2863 482.877C95.0922 468.575 125.367 519.624 114.067 528.648Z" fill="#310150"/>
</g>
<path d="M112.692 532.42C101.386 541.409 76.1055 500.951 84.9113 486.649C93.7171 472.346 123.992 523.395 112.692 532.42Z" fill="#2AAC83"/>
<g style="mix-blend-mode:multiply" opacity="0.49">
<g style="mix-blend-mode:multiply" opacity="0.49">
<path d="M101.923 521.08C101.367 526.01 90.8231 509.093 90.1911 501.884C89.5591 494.675 102.514 516.144 101.923 521.08Z" fill="#061A14"/>
</g>
</g>
<g style="mix-blend-mode:multiply">
<g style="mix-blend-mode:multiply">
<path d="M99.5203 517.265C99.2578 519.487 97.0087 517.272 94.5111 513.546C97.7176 519.335 101.478 523.997 101.814 521.098C102.15 518.199 98.3476 510.588 94.9899 505.453C97.3241 509.023 98.8687 513.05 99.5203 517.265Z" fill="#061A14"/>
</g>
</g>
<g style="mix-blend-mode:multiply" opacity="0.33">
<path d="M97.4998 596.601C83.048 596.579 88.4778 549.184 104.278 543.481C120.079 537.779 111.946 596.588 97.4998 596.601Z" fill="#310150"/>
</g>
<path d="M94.07 598.68C79.6242 598.693 85.0481 551.262 100.849 545.56C116.649 539.857 108.516 598.667 94.07 598.68Z" fill="#2AAC83"/>
<g style="mix-blend-mode:multiply" opacity="0.49">
<g style="mix-blend-mode:multiply" opacity="0.49">
<path d="M92.6944 583.135C89.1684 586.633 91.4883 566.824 95.4813 560.774C99.4743 554.725 96.2563 579.631 92.6944 583.135Z" fill="#061A14"/>
</g>
</g>
<g style="mix-blend-mode:multiply">
<g style="mix-blend-mode:multiply">
<path d="M93.2758 578.571C91.6899 580.162 91.2831 577.015 91.6943 572.552C90.5534 579.093 90.6125 585.067 92.6789 583.028C94.7452 580.989 96.4773 572.652 97.0898 566.494C96.6929 570.745 95.3925 574.862 93.2758 578.571Z" fill="#061A14"/>
</g>
</g>
<g style="mix-blend-mode:multiply" opacity="0.33">
<path d="M59.3203 651.343C47.5331 647.078 65.9068 609.631 80.6044 609.576C95.302 609.521 71.2574 655.621 59.3203 651.343Z" fill="#310150"/>
</g>
<path d="M55.8906 652.055C44.1033 647.789 62.4771 610.342 77.1747 610.288C91.8724 610.233 67.8277 656.333 55.8906 652.055Z" fill="#2AAC83"/>
<g style="mix-blend-mode:multiply" opacity="0.49">
<g style="mix-blend-mode:multiply" opacity="0.49">
<path d="M59.3632 638.814C55.4211 640.682 63.1928 625.035 68.254 621.211C73.3152 617.386 63.3112 636.983 59.3632 638.814Z" fill="#061A14"/>
</g>
</g>
<g style="mix-blend-mode:multiply">
<g style="mix-blend-mode:multiply">
<path d="M61.1583 635.343C59.3763 636.19 59.9636 633.471 61.6315 629.909C58.7676 634.961 57.0308 639.9 59.4007 638.809C61.7707 637.717 65.5724 631.403 67.8789 626.333C66.3199 629.788 64.0265 632.863 61.1583 635.343Z" fill="#061A14"/>
</g>
</g>
<g style="mix-blend-mode:multiply" opacity="0.33">
<path d="M33.7233 710.92C21.2906 708.571 33.6036 668.649 48.1443 666.294C62.6849 663.938 46.1861 713.228 33.7233 710.92Z" fill="#310150"/>
</g>
<path d="M30.453 712.16C17.9902 709.852 30.3333 669.889 44.8381 667.539C59.3428 665.189 42.8857 714.51 30.453 712.16Z" fill="#2AAC83"/>
<g style="mix-blend-mode:multiply" opacity="0.49">
<g style="mix-blend-mode:multiply" opacity="0.49">
<path d="M31.758 698.538C28.1742 701.011 33.3707 684.311 37.7561 679.748C42.1415 675.185 35.3836 696.094 31.758 698.538Z" fill="#061A14"/>
</g>
</g>
<g style="mix-blend-mode:multiply">
<g style="mix-blend-mode:multiply">
<path d="M32.995 694.826C31.3682 695.943 31.542 693.181 32.617 689.385C30.5914 694.815 29.6692 699.99 31.7583 698.538C33.8473 697.086 36.7269 690.333 38.2188 685.028C37.2007 688.63 35.4191 691.972 32.995 694.826Z" fill="#061A14"/>
</g>
</g>
<g style="mix-blend-mode:multiply" opacity="0.33">
<path d="M21.5662 764.371C11.4831 764.849 13.7358 731.606 24.5351 726.948C35.3344 722.29 31.6493 763.894 21.5662 764.371Z" fill="#310150"/>
</g>
<path d="M19.2381 765.936C9.19096 766.408 11.4077 733.171 22.207 728.513C33.0063 723.855 29.3211 765.459 19.2381 765.936Z" fill="#2AAC83"/>
<g style="mix-blend-mode:multiply" opacity="0.49">
<g style="mix-blend-mode:multiply" opacity="0.49">
<path d="M17.7939 755.131C15.4447 757.696 16.4094 743.798 18.9122 739.471C21.415 735.144 19.9991 752.589 17.7939 755.131Z" fill="#061A14"/>
</g>
</g>
<g style="mix-blend-mode:multiply">
<g style="mix-blend-mode:multiply">
<path d="M18.057 752.021C16.9876 753.157 16.6325 751 16.7471 747.878C16.1679 752.443 16.4167 756.649 17.9305 755.071C19.5862 751.462 20.4528 747.542 20.4727 743.572C20.2749 746.527 19.4515 749.407 18.057 752.021Z" fill="#061A14"/>
</g>
</g>
<defs>
<linearGradient id="paint0_linear_400_17894" x1="676.172" y1="706.772" x2="-297.45" y2="436.692" gradientUnits="userSpaceOnUse">
<stop offset="0.32" stop-color="#3E0166"/>
<stop offset="1" stop-color="#31014F"/>
</linearGradient>
<linearGradient id="paint1_linear_400_17894" x1="-155.743" y1="80.7691" x2="50.5006" y2="445.361" gradientUnits="userSpaceOnUse">
<stop stop-color="white"/>
<stop offset="1" stop-color="#7D00CF"/>
</linearGradient>
<linearGradient id="paint2_linear_400_17894" x1="2353.1" y1="49446.9" x2="20604.5" y2="46853.5" gradientUnits="userSpaceOnUse">
<stop stop-color="white"/>
<stop offset="1" stop-color="#9800AB"/>
<stop offset="1" stop-color="#310150"/>
</linearGradient>
<linearGradient id="paint3_linear_400_17894" x1="-228.24" y1="125.883" x2="342.811" y2="1135.37" gradientUnits="userSpaceOnUse">
<stop stop-color="#200034"/>
<stop offset="1" stop-color="#3D0165"/>
</linearGradient>
<linearGradient id="paint4_linear_400_17894" x1="-100666" y1="45963" x2="52752" y2="20718.2" gradientUnits="userSpaceOnUse">
<stop stop-color="#3E0165"/>
<stop offset="1" stop-color="#310050"/>
</linearGradient>
<linearGradient id="paint5_linear_400_17894" x1="123.276" y1="520.101" x2="313.907" y2="857.094" gradientUnits="userSpaceOnUse">
<stop stop-color="#3E0065"/>
<stop offset="1"/>
</linearGradient>
<linearGradient id="paint6_linear_400_17894" x1="-49.5017" y1="212.579" x2="455.762" y2="1105.77" gradientUnits="userSpaceOnUse">
<stop stop-color="#320152"/>
<stop offset="1" stop-color="#3E0166"/>
</linearGradient>
<linearGradient id="paint7_linear_400_17894" x1="-3983.47" y1="69279.6" x2="61101.5" y2="58569.9" gradientUnits="userSpaceOnUse">
<stop stop-color="#3E0066"/>
<stop offset="1" stop-color="#31004F"/>
</linearGradient>
</defs>
</svg>
