<svg width="724" height="656" viewBox="0 0 724 656" fill="none" xmlns="http://www.w3.org/2000/svg">
<path d="M729.293 290.656C728.083 276.67 691.874 282.254 688.752 297.55C685.63 312.845 730.473 304.615 729.293 290.656Z" fill="#208363"/>
<path d="M658.767 304.889C657.587 290.931 621.322 296.515 618.229 311.838C615.136 327.161 659.95 318.903 658.767 304.889Z" fill="#208363"/>
<path d="M754.381 516.301C765.646 508.73 739.767 480.503 724.864 485.018C709.961 489.533 743.23 523.928 754.381 516.301Z" fill="#1F1F1F"/>
<path d="M638.191 124.036C638.191 124.036 648.297 174.643 595.504 156.584C542.711 138.525 545.569 51.6989 644.45 53.1849C743.332 54.6708 842.689 170.467 804.636 273.901C766.582 377.335 639.696 377.538 579.143 378.515C518.59 379.492 486.796 412.075 492.409 474.836C498.023 537.598 536.021 580.123 625.089 603.03C714.156 625.937 639.062 522.108 521.174 529.962C403.285 537.817 361.543 649.512 431.481 732.809C510.543 826.969 643.266 939.336 557.789 1073.88C557.789 1073.88 470.652 1166.52 377.828 1031.56C377.828 1031.56 439.377 964.66 342.359 871.993C239.978 774.205 205.963 642.21 281.718 524.823C370.231 388.095 520.697 372.182 671.583 452.04C822.469 531.897 830.671 651.964 771.058 707.572C705.6 768.595 466.033 746.853 400.852 581.371C335.671 415.889 418.6 328.713 501.751 313.288C584.901 297.864 762.823 327.71 762.485 222.172C762.147 116.634 675.628 72.2275 622.165 80.4476C568.702 88.6677 572.657 131.987 594.705 143.985C616.753 155.984 639.368 151.608 638.191 124.036Z" fill="url(#paint0_linear_400_18148)"/>
<path style="mix-blend-mode:multiply" opacity="0.72" d="M459.684 590.586C455.147 547.758 490.518 544.987 539.235 568.37C529.77 559.157 521.333 548.954 514.091 537.965C512.914 536.264 511.815 534.482 510.778 532.81L509.773 531.222C459.726 537.625 424.952 563.591 408.491 597.779C482.621 748.083 708.078 766.352 771.3 707.436C772.216 706.477 773.131 705.518 774.047 704.56C671.002 781.059 465.404 644.964 459.684 590.586Z" fill="url(#paint1_linear_400_18148)"/>
<path style="mix-blend-mode:multiply" opacity="0.72" d="M721.614 584.513C638.285 522.099 559.167 523.622 526.018 527.94C520.486 528.608 515.018 529.593 509.641 530.889L509.875 531.113C513.644 530.628 517.293 529.976 521.241 529.714C523.395 529.571 525.473 529.566 527.603 529.506C641.637 525.982 712.551 625.505 625.14 602.975C610.902 599.376 596.883 594.739 583.198 589.101C551.382 575.89 528.908 558.823 514.366 537.968C521.608 548.957 530.045 559.16 539.51 568.373C634.023 660.847 819.359 657.763 721.614 584.513Z" fill="url(#paint2_linear_400_18148)"/>
<path style="mix-blend-mode:multiply" opacity="0.72" d="M639.394 344.413C494.384 318.77 431.549 346.424 392.778 425.5C429.107 409.064 469.403 401.688 510.389 403.974C518.093 395.568 527.75 389.17 538.62 385.27C541.389 384.249 544.249 383.366 547.141 382.568C547.141 382.568 547.377 382.321 547.742 382.408C550.445 381.69 553.294 381.112 556.146 380.59C556.613 380.512 557.021 380.378 557.488 380.3C560.262 379.86 563.179 379.504 566.129 379.231C566.707 379.155 567.311 379.051 567.918 379.002C571.474 378.681 575.204 378.472 578.998 378.43C639.551 377.453 766.438 377.25 804.491 273.816C804.823 272.824 805.099 271.831 805.46 270.866C796.497 295.561 759.774 365.806 639.394 344.413Z" fill="url(#paint3_linear_400_18148)"/>
<path style="mix-blend-mode:color-dodge" d="M621.163 528.001C577.81 515.136 538.574 514.738 505.283 522.9C471.43 530.64 441.917 549.645 421.439 576.89C440.432 553.133 470.33 535.97 509.647 530.944C515.013 529.596 520.482 528.592 526.021 527.94C559.144 523.65 638.17 521.987 721.617 584.513C762.833 615.396 753.594 633.752 722.119 637.783L722.426 637.814C788.037 637.584 747.187 565.31 621.163 528.001Z" fill="url(#paint4_linear_400_18148)"/>
<path style="mix-blend-mode:color-dodge" d="M639.393 344.414C759.627 365.666 796.549 295.507 805.55 271.006C816.089 240.001 815.154 205.557 802.904 173.634C827.617 283.337 767.489 358.198 639.393 344.414Z" fill="url(#paint5_linear_400_18148)"/>
<path style="mix-blend-mode:color-dodge" d="M631.366 56.032C670.157 55.3945 708.939 67.5837 741.693 90.7076C712.993 67.9563 678.735 53.7225 644.425 53.2126C578.03 52.3275 554.878 91.1747 563.095 122.171C558.423 93.0947 583.902 57.1505 631.366 56.032Z" fill="url(#paint6_linear_400_18148)"/>
<path style="mix-blend-mode:color-dodge" d="M454.481 759.124C446.517 750.156 438.781 741.301 431.472 732.644C412.27 710.428 400.493 683.027 397.945 654.638C397.71 672.953 410.097 726.629 469.714 789.228C525.321 847.578 574.066 952.007 559.163 1025.34C572.287 966.072 557.935 878.258 454.481 759.124Z" fill="url(#paint7_linear_400_18148)"/>
<path style="mix-blend-mode:color-dodge" opacity="0.44" d="M722.426 637.814L722.119 637.783C679.033 643.293 594.066 621.842 539.235 568.37C498.581 548.865 467.336 547.669 460.66 572.611C459.411 634.578 624.502 714.23 709.853 708.763C766.595 705.088 761.038 658.459 750.971 627.581C746.814 633.928 737.443 637.756 722.426 637.814Z" fill="url(#paint8_linear_400_18148)"/>
<path style="mix-blend-mode:color-dodge" opacity="0.44" d="M381.778 430.86C385.361 429.045 388.973 427.258 392.556 425.443C400.788 407.959 411.71 391.995 424.953 378.09C425.117 377.864 425.31 377.662 425.528 377.488C440.661 362.213 459.391 350.898 480.241 344.433C562.157 308.713 656.595 315.906 688.807 309.227C696.973 307.599 695.198 303.181 687.358 297.368C628.807 310.68 549.732 304.649 501.896 313.373C471.984 318.848 444.821 332.793 423.559 353.589C402.297 374.385 387.81 401.179 381.778 430.86V430.86Z" fill="url(#paint9_linear_400_18148)"/>
<path d="M671.884 451.959C617 422.948 562.262 406.749 510.463 404.251C465.232 401.629 420.898 410.831 381.865 430.944C343.724 450.813 309.79 481.823 281.993 524.771C205.987 642.127 240.13 773.93 342.634 871.941C439.653 964.607 378.074 1031.48 378.074 1031.48C419.622 1092.12 460.192 1106.72 492.191 1104.61C636.287 882.287 393.379 777.277 380.133 674.284C364.922 556.217 453.501 510.469 495.649 495.264C516.365 487.835 538.179 483.288 560.506 481.744C662.636 474.549 823.11 545.6 800.834 659.443C819.16 598.076 787.152 513.141 671.884 451.959Z" fill="url(#paint10_linear_400_18148)"/>
<path d="M546.534 308.876C569.111 308.705 593.288 310.378 643.687 311.644C725.831 313.64 837.623 281.37 800.593 183.155C776.318 118.753 719.061 94.8066 664.002 83.6957C711.687 96.719 762.231 141.539 762.544 222.228C762.868 311.413 636.111 304.146 546.534 308.876Z" fill="url(#paint11_linear_400_18148)"/>
<g style="mix-blend-mode:multiply" opacity="0.27">
<path d="M800.805 659.471C819.157 598.076 787.149 513.141 671.881 451.959C638.64 434.112 603.397 420.751 567.144 412.253C596.177 424.272 672.305 459.905 723.468 522.966C775.558 554.023 812.208 601.127 800.805 659.471Z" fill="#632C53"/>
</g>
<g style="mix-blend-mode:color-dodge" opacity="0.6">
<path d="M540.957 658.788C534.428 660.46 564.322 676.916 563.93 669.524C563.538 662.131 548.944 656.937 540.957 658.788Z" fill="#8C8789"/>
</g>
<g style="mix-blend-mode:color-dodge" opacity="0.6">
<path d="M568.538 319.628C565.922 322.367 584.654 322.819 582.317 318.754C579.98 314.689 571.73 316.287 568.538 319.628Z" fill="#8C8789"/>
</g>
<g style="mix-blend-mode:color-dodge" opacity="0.6">
<path d="M665.396 71.1482C669.632 70.5853 669.415 63.8315 663.703 66.7027C657.991 69.5738 660.279 71.8122 665.396 71.1482Z" fill="#8C8789"/>
</g>
<g style="mix-blend-mode:color-dodge" opacity="0.6">
<path d="M670.798 74.0564C673.33 74.2222 671.95 67.9814 668.942 69.6644C665.933 71.3474 667.765 73.8299 670.798 74.0564Z" fill="#8C8789"/>
</g>
<g style="mix-blend-mode:multiply" opacity="0.33">
<path d="M347.719 632.539C321.243 628.932 323.226 680.945 351.202 690.961C379.179 700.976 374.222 636.119 347.719 632.539Z" fill="#632C53"/>
</g>
<path d="M347.324 626.558C320.847 622.951 322.804 674.992 350.807 684.98C378.81 694.967 373.801 630.165 347.324 626.558Z" fill="#2AAC83"/>
<g style="mix-blend-mode:multiply" opacity="0.49">
<g style="mix-blend-mode:multiply" opacity="0.49">
<path d="M348.284 640.984C334.879 639.179 335.965 665.615 350.048 670.583C364.131 675.55 361.718 642.817 348.284 640.984Z" fill="#270040"/>
</g>
</g>
<g style="mix-blend-mode:multiply">
<g style="mix-blend-mode:multiply">
<path d="M348.81 646.828C342.776 645.988 339.673 650.88 339.262 656.824C337.43 648.476 340.264 639.818 348.167 640.872C356.07 641.926 359.652 652.314 359.432 660.64C358.252 654.014 354.508 647.609 348.81 646.828Z" fill="#270040"/>
</g>
</g>
<g style="mix-blend-mode:multiply" opacity="0.33">
<path d="M282.781 632.416C256.305 628.809 258.258 680.795 286.235 690.81C314.212 700.825 309.284 635.996 282.781 632.416Z" fill="#632C53"/>
</g>
<path d="M282.359 626.408C255.911 622.829 257.839 674.842 285.842 684.83C313.845 694.817 308.862 629.988 282.359 626.408Z" fill="#2AAC83"/>
<g style="mix-blend-mode:multiply" opacity="0.49">
<g style="mix-blend-mode:multiply" opacity="0.49">
<path d="M283.343 640.862C269.909 639.028 270.893 665.63 285.077 670.432C299.262 675.234 296.748 642.667 283.343 640.862Z" fill="#270040"/>
</g>
</g>
<g style="mix-blend-mode:multiply">
<g style="mix-blend-mode:multiply">
<path d="M283.843 646.678C277.838 645.866 274.735 650.758 274.295 656.675C272.463 648.326 275.353 639.669 283.229 640.75C291.106 641.832 294.714 652.192 294.491 660.463C293.285 653.864 289.541 647.459 283.843 646.678Z" fill="#270040"/>
</g>
</g>
<g style="mix-blend-mode:multiply" opacity="0.33">
<path d="M362.927 558.658C338.36 547.186 324.566 591.253 348.805 608.644C373.043 626.034 387.521 570.103 362.927 558.658Z" fill="#632C53"/>
</g>
<path d="M364.353 553.526C339.759 542.081 325.992 586.121 350.231 603.512C374.469 620.902 388.918 564.944 364.353 553.526Z" fill="#2AAC83"/>
<g style="mix-blend-mode:multiply" opacity="0.49">
<g style="mix-blend-mode:multiply" opacity="0.49">
<path d="M360.923 565.858C348.457 560.078 341.492 582.388 353.652 591.07C365.812 599.752 373.363 571.665 360.923 565.858Z" fill="#270040"/>
</g>
</g>
<g style="mix-blend-mode:multiply">
<g style="mix-blend-mode:multiply">
<path d="M359.629 570.908C354.023 568.329 349.57 571.407 347.412 576.365C348.176 568.819 353.553 562.485 360.896 565.885C368.239 569.285 368.547 579.111 365.861 585.972C366.653 579.921 364.951 573.372 359.629 570.908Z" fill="#270040"/>
</g>
</g>
<g style="mix-blend-mode:multiply" opacity="0.33">
<path d="M303.479 543.46C278.886 532.015 265.118 576.055 289.357 593.445C313.595 610.835 328.125 554.85 303.479 543.46Z" fill="#632C53"/>
</g>
<path d="M304.931 538.301C280.337 526.856 266.57 570.896 290.809 588.287C315.047 605.677 329.496 549.718 304.931 538.301Z" fill="#2AAC83"/>
<g style="mix-blend-mode:multiply" opacity="0.49">
<g style="mix-blend-mode:multiply" opacity="0.49">
<path d="M301.501 550.633C289.035 544.853 282.071 567.163 294.231 575.845C306.391 584.527 313.941 556.44 301.501 550.633Z" fill="#270040"/>
</g>
</g>
<g style="mix-blend-mode:multiply">
<g style="mix-blend-mode:multiply">
<path d="M300.233 555.655C294.627 553.076 290.174 556.155 288.043 561.085C288.78 553.567 294.157 547.233 301.5 550.633C308.843 554.033 309.178 563.832 306.465 570.72C307.231 564.696 305.529 558.147 300.233 555.655Z" fill="#270040"/>
</g>
</g>
<g style="mix-blend-mode:multiply" opacity="0.33">
<path d="M408.637 510.038C392.695 487.951 357.513 516.983 370.029 543.655C382.545 570.326 424.608 532.154 408.637 510.038Z" fill="#632C53"/>
</g>
<path d="M412.48 506.483C396.509 484.368 361.33 513.456 373.843 540.072C386.356 566.688 428.51 528.655 412.48 506.483Z" fill="#2AAC83"/>
<g style="mix-blend-mode:multiply" opacity="0.49">
<g style="mix-blend-mode:multiply" opacity="0.49">
<path d="M403.095 514.96C395.005 503.776 377.248 518.554 383.526 531.986C389.803 545.419 411.158 526.17 403.095 514.96Z" fill="#270040"/>
</g>
</g>
<g style="mix-blend-mode:multiply">
<g style="mix-blend-mode:multiply">
<path d="M399.329 518.432C395.718 513.413 390.132 513.629 385.643 516.569C390.22 510.78 398.342 508.378 403.094 514.959C407.847 521.541 403.046 529.735 397.08 533.986C400.868 529.434 402.839 523.147 399.329 518.432Z" fill="#270040"/>
</g>
</g>
<g style="mix-blend-mode:multiply" opacity="0.33">
<path d="M353.821 486.12C337.879 464.032 302.697 493.065 315.213 519.736C327.729 546.407 369.792 508.235 353.821 486.12Z" fill="#632C53"/>
</g>
<path d="M354.878 481.786C338.907 459.671 303.753 488.731 316.269 515.402C328.786 542.074 370.819 503.874 354.878 481.786Z" fill="#2AAC83"/>
<g style="mix-blend-mode:multiply" opacity="0.49">
<g style="mix-blend-mode:multiply" opacity="0.49">
<path d="M345.403 490.178C337.313 478.995 319.583 493.745 325.86 507.177C332.138 520.61 353.493 501.361 345.403 490.178Z" fill="#270040"/>
</g>
</g>
<g style="mix-blend-mode:multiply">
<g style="mix-blend-mode:multiply">
<path d="M341.663 493.624C338.026 488.632 332.44 488.848 327.981 491.816C332.554 485.972 340.65 483.597 345.402 490.178C350.155 496.76 345.354 504.954 339.388 509.205C343.176 504.653 345.094 498.421 341.663 493.624Z" fill="#270040"/>
</g>
</g>
<g style="mix-blend-mode:multiply" opacity="0.33">
<path d="M474.195 476.659C465.216 451.271 422.269 468.017 426.527 496.646C430.785 525.275 483.174 502.046 474.195 476.659Z" fill="#632C53"/>
</g>
<path d="M478.274 471.861C469.321 446.446 426.348 463.219 430.632 491.821C434.916 520.423 487.253 497.249 478.274 471.861Z" fill="#2AAC83"/>
<g style="mix-blend-mode:multiply" opacity="0.49">
<g style="mix-blend-mode:multiply" opacity="0.49">
<path d="M466.53 476.879C462.004 464.019 440.156 472.637 442.412 486.995C444.668 501.352 471.113 489.74 466.53 476.879Z" fill="#270040"/>
</g>
</g>
<g style="mix-blend-mode:multiply">
<g style="mix-blend-mode:multiply">
<path d="M461.888 479.043C459.842 473.265 454.328 471.822 449.089 473.26C455.287 469.176 463.974 469.409 466.532 476.88C469.09 484.351 462.134 490.695 455.027 492.915C460.087 489.787 463.834 484.515 461.888 479.043Z" fill="#270040"/>
</g>
</g>
<g style="mix-blend-mode:multiply" opacity="0.33">
<path d="M425.817 445.587C416.867 420.228 373.92 436.973 378.149 465.575C382.378 494.176 434.715 471.002 425.817 445.587Z" fill="#632C53"/>
</g>
<path d="M427.008 441.172C418.029 415.785 375.082 432.53 379.34 461.16C383.598 489.789 435.987 466.56 427.008 441.172Z" fill="#2AAC83"/>
<g style="mix-blend-mode:multiply" opacity="0.49">
<g style="mix-blend-mode:multiply" opacity="0.49">
<path d="M415.4 446.11C410.847 433.277 388.997 441.84 391.227 456.225C393.457 470.61 419.822 459.08 415.4 446.11Z" fill="#270040"/>
</g>
</g>
<g style="mix-blend-mode:multiply">
<g style="mix-blend-mode:multiply">
<path d="M410.594 448.383C408.548 442.605 403.034 441.162 397.795 442.599C403.993 438.516 412.68 438.748 415.294 446.22C417.907 453.691 410.84 460.035 403.759 462.227C408.819 459.1 412.423 453.743 410.594 448.383Z" fill="#270040"/>
</g>
</g>
<g style="mix-blend-mode:multiply" opacity="0.33">
<path d="M539.773 467.075C542.23 441.036 495.062 437.62 486.718 464.425C478.374 491.23 537.316 493.114 539.773 467.075Z" fill="#632C53"/>
</g>
<path d="M544.299 463.804C546.756 437.765 499.588 434.349 491.241 461.099C482.894 487.849 541.871 489.871 544.299 463.804Z" fill="#2AAC83"/>
<g style="mix-blend-mode:multiply" opacity="0.49">
<g style="mix-blend-mode:multiply" opacity="0.49">
<path d="M531.185 463.22C532.492 450.118 508.498 448.253 504.397 461.933C500.296 475.613 529.94 476.432 531.185 463.22Z" fill="#270040"/>
</g>
</g>
<g style="mix-blend-mode:multiply">
<g style="mix-blend-mode:multiply">
<path d="M525.886 463.134C526.437 457.219 521.936 453.6 516.395 452.655C523.934 451.685 531.909 455.479 531.184 463.219C530.46 470.959 521.27 473.599 513.475 472.491C519.643 471.783 525.375 468.773 525.886 463.134Z" fill="#270040"/>
</g>
</g>
<g style="mix-blend-mode:multiply" opacity="0.33">
<path d="M494.939 426.607C497.396 400.568 450.081 397.012 441.881 423.902C433.68 450.791 492.481 452.645 494.939 426.607Z" fill="#632C53"/>
</g>
<path d="M498.264 424.18C500.721 398.141 453.553 394.725 445.18 421.502C436.807 448.279 495.807 450.219 498.264 424.18Z" fill="#2AAC83"/>
<g style="mix-blend-mode:multiply" opacity="0.49">
<g style="mix-blend-mode:multiply" opacity="0.49">
<path d="M485.096 423.65C486.403 410.549 462.408 408.684 458.281 422.391C454.154 436.099 483.903 436.808 485.096 423.65Z" fill="#270040"/>
</g>
</g>
<g style="mix-blend-mode:multiply">
<g style="mix-blend-mode:multiply">
<path d="M479.851 423.51C480.402 417.595 475.901 413.976 470.36 413.031C477.898 412.061 485.873 415.855 485.149 423.595C484.424 431.335 475.235 433.975 467.44 432.866C473.608 432.158 479.34 429.149 479.851 423.51Z" fill="#270040"/>
</g>
</g>
<g style="mix-blend-mode:multiply" opacity="0.33">
<path d="M609.319 468.299C612 451.588 568.485 439.772 560.556 455.818C552.626 471.863 606.666 485.039 609.319 468.299Z" fill="#632C53"/>
</g>
<path d="M611.83 465.144C614.457 448.432 570.997 436.617 563.038 452.635C555.079 468.653 609.149 481.856 611.83 465.144Z" fill="#2AAC83"/>
<g style="mix-blend-mode:multiply" opacity="0.49">
<g style="mix-blend-mode:multiply" opacity="0.49">
<path d="M598.126 457.607C601.933 454.854 583.781 449.981 577.62 452.266C571.459 454.552 594.346 460.333 598.126 457.607Z" fill="#270040"/>
</g>
</g>
<g style="mix-blend-mode:multiply">
<g style="mix-blend-mode:multiply">
<path d="M594.078 456.568C595.783 455.369 593.027 453.679 588.965 452.417C595.02 453.645 600.362 455.972 598.127 457.608C595.892 459.244 588.202 458.026 582.536 456.332C587.362 457.38 592.454 457.74 594.078 456.568Z" fill="#270040"/>
</g>
</g>
<g style="mix-blend-mode:multiply" opacity="0.33">
<path d="M673.963 488.092C680.945 472.921 641.263 450.521 629.238 463.756C617.214 476.99 667.089 503.208 673.963 488.092Z" fill="#632C53"/>
</g>
<path d="M677.266 485.747C684.192 470.576 644.536 448.149 632.512 461.383C620.487 474.618 670.261 501.001 677.266 485.747Z" fill="#2AAC83"/>
<g style="mix-blend-mode:multiply" opacity="0.49">
<g style="mix-blend-mode:multiply" opacity="0.49">
<path d="M665.768 475.081C670.192 473.441 653.707 464.242 646.946 464.75C640.186 465.258 661.318 476.748 665.768 475.081Z" fill="#270040"/>
</g>
</g>
<g style="mix-blend-mode:multiply">
<g style="mix-blend-mode:multiply">
<path d="M662.024 473.075C664.005 472.35 661.743 470.084 658.068 467.831C663.68 470.52 668.373 474.113 665.715 475.135C663.058 476.158 655.783 472.98 650.68 469.992C654.158 472.069 658.097 473.14 662.024 473.075Z" fill="#270040"/>
</g>
</g>
<g style="mix-blend-mode:multiply" opacity="0.33">
<path d="M731.935 516.334C739.297 504.931 703.311 481.243 691.302 490.355C679.293 499.466 724.574 527.738 731.935 516.334Z" fill="#632C53"/>
</g>
<path d="M735.116 514.819C742.478 503.416 706.492 479.728 694.457 488.867C682.421 498.006 727.758 526.278 735.116 514.819Z" fill="#2AAC83"/>
<g style="mix-blend-mode:multiply" opacity="0.49">
<g style="mix-blend-mode:multiply" opacity="0.49">
<path d="M724.922 504.609C729.204 503.881 714.123 494.033 707.89 493.578C701.656 493.123 720.696 505.338 724.922 504.609Z" fill="#270040"/>
</g>
</g>
<g style="mix-blend-mode:multiply">
<g style="mix-blend-mode:multiply">
<path d="M721.531 502.47C723.424 502.13 721.445 499.978 718.126 497.646C723.255 500.607 727.449 504.194 724.923 504.609C722.397 505.025 715.739 501.494 711.127 498.345C714.261 500.527 717.834 501.943 721.531 502.47V502.47Z" fill="#270040"/>
</g>
</g>
<g style="mix-blend-mode:multiply" opacity="0.33">
<path d="M748.6 283.644C744.618 272.09 710.85 282.1 711.112 295.496C711.373 308.891 752.728 295.338 748.6 283.644Z" fill="#632C53"/>
</g>
<path d="M749.321 280.772C745.311 269.191 711.572 279.229 711.833 292.624C712.095 306.019 753.358 292.327 749.321 280.772Z" fill="#2AAC83"/>
<g style="mix-blend-mode:multiply" opacity="0.49">
<g style="mix-blend-mode:multiply" opacity="0.49">
<path d="M737.423 281.558C739.012 278.31 725.128 282.697 721.544 286.449C717.96 290.201 735.778 284.805 737.423 281.558Z" fill="#270040"/>
</g>
</g>
<g style="mix-blend-mode:multiply" opacity="0.33">
<path d="M695.601 303.932C694.671 291.941 658.945 292.855 655.649 305.575C652.353 318.295 696.502 315.896 695.601 303.932Z" fill="#632C53"/>
</g>
<path d="M696.887 301.234C695.928 289.215 660.231 290.156 656.935 302.877C653.639 315.597 697.902 313.254 696.887 301.234Z" fill="#2AAC83"/>
<g style="mix-blend-mode:multiply" opacity="0.49">
<g style="mix-blend-mode:multiply" opacity="0.49">
<path d="M685.005 298.893C687.49 296.291 672.517 296.654 668.163 299.513C663.808 302.371 682.552 301.578 685.005 298.893Z" fill="#270040"/>
</g>
</g>
<g style="mix-blend-mode:multiply">
<g style="mix-blend-mode:multiply">
<path d="M681.66 299.05C682.785 297.872 680.339 297.264 676.959 297.283C681.919 296.784 686.411 297.303 685.004 298.892C681.241 300.706 677.024 301.534 672.726 301.305C675.895 301.312 678.964 300.537 681.66 299.05Z" fill="#270040"/>
</g>
</g>
<g style="mix-blend-mode:multiply" opacity="0.33">
<path d="M706.886 479.843C714.248 468.44 678.291 444.78 666.282 453.892C654.273 463.004 699.525 491.247 706.886 479.843Z" fill="#632C53"/>
</g>
<path d="M710.1 478.356C717.433 466.924 681.476 443.264 669.441 452.404C657.406 461.543 702.885 489.899 710.1 478.356Z" fill="#2AAC83"/>
<g style="mix-blend-mode:multiply" opacity="0.49">
<g style="mix-blend-mode:multiply" opacity="0.49">
<path d="M699.904 468.091C704.13 467.362 688.974 457.651 682.871 457.06C676.768 456.468 695.622 468.819 699.904 468.091Z" fill="#270040"/>
</g>
</g>
<g style="mix-blend-mode:multiply">
<g style="mix-blend-mode:multiply">
<path d="M696.482 465.923C698.404 465.612 696.396 463.432 693.051 461.127C698.209 464.116 702.374 467.675 699.903 468.091C697.433 468.507 690.693 465.003 686.08 461.854C689.218 464.017 692.79 465.415 696.482 465.923V465.923Z" fill="#270040"/>
</g>
</g>
<g style="mix-blend-mode:multiply" opacity="0.33">
<path d="M564.981 425.843C569.584 409.291 527.07 396.545 517.268 412.322C507.466 428.098 560.515 442.369 564.981 425.843Z" fill="#632C53"/>
</g>
<path d="M567.829 422.803C572.431 406.25 529.887 393.476 520.141 409.253C510.395 425.031 563.389 439.301 567.829 422.803Z" fill="#2AAC83"/>
<g style="mix-blend-mode:multiply" opacity="0.49">
<g style="mix-blend-mode:multiply" opacity="0.49">
<path d="M554.911 414.97C559.002 412.331 541.219 407.13 534.853 409.219C528.487 411.309 550.795 417.638 554.911 414.97Z" fill="#270040"/>
</g>
</g>
<g style="mix-blend-mode:multiply">
<g style="mix-blend-mode:multiply">
<path d="M550.914 413.876C552.759 412.706 550.196 410.99 546.212 409.647C552.163 410.984 557.319 413.447 554.911 414.97C552.503 416.494 544.836 415.193 539.476 413.53C544.104 414.494 549.176 414.991 550.914 413.876Z" fill="#270040"/>
</g>
</g>
<g style="mix-blend-mode:multiply" opacity="0.33">
<path d="M633.757 442.83C640.606 427.271 600.084 408.625 588.051 422.689C576.019 436.754 626.906 458.334 633.757 442.83Z" fill="#632C53"/>
</g>
<path d="M637.046 440.21C643.895 424.65 603.373 406.004 591.34 420.069C579.308 434.133 630.198 455.769 637.046 440.21Z" fill="#2AAC83"/>
<g style="mix-blend-mode:multiply" opacity="0.49">
<g style="mix-blend-mode:multiply" opacity="0.49">
<path d="M625.226 430.702C629.713 428.703 612.758 420.993 606.035 422.166C599.312 423.338 620.713 432.729 625.226 430.702Z" fill="#270040"/>
</g>
</g>
<g style="mix-blend-mode:multiply">
<g style="mix-blend-mode:multiply">
<path d="M621.419 429.056C623.447 428.164 621.112 426.091 617.348 424.224C623.095 426.362 627.874 429.513 625.226 430.702C622.578 431.89 615.206 429.459 609.963 426.911C613.57 428.693 617.547 429.438 621.419 429.056V429.056Z" fill="#270040"/>
</g>
</g>
<g style="mix-blend-mode:multiply" opacity="0.33">
<path d="M734.533 118.382C732.781 122.68 718.755 114.31 718.966 108.75C719.176 103.191 736.31 114.057 734.533 118.382Z" fill="#632C53"/>
</g>
<path d="M734 119.76C732.249 124.058 718.222 115.688 718.433 110.129C718.644 104.569 735.66 115.324 734 119.76Z" fill="#2AAC83"/>
<g style="mix-blend-mode:multiply" opacity="0.49">
<g style="mix-blend-mode:multiply" opacity="0.49">
<path d="M729.022 117.935C729.665 119.492 723.839 115.97 722.447 113.908C721.055 111.845 728.275 116.489 729.022 117.935Z" fill="#270040"/>
</g>
</g>
<g style="mix-blend-mode:multiply">
<g style="mix-blend-mode:multiply">
<path d="M727.728 117.12C728.017 117.814 726.974 117.499 725.683 116.738C727.557 118.003 729.346 118.77 729.022 117.936C727.763 116.416 726.208 115.163 724.462 114.262C725.716 115.001 726.827 115.972 727.728 117.12V117.12Z" fill="#270040"/>
</g>
</g>
<defs>
<linearGradient id="paint0_linear_400_18148" x1="227.058" y1="-10.7632" x2="571.371" y2="619.511" gradientUnits="userSpaceOnUse">
<stop stop-color="#3D0164"/>
<stop offset="1" stop-color="#310150"/>
</linearGradient>
<linearGradient id="paint1_linear_400_18148" x1="573.284" y1="725.802" x2="612.172" y2="597.456" gradientUnits="userSpaceOnUse">
<stop stop-color="white"/>
<stop offset="1" stop-color="#282828"/>
</linearGradient>
<linearGradient id="paint2_linear_400_18148" x1="87145.1" y1="117402" x2="88857.4" y2="115609" gradientUnits="userSpaceOnUse">
<stop stop-color="white"/>
<stop offset="1" stop-color="#1C1B1B"/>
</linearGradient>
<linearGradient id="paint3_linear_400_18148" x1="40268.2" y1="138691" x2="53050.1" y2="125309" gradientUnits="userSpaceOnUse">
<stop stop-color="white"/>
<stop offset="1" stop-color="#290142"/>
</linearGradient>
<linearGradient id="paint4_linear_400_18148" x1="433.825" y1="525.832" x2="757.556" y2="604.242" gradientUnits="userSpaceOnUse">
<stop stop-color="#303030"/>
<stop offset="0.75" stop-color="#2E121B"/>
<stop offset="0.91" stop-color="#0D0508"/>
<stop offset="1"/>
</linearGradient>
<linearGradient id="paint5_linear_400_18148" x1="15325.6" y1="52393.6" x2="17395.9" y2="54371.1" gradientUnits="userSpaceOnUse">
<stop stop-color="#383838"/>
<stop offset="0.75" stop-color="#2E121B"/>
<stop offset="0.91" stop-color="#0D0508"/>
<stop offset="1"/>
</linearGradient>
<linearGradient id="paint6_linear_400_18148" x1="44825.2" y1="58928.5" x2="48889.8" y2="62810.7" gradientUnits="userSpaceOnUse">
<stop stop-color="#383838"/>
<stop offset="0.75" stop-color="#2E121B"/>
<stop offset="0.91" stop-color="#0D0508"/>
<stop offset="1"/>
</linearGradient>
<linearGradient id="paint7_linear_400_18148" x1="118285" y1="173998" x2="134770" y2="189744" gradientUnits="userSpaceOnUse">
<stop stop-color="#404040"/>
<stop offset="0.75" stop-color="#2E121B"/>
<stop offset="0.91" stop-color="#0D0508"/>
<stop offset="1"/>
</linearGradient>
<linearGradient id="paint8_linear_400_18148" x1="682.3" y1="722.536" x2="258.706" y2="36.5446" gradientUnits="userSpaceOnUse">
<stop/>
<stop offset="1" stop-color="#383838"/>
</linearGradient>
<linearGradient id="paint9_linear_400_18148" x1="28343.5" y1="98698.5" x2="49754.1" y2="109090" gradientUnits="userSpaceOnUse">
<stop stop-color="#320150"/>
<stop offset="1" stop-color="#3E0065"/>
</linearGradient>
<linearGradient id="paint10_linear_400_18148" x1="424.091" y1="1044.85" x2="693.518" y2="155.622" gradientUnits="userSpaceOnUse">
<stop stop-color="#5D009B"/>
<stop offset="1" stop-color="#30004F"/>
</linearGradient>
<linearGradient id="paint11_linear_400_18148" x1="50007.8" y1="135701" x2="99416.4" y2="83972.1" gradientUnits="userSpaceOnUse">
<stop stop-color="#1F0138"/>
<stop offset="1" stop-color="#420179"/>
</linearGradient>
</defs>
</svg>
