<svg width="392" height="95" viewBox="0 0 392 95" fill="none" xmlns="http://www.w3.org/2000/svg">
<path d="M167.652 25.5758C168.879 26.8116 168.879 28.8153 167.652 30.0511L153.331 44.469L167.652 58.8869C168.879 60.1227 168.879 62.1264 167.652 63.3622C166.424 64.5981 164.434 64.5981 163.207 63.3622L146.664 46.7067C145.436 45.4709 145.436 43.4672 146.664 42.2313L163.207 25.5758C164.434 24.34 166.424 24.34 167.652 25.5758Z" fill="#2CF2B3"/>
<path d="M164.861 35.9517C163.633 37.1875 163.633 39.1912 164.861 40.4271L179.181 54.8449L164.861 69.2628C163.633 70.4986 163.633 72.5023 164.861 73.7382C166.088 74.974 168.078 74.974 169.306 73.7382L185.849 57.0826C187.076 55.8468 187.076 53.8431 185.849 52.6073L169.306 35.9517C168.078 34.7159 166.088 34.7159 164.861 35.9517Z" fill="#2CF2B3"/>
<path fill-rule="evenodd" clip-rule="evenodd" d="M121.65 41.6114C118.419 44.8636 118.419 50.1364 121.65 53.3886L160.556 92.5609C163.787 95.813 169.024 95.8131 172.254 92.5609L211.161 53.3886C214.391 50.1364 214.391 44.8636 211.161 41.6114L172.254 2.43915C169.024 -0.813046 163.787 -0.813052 160.556 2.43914L121.65 41.6114ZM165.235 7.15004L126.329 46.3223C125.683 46.9727 125.683 48.0273 126.329 48.6777L165.235 87.85C165.882 88.5004 166.929 88.5004 167.575 87.85L206.482 48.6777C207.128 48.0273 207.128 46.9727 206.482 46.3223L167.575 7.15005C166.929 6.4996 165.882 6.49961 165.235 7.15004Z" fill="#2CF2B3"/>
<path d="M0 42.0231C0 41.1003 0.309638 40.3272 0.928914 39.7037C1.57296 39.0552 2.35325 38.731 3.26978 38.731C4.16153 38.731 4.92944 39.0552 5.57348 39.7037C6.21753 40.3272 6.53955 41.1003 6.53955 42.0231V57.8849C6.56432 59.3813 6.84919 60.7904 7.39415 62.1122C7.96389 63.4091 8.7194 64.5439 9.6607 65.5165C10.6268 66.4892 11.7539 67.2623 13.0419 67.8359C14.33 68.3846 15.7296 68.659 17.2406 68.659C18.7517 68.659 20.1141 68.3721 21.3279 67.7985C22.5664 67.2249 23.6192 66.4393 24.4862 65.4417C25.3532 64.4441 26.022 63.2844 26.4926 61.9626C26.988 60.6158 27.2358 59.1818 27.2358 57.6604V42.0231C27.2358 41.5742 27.3224 41.1502 27.4958 40.7512C27.694 40.3521 27.9417 40.003 28.239 39.7037C28.5362 39.4044 28.883 39.1675 29.2794 38.9929C29.7005 38.8183 30.134 38.731 30.5798 38.731C31.5211 38.731 32.289 39.0552 32.8835 39.7037C33.5028 40.3272 33.8125 41.1003 33.8125 42.0231V57.6978C33.8125 60.117 33.3914 62.399 32.5491 64.5439C31.7317 66.6638 30.5922 68.5218 29.1307 70.1179C27.6692 71.7141 25.9229 72.9736 23.8917 73.8963C21.8604 74.8191 19.6434 75.2805 17.2406 75.2805C14.8131 75.2805 12.5465 74.8191 10.441 73.8963C8.36022 72.9736 6.53955 71.7141 4.97898 70.1179C3.44317 68.5218 2.22939 66.6638 1.33764 64.5439C0.445879 62.399 0 60.117 0 57.6978V42.0231Z" fill="#2CF2B3"/>
<path fill-rule="evenodd" clip-rule="evenodd" d="M38.7543 57.0245C38.7543 54.5055 39.2249 52.1362 40.1662 49.9166C41.1323 47.6969 42.4328 45.7641 44.0677 44.118C45.7273 42.4471 47.6471 41.1377 49.8269 40.19C52.0316 39.2174 54.3848 38.731 56.8867 38.731C58.3729 38.731 59.7106 38.8807 60.8996 39.1799C62.0886 39.4792 63.1414 39.9157 64.0579 40.4893C64.9992 41.0629 65.829 41.7612 66.5474 42.5842C67.2657 43.4073 67.8974 44.3425 68.4424 45.39V29.0044C68.4424 28.0318 68.752 27.2212 69.3713 26.5728C69.9906 25.8994 70.7708 25.5627 71.7121 25.5627C72.6534 25.5627 73.4337 25.8994 74.053 26.5728C74.6971 27.2212 75.0191 28.0318 75.0191 29.0044V57.2489C74.9943 59.7429 74.4989 62.0873 73.5328 64.282C72.5915 66.4518 71.3034 68.3597 69.6685 70.0057C68.0336 71.6268 66.1139 72.9112 63.9093 73.8589C61.7294 74.8067 59.3886 75.2805 56.8867 75.2805C54.3848 75.2805 52.0316 74.8067 49.8269 73.8589C47.6471 72.8863 45.7273 71.5769 44.0677 69.9309C42.4328 68.2849 41.1323 66.352 40.1662 64.1324C39.2249 61.9127 38.7543 59.5434 38.7543 57.0245ZM45.331 57.0245C45.331 58.6206 45.6282 60.1295 46.2227 61.5511C46.842 62.9477 47.6719 64.1822 48.7122 65.2547C49.7526 66.3021 50.9664 67.1376 52.3536 67.7611C53.7655 68.3597 55.2766 68.659 56.8867 68.659C58.5216 68.659 60.0326 68.3597 61.4198 67.7611C62.8317 67.1376 64.0579 66.3021 65.0983 65.2547C66.1387 64.1822 66.9561 62.9477 67.5506 61.5511C68.1451 60.1295 68.4424 58.6206 68.4424 57.0245C68.4424 55.4283 68.1451 53.9319 67.5506 52.5353C66.9561 51.1137 66.1387 49.8792 65.0983 48.8317C64.0579 47.7842 62.8317 46.9612 61.4198 46.3626C60.0326 45.7391 58.5216 45.4274 56.8867 45.4274C55.2766 45.4274 53.7655 45.7391 52.3536 46.3626C50.9664 46.9612 49.7526 47.7842 48.7122 48.8317C47.6719 49.8792 46.842 51.1137 46.2227 52.5353C45.6282 53.9319 45.331 55.4283 45.331 57.0245Z" fill="#2CF2B3"/>
<path d="M80.2581 43.4821C80.06 43.0581 79.9609 42.5842 79.9609 42.0605C79.9609 41.6365 80.0352 41.225 80.1838 40.826C80.3572 40.4269 80.5802 40.0778 80.8527 39.7785C81.1499 39.4792 81.4967 39.2423 81.893 39.0677C82.2894 38.8682 82.7353 38.7684 83.2307 38.7684C83.8747 38.7684 84.4568 38.943 84.977 39.2922C85.522 39.6413 85.9307 40.1401 86.2032 40.7886L95.641 63.7957L105.004 40.7886C105.277 40.1651 105.686 39.6787 106.231 39.3296C106.8 38.9804 107.395 38.8058 108.014 38.8058C108.46 38.8058 108.881 38.9056 109.277 39.1051C109.674 39.2797 110.021 39.5166 110.318 39.8159C110.615 40.1152 110.85 40.4643 111.024 40.8634C111.197 41.2624 111.284 41.6739 111.284 42.0979C111.309 42.3473 111.284 42.5842 111.21 42.8087C111.16 43.0332 111.086 43.2576 110.987 43.4821L98.6506 72.9985C98.3534 73.5971 97.9571 74.0834 97.4616 74.4575C96.9662 74.8316 96.3841 75.0186 95.7153 75.0186C94.8731 75.0186 94.1919 74.8191 93.6717 74.4201C93.1762 74.021 92.8171 73.5472 92.5941 72.9985L80.2581 43.4821Z" fill="#2CF2B3"/>
<path d="M241.627 59.7928C242.197 59.8177 242.755 59.9175 243.299 60.0921C243.844 60.2667 244.327 60.5161 244.749 60.8403C245.194 61.1645 245.541 61.576 245.789 62.0748C246.061 62.5736 246.198 63.1722 246.198 63.8705C246.198 64.5938 246.061 65.2297 245.789 65.7784C245.516 66.3021 245.157 66.7511 244.711 67.1252C244.266 67.4993 243.77 67.7861 243.225 67.9856C242.68 68.1602 242.135 68.2474 241.59 68.2474H226.728C225.861 68.2474 225.142 68.5343 224.573 69.1079C224.003 69.6815 223.718 70.4671 223.718 71.4647C223.718 72.4623 224.003 73.2729 224.573 73.8963C225.142 74.5198 225.861 74.8316 226.728 74.8316H242.148C243.659 74.8316 245.058 74.5448 246.346 73.9712C247.659 73.3975 248.786 72.6244 249.728 71.6517C250.669 70.6542 251.4 69.5069 251.92 68.21C252.465 66.8882 252.737 65.4916 252.737 64.0201C252.737 62.5736 252.465 61.1894 251.92 59.8676C251.4 58.5458 250.669 57.3861 249.728 56.3885C248.811 55.3909 247.709 54.6053 246.421 54.0317C245.133 53.4331 243.733 53.1338 242.222 53.1338H234.753C234.233 53.1338 233.738 53.0341 233.267 52.8346C232.821 52.635 232.413 52.3732 232.041 52.049C231.694 51.6998 231.422 51.2883 231.224 50.8144C231.025 50.3406 230.926 49.8168 230.926 49.2432C230.926 48.7195 231.025 48.2331 231.224 47.7842C231.422 47.3104 231.694 46.8988 232.041 46.5497C232.388 46.1756 232.784 45.8888 233.23 45.6893C233.701 45.4648 234.209 45.3526 234.753 45.3526H247.795C248.217 45.3526 248.613 45.2653 248.984 45.0907C249.356 44.9161 249.678 44.6792 249.951 44.3799C250.248 44.0557 250.471 43.6941 250.619 43.295C250.793 42.8711 250.879 42.4221 250.879 41.9483C250.879 40.9008 250.557 40.1027 249.913 39.554C249.269 39.0054 248.501 38.731 247.61 38.731H234.716C233.28 38.731 231.93 39.0054 230.666 39.554C229.403 40.0778 228.301 40.8135 227.359 41.7612C226.443 42.684 225.712 43.7689 225.167 45.0159C224.622 46.2629 224.35 47.5972 224.35 49.0187C224.35 50.4653 224.61 51.837 225.13 53.1338C225.65 54.4307 226.368 55.578 227.285 56.5756C228.226 57.5482 229.329 58.3338 230.592 58.9324C231.855 59.506 233.23 59.7928 234.716 59.7928H241.627Z" fill="#2CF2B3"/>
<path d="M258.088 29.9771C257.914 30.3761 257.828 30.8001 257.828 31.249V57.2489C257.828 59.7928 258.298 62.1621 259.24 64.3568C260.206 66.5515 261.506 68.4594 263.141 70.0805C264.801 71.7016 266.733 72.9736 268.938 73.8963C271.142 74.8191 273.508 75.2805 276.034 75.2805C278.338 75.2805 280.468 74.9064 282.425 74.1582C284.407 73.41 286.178 72.2877 287.739 70.7913C288.11 70.4172 288.395 69.9808 288.593 69.482C288.816 68.9582 288.928 68.447 288.928 67.9482C288.928 67.4993 288.841 67.0877 288.668 66.7136C288.519 66.3395 288.296 66.0153 287.999 65.741C287.726 65.4666 287.404 65.2547 287.033 65.105C286.686 64.9554 286.327 64.8806 285.955 64.8806C285.088 64.8806 284.258 65.2547 283.466 66.0029C282.425 66.9755 281.273 67.6738 280.01 68.0978C278.772 68.4968 277.446 68.6964 276.034 68.6964C274.424 68.6964 272.913 68.4096 271.501 67.8359C270.114 67.2374 268.9 66.4268 267.86 65.4043C266.844 64.3818 266.039 63.1846 265.445 61.8129C264.85 60.4163 264.553 58.9199 264.553 57.3238V45.1281H279.304C280.245 45.1281 281.026 44.8288 281.645 44.2303C282.289 43.6068 282.611 42.8461 282.611 41.9483C282.611 41.0255 282.289 40.2399 281.645 39.5914C281.001 38.9181 280.221 38.5814 279.304 38.5814H264.553V31.249C264.553 30.7752 264.454 30.3387 264.256 29.9397C264.082 29.5157 263.835 29.1541 263.513 28.8548C263.215 28.5555 262.856 28.3186 262.435 28.144C262.014 27.9694 261.581 27.8821 261.135 27.8821C260.689 27.8821 260.268 27.9694 259.871 28.144C259.475 28.3186 259.116 28.568 258.794 28.8922C258.496 29.1915 258.261 29.5531 258.088 29.9771Z" fill="#2CF2B3"/>
<path fill-rule="evenodd" clip-rule="evenodd" d="M292.569 49.9166C291.628 52.1362 291.157 54.5055 291.157 57.0245C291.157 59.5434 291.628 61.9127 292.569 64.1324C293.535 66.352 294.836 68.2849 296.47 69.9309C298.13 71.5769 300.05 72.8863 302.23 73.8589C304.434 74.8067 306.788 75.2805 309.29 75.2805C311.816 75.2805 314.182 74.8067 316.386 73.8589C318.591 72.8863 320.511 71.5769 322.146 69.9309C323.781 68.2849 325.069 66.352 326.01 64.1324C326.951 61.9127 327.422 59.5434 327.422 57.0245C327.422 54.5055 326.951 52.1362 326.01 49.9166C325.069 47.6969 323.781 45.7641 322.146 44.118C320.511 42.4471 318.591 41.1377 316.386 40.19C314.182 39.2174 311.816 38.731 309.29 38.731C306.788 38.731 304.434 39.2174 302.23 40.19C300.05 41.1377 298.13 42.4471 296.47 44.118C294.836 45.7641 293.535 47.6969 292.569 49.9166ZM298.626 61.5511C298.031 60.1295 297.734 58.6206 297.734 57.0245C297.734 55.4283 298.031 53.9319 298.626 52.5353C299.245 51.1137 300.075 49.8792 301.115 48.8317C302.155 47.7842 303.369 46.9612 304.756 46.3626C306.168 45.7391 307.679 45.4274 309.29 45.4274C310.924 45.4274 312.435 45.7391 313.823 46.3626C315.235 46.9612 316.461 47.7842 317.501 48.8317C318.541 49.8792 319.359 51.1137 319.953 52.5353C320.548 53.9319 320.845 55.4283 320.845 57.0245C320.845 58.6206 320.548 60.1295 319.953 61.5511C319.359 62.9477 318.541 64.1822 317.501 65.2547C316.461 66.3021 315.235 67.1376 313.823 67.7611C312.435 68.3597 310.924 68.659 309.29 68.659C307.679 68.659 306.168 68.3597 304.756 67.7611C303.369 67.1376 302.155 66.3021 301.115 65.2547C300.075 64.1822 299.245 62.9477 298.626 61.5511Z" fill="#2CF2B3"/>
<path d="M337.9 44.3799C336.191 46.1008 334.841 48.1209 333.85 50.4403C332.859 52.7597 332.364 55.2288 332.364 57.8475V71.5395C332.364 72.0134 332.45 72.4498 332.624 72.8489C332.822 73.2479 333.07 73.5971 333.367 73.8963C333.689 74.1956 334.048 74.4326 334.444 74.6071C334.866 74.7568 335.299 74.8316 335.745 74.8316C336.637 74.8316 337.38 74.5198 337.974 73.8963C338.594 73.2729 338.903 72.4872 338.903 71.5395V57.8475C338.903 56.1266 339.225 54.5055 339.869 52.9842C340.538 51.4629 341.43 50.141 342.545 49.0187C343.684 47.8715 344.997 46.9737 346.483 46.3252C347.969 45.6519 349.555 45.3152 351.239 45.3152H351.425C352.366 45.3152 353.171 45.0034 353.84 44.3799C354.509 43.7564 354.843 42.9708 354.843 42.0231C354.843 41.0754 354.546 40.2898 353.952 39.6663C353.382 39.0428 352.54 38.731 351.425 38.731H351.239C348.638 38.731 346.186 39.2423 343.882 40.2648C341.603 41.2624 339.609 42.6341 337.9 44.3799Z" fill="#2CF2B3"/>
<path fill-rule="evenodd" clip-rule="evenodd" d="M364.281 63.5712C363.612 62.4738 363.142 61.2892 362.869 60.0173H388.805C389.746 60.0173 390.514 59.718 391.108 59.1194C391.703 58.5209 392 57.7727 392 56.8748C391.975 54.3808 391.48 52.0365 390.514 49.8418C389.548 47.6221 388.235 45.6893 386.575 44.0432C384.94 42.3972 383.021 41.1003 380.816 40.1526C378.611 39.2049 376.27 38.731 373.793 38.731C371.291 38.731 368.926 39.2174 366.696 40.19C364.492 41.1377 362.56 42.4346 360.9 44.0806C359.265 45.7267 357.965 47.6595 356.999 49.8792C356.057 52.0988 355.587 54.4806 355.587 57.0245C355.587 59.5434 356.057 61.9127 356.999 64.1324C357.965 66.352 359.265 68.2849 360.9 69.9309C362.56 71.5769 364.492 72.8863 366.696 73.8589C368.926 74.8067 371.291 75.2805 373.793 75.2805C375.23 75.2805 376.605 75.1683 377.918 74.9438C379.255 74.7194 380.42 74.3951 381.41 73.9712C382.426 73.5472 383.231 73.0359 383.826 72.4374C384.42 71.8139 384.717 71.1031 384.717 70.305C384.717 69.8561 384.631 69.4196 384.457 68.9956C384.284 68.5717 384.048 68.21 383.751 67.9108C383.454 67.5865 383.107 67.3371 382.711 67.1626C382.339 66.963 381.931 66.8633 381.485 66.8633C380.865 66.8633 380.209 67.0628 379.515 67.4618C378.673 67.9606 377.831 68.3347 376.989 68.5841C376.147 68.8086 375.081 68.9208 373.793 68.9208C372.456 68.9208 371.18 68.6964 369.966 68.2474C368.777 67.7985 367.7 67.175 366.734 66.377C365.767 65.5789 364.95 64.6436 364.281 63.5712ZM381.373 47.7468C382.389 48.5948 383.231 49.5924 383.9 50.7396C384.593 51.8868 385.052 53.1338 385.275 54.4806H362.683C362.906 53.1837 363.34 51.9617 363.984 50.8144C364.628 49.6672 365.445 48.6696 366.436 47.8216C367.427 46.9487 368.554 46.2754 369.818 45.8015C371.081 45.3027 372.443 45.0533 373.905 45.0533C375.341 45.0533 376.691 45.2902 377.955 45.7641C379.243 46.2379 380.382 46.8988 381.373 47.7468Z" fill="#2CF2B3"/>
</svg>
