<svg width="36" height="38" viewBox="0 0 36 38" fill="none" xmlns="http://www.w3.org/2000/svg">
<path d="M7.80706 30.0485C6.84014 30.8875 5.83181 31.4863 5.44149 32.7908C4.91589 34.5569 5.75271 36.61 7.36352 37.5082C8.12568 37.9344 9.01498 38.0589 9.87694 37.9655C10.8468 37.861 11.6992 37.2325 12.4643 36.6759C14.0219 35.5419 15.2276 34.0255 16.3726 32.4943C16.8162 31.9014 17.3765 31.301 17.7129 30.6414H17.8607C18.2363 31.3825 18.8698 32.0496 19.3666 32.7166C20.5013 34.2331 21.724 35.6576 23.2572 36.7841C24.3564 37.592 25.5488 38.1923 26.9534 37.944C29.421 37.5068 30.9453 34.7511 30.002 32.4202C29.6161 31.4656 28.7512 30.651 27.8405 30.1967C28.3025 30.1226 28.8577 30.316 29.319 30.4042C30.155 30.5643 31.1301 30.7244 31.9802 30.6199C32.6455 30.5384 33.2724 30.3397 33.8283 29.958C35.9492 28.5009 36.1872 25.348 34.2719 23.613C32.7372 22.2226 30.6562 22.7503 28.8015 22.2544C27.8671 22.0047 26.5771 21.4651 26.3273 20.4134C26.0707 19.3343 27.0665 18.3003 27.5736 17.4487C28.3922 16.061 28.9284 14.5244 29.1511 12.9277C29.8165 8.30062 27.3304 3.57498 23.2572 1.35817C21.0809 0.17232 18.4521 -0.24273 16.0126 0.136744C11.3798 0.857892 7.52763 4.44881 6.57105 9.07365C6.2177 10.7828 6.27536 12.4904 6.65533 14.1876C6.94289 15.4661 7.52246 16.7209 8.22769 17.8193C8.70376 18.5605 9.47183 19.4632 9.24637 20.4134C9.01572 21.3828 7.86546 21.935 6.9939 22.1803C5.06226 22.7251 2.79501 22.1885 1.22782 23.6812C-0.853138 25.6638 -0.176733 29.1598 2.41061 30.3212C3.20603 30.6784 4.00885 30.6355 4.8501 30.5739C5.82368 30.5028 6.88745 30.3968 7.80706 30.0485Z" fill="#F7F7F7"/>
<path d="M26.5833 32.2084L24.6613 30.7632C23.8873 30.1777 23.3758 29.3357 23.7291 28.3455C24.0477 27.4509 24.9363 26.9699 25.8441 27.0114C26.4525 27.0403 27.0394 27.3746 27.6183 27.548C28.5633 27.8197 29.5269 28.0213 30.5013 28.1513C31.4158 28.2825 32.4751 28.3159 32.9837 27.379C33.4398 26.5393 33.0347 25.4053 32.1276 25.0896C31.3729 24.8265 30.4074 24.9414 29.6142 24.8472C27.412 24.5827 24.7663 23.5554 24.0529 21.2274C23.4615 19.2915 24.56 17.8374 25.4848 16.2617C25.9799 15.4301 26.3534 14.5315 26.5937 13.5935C27.8504 8.54099 24.3612 3.37733 19.2678 2.51907C18.482 2.38714 17.6223 2.31969 16.8283 2.43309C15.6788 2.59837 14.5256 2.89854 13.5017 3.46256C11.634 4.48964 10.1819 6.13741 9.39522 8.12221C8.6086 10.107 8.53672 12.3047 9.19197 14.3369C9.94895 16.6774 12.4742 18.7015 11.4681 21.3779C11.3324 21.7474 11.1469 22.0965 10.9166 22.4155C9.65991 24.1254 7.4311 24.6775 5.44106 24.914C4.74248 24.997 3.85982 24.8398 3.22334 25.1882C2.01394 25.8493 2.20467 27.7393 3.51903 28.1528C4.02024 28.3099 4.63455 28.218 5.14536 28.1454C6.27547 27.9958 7.38917 27.7408 8.47195 27.3835C9.67395 26.9736 10.9307 26.7394 11.7076 28.0505C12.1807 28.848 11.9442 29.8723 11.2781 30.4741C10.5743 31.1093 9.7464 31.6407 8.98646 32.2099C8.60871 32.4938 8.16442 32.7688 7.89682 33.1675C7.26107 34.114 8.12302 35.5392 9.20823 35.6022C9.94747 35.6437 10.6542 35.0234 11.2042 34.5987C12.8394 33.3343 13.997 31.614 15.2234 29.9776C15.834 29.1623 16.7019 27.9942 17.8573 28.0661C18.9292 28.1328 19.6914 29.1171 20.2872 29.9034C21.4597 31.4517 22.5434 33.129 24.067 34.3645C24.7212 34.8952 25.6608 35.7823 26.5804 35.5711C27.5902 35.3384 28.2851 33.9776 27.6198 33.0971C27.3499 32.7347 26.9404 32.4767 26.5833 32.2084Z" fill="#1C1B1B"/>
<path d="M13.5721 11.2634C11.6028 11.7185 12.3295 14.821 14.3114 14.3333C16.2585 13.8523 15.5215 10.812 13.5721 11.2634ZM21.2602 11.2634C19.2894 11.7199 20.0168 14.821 21.9995 14.3607C23.9821 13.9004 23.2355 10.8053 21.2602 11.2634Z" fill="#F7F7F7"/>
</svg>
