<svg width="36" height="38" viewBox="0 0 36 38" fill="none" xmlns="http://www.w3.org/2000/svg">
<path d="M7.80706 30.0485C6.84014 30.8875 5.83181 31.4863 5.44149 32.7908C4.91589 34.5569 5.75271 36.61 7.36352 37.5082C8.12568 37.9344 9.01498 38.0589 9.87694 37.9655C10.8468 37.861 11.6992 37.2325 12.4643 36.6759C14.0219 35.5419 15.2276 34.0255 16.3726 32.4943C16.8162 31.9014 17.3765 31.301 17.7129 30.6414H17.8607C18.2363 31.3825 18.8698 32.0496 19.3666 32.7166C20.5013 34.2331 21.724 35.6576 23.2572 36.7841C24.3564 37.592 25.5488 38.1923 26.9534 37.944C29.421 37.5068 30.9453 34.7511 30.002 32.4202C29.6161 31.4656 28.7512 30.651 27.8405 30.1967C28.3025 30.1226 28.8577 30.316 29.319 30.4042C30.155 30.5643 31.1301 30.7244 31.9802 30.6199C32.6455 30.5384 33.2724 30.3397 33.8283 29.958C35.9492 28.5009 36.1872 25.348 34.2719 23.613C32.7372 22.2226 30.6562 22.7503 28.8015 22.2544C27.8671 22.0047 26.5771 21.4651 26.3273 20.4134C26.0707 19.3343 27.0665 18.3003 27.5736 17.4487C28.3922 16.061 28.9284 14.5244 29.1511 12.9277C29.8165 8.30062 27.3304 3.57498 23.2572 1.35817C21.0809 0.17232 18.4521 -0.24273 16.0126 0.136744C11.3798 0.857892 7.52763 4.44881 6.57105 9.07365C6.2177 10.7828 6.27536 12.4904 6.65533 14.1876C6.94289 15.4661 7.52246 16.7209 8.22769 17.8193C8.70376 18.5605 9.47183 19.4632 9.24637 20.4134C9.01572 21.3828 7.86546 21.935 6.9939 22.1803C5.06226 22.7251 2.79501 22.1885 1.22782 23.6812C-0.853138 25.6638 -0.176733 29.1598 2.41061 30.3212C3.20603 30.6784 4.00885 30.6355 4.8501 30.5739C5.82368 30.5028 6.88745 30.3968 7.80706 30.0485Z" fill="#2CF2B3"/>
<path d="M26.5838 32.2084L24.6618 30.7632C23.8878 30.1777 23.3763 29.3357 23.7296 28.3455C24.0482 27.4509 24.9368 26.9699 25.8446 27.0114C26.453 27.0403 27.0399 27.3746 27.6188 27.548C28.5637 27.8197 29.5273 28.0213 30.5018 28.1513C31.4162 28.2825 32.4756 28.3159 32.9842 27.379C33.4403 26.5393 33.0352 25.4053 32.1281 25.0896C31.3734 24.8265 30.4079 24.9414 29.6147 24.8472C27.4125 24.5827 24.7668 23.5554 24.0534 21.2274C23.462 19.2915 24.5605 17.8374 25.4853 16.2617C25.9804 15.4301 26.3539 14.5315 26.5942 13.5935C27.8509 8.54099 24.3617 3.37733 19.2683 2.51907C18.4825 2.38714 17.6228 2.31969 16.8288 2.43309C15.6793 2.59837 14.5261 2.89854 13.5022 3.46256C11.6345 4.48964 10.1823 6.13741 9.39571 8.12221C8.60908 10.107 8.53721 12.3047 9.19245 14.3369C9.94944 16.6774 12.4747 18.7015 11.4686 21.3779C11.3329 21.7474 11.1473 22.0965 10.9171 22.4155C9.66039 24.1254 7.43158 24.6775 5.44155 24.914C4.74297 24.997 3.86031 24.8398 3.22383 25.1882C2.01443 25.8493 2.20515 27.7393 3.51952 28.1528C4.02073 28.3099 4.63504 28.218 5.14585 28.1454C6.27596 27.9958 7.38966 27.7408 8.47244 27.3835C9.67444 26.9736 10.9311 26.7394 11.7081 28.0505C12.1812 28.848 11.9446 29.8723 11.2786 30.4741C10.5748 31.1093 9.74689 31.6407 8.98695 32.2099C8.60919 32.4938 8.16491 32.7688 7.89731 33.1675C7.26156 34.114 8.12351 35.5392 9.20872 35.6022C9.94796 35.6437 10.6547 35.0234 11.2047 34.5987C12.8399 33.3343 13.9975 31.614 15.2239 29.9776C15.8345 29.1623 16.7024 27.9942 17.8578 28.0661C18.9297 28.1328 19.6919 29.1171 20.2877 29.9034C21.4601 31.4517 22.5439 33.129 24.0675 34.3645C24.7217 34.8952 25.6613 35.7823 26.5809 35.5711C27.5907 35.3384 28.2856 33.9776 27.6202 33.0971C27.3504 32.7347 26.9409 32.4767 26.5838 32.2084Z" fill="#1C1B1B"/>
<path d="M13.5731 11.2634C11.6038 11.7185 12.3305 14.821 14.3124 14.3333C16.2595 13.8523 15.5225 10.812 13.5731 11.2634ZM21.2612 11.2634C19.2904 11.7199 20.0178 14.821 22.0005 14.3607C23.9831 13.9004 23.2365 10.8053 21.2612 11.2634Z" fill="#2CF2B3"/>
</svg>
