<svg width="379" height="376" viewBox="0 0 379 376" fill="none" xmlns="http://www.w3.org/2000/svg">
<g style="mix-blend-mode:multiply">
<path d="M300.091 279.285L217.9 375.634L0 329.297L61.0453 303.576L208.009 356.33L300.091 279.285Z" fill="#EDECEB"/>
</g>
<path d="M300.091 279.287L283.774 164.587L145.715 157.196L175.046 356.872L209.46 364.793L300.091 279.287Z" fill="#38015A"/>
<path d="M42.832 220.01L67.0702 332.031L175.046 356.872L145.714 157.196L42.832 220.01Z" fill="#290142"/>
<path d="M283.773 164.588L190.972 235.82L209.46 364.793L300.091 279.287L283.773 164.588Z" fill="#6C00AC"/>
<path d="M42.832 220.011L67.0702 332.031L209.46 364.794L190.972 235.82L42.832 220.011Z" fill="#4F007D"/>
<path d="M200.692 303.577L201.54 309.486L291.164 216.493L290.317 210.574L200.692 303.577Z" fill="#4F007D"/>
<path d="M202.566 316.673L203.414 322.582L293.028 229.6L292.181 223.681L202.566 316.673Z" fill="#4F007D"/>
<path d="M294.044 236.795L204.44 329.766L205.288 335.675L294.891 242.714L294.044 236.795Z" fill="#4F007D"/>
<path d="M300.091 279.287L299.647 276.132L261.537 315.671L300.091 279.287Z" fill="#4F007D"/>
<path d="M198.808 290.481L199.655 296.39L289.29 203.387L288.454 197.468L198.808 290.481Z" fill="#4F007D"/>
<path d="M193.175 251.183L194.022 257.092L281.497 166.345L256.359 185.638L193.175 251.183Z" fill="#4F007D"/>
<path d="M296.755 255.821L295.908 249.901L206.314 342.862L207.162 348.77L296.755 255.821Z" fill="#4F007D"/>
<path d="M298.619 268.931L297.783 263.022L208.2 355.962L209.047 361.87L298.619 268.931Z" fill="#4F007D"/>
<path d="M191.3 238.094L192.147 243.992L225.767 209.112L200.629 228.405L191.3 238.094Z" fill="#4F007D"/>
<path d="M195.06 264.283L195.907 270.191L285.563 177.157L284.727 171.248L195.06 264.283Z" fill="#4F007D"/>
<path d="M196.934 277.378L197.781 283.287L287.427 190.274L286.59 184.354L196.934 277.378Z" fill="#4F007D"/>
<path d="M198.067 285.277L101.665 226.286L90.7373 225.121L198.935 291.334L198.067 285.277Z" fill="#340155"/>
<path d="M199.994 298.696L77.4376 223.705L66.5098 222.54L200.862 304.753L199.994 298.696Z" fill="#340155"/>
<path d="M201.91 312.113L53.2092 221.112L42.832 220.011L42.8956 220.328L202.778 318.17L201.91 312.113Z" fill="#340155"/>
<path d="M203.838 325.527L44.5801 228.066L45.9566 234.43L204.706 331.584L203.838 325.527Z" fill="#340155"/>
<path d="M194.223 258.449L150.12 231.458L139.192 230.293L195.091 264.495L194.223 258.449Z" fill="#340155"/>
<path d="M163.42 232.874L193.164 251.076L192.296 245.03L174.348 234.049L163.42 232.874Z" fill="#340155"/>
<path d="M196.139 271.865L125.892 228.874L114.964 227.709L197.007 277.911L196.139 271.865Z" fill="#340155"/>
<path d="M110.94 342.118L62.8877 312.723L64.2643 319.076L96.4865 338.793L110.94 342.118Z" fill="#340155"/>
<path d="M142.993 349.503L59.8379 298.612L61.2145 304.976L128.539 346.178L142.993 349.503Z" fill="#340155"/>
<path d="M67.0705 332.029L78.8878 334.751L65.9375 326.83L67.0705 332.029Z" fill="#340155"/>
<path d="M205.754 338.946L47.6289 242.185L49.0055 248.549L206.622 345.003L205.754 338.946Z" fill="#340155"/>
<path d="M207.681 352.358L50.6787 256.284L52.0553 262.648L208.549 358.415L207.681 352.358Z" fill="#340155"/>
<path d="M175.046 356.871L56.7881 284.506L58.1646 290.87L160.592 353.546L175.046 356.871Z" fill="#340155"/>
<path d="M207.099 364.252L53.7285 270.392L55.1157 276.756L192.645 360.927L207.099 364.252Z" fill="#340155"/>
<path d="M99.1758 226.132L125.299 345.289L146.731 349.97L124.039 228.419L99.1758 226.132Z" fill="#27D89F"/>
<g style="mix-blend-mode:multiply">
<path d="M99.1758 226.132L125.299 345.289L119.962 344.421L99.1758 226.132Z" fill="#A000FF"/>
</g>
<path d="M235.53 201L254.252 323.101L267.689 309.028L251.085 189.574L235.53 201Z" fill="#27D89F"/>
<g style="mix-blend-mode:multiply">
<path d="M235.53 201.001L254.252 323.102L250.101 326.999L235.53 201.001Z" fill="#A000FF"/>
</g>
<path d="M341.811 261.939L182.808 175.289L173.722 127.713L164.584 79.7771L191.406 42.7793L330.968 128.698L375.76 222.537L341.811 261.939Z" fill="#6C00AC"/>
<path d="M341.811 261.941L182.808 175.291L220.727 135.085L375.76 222.539L341.811 261.941Z" fill="#4F007D"/>
<path d="M220.727 135.083L191.406 42.7793L330.969 128.698L375.76 222.537L220.727 135.083Z" fill="#4F007D"/>
<g style="mix-blend-mode:multiply">
<path d="M173.723 127.715L207.067 91.2471L354.699 178.585L206.94 94.4238L173.723 127.715Z" fill="#A000FF"/>
</g>
<path d="M207.067 91.2507L173.722 127.719L170.249 110.3L201.317 73.8213L344.829 156.945L354.698 178.588L207.067 91.2507Z" fill="#27D89F"/>
<g style="mix-blend-mode:multiply">
<path d="M262.542 86.4326L291.482 174.607L256.475 215.47L288.665 172.86L262.542 86.4326Z" fill="#A000FF"/>
</g>
<path d="M256.475 215.47L291.482 174.607L262.542 86.4326L285.107 100.325L313.75 187.483L277.674 227.287L256.475 215.47Z" fill="#27D89F"/>
<path d="M313.359 193.896C313.359 193.896 297.316 191.28 292.562 197.559C291.037 203.532 288.326 222.867 324.138 241.811C359.95 260.754 376.119 231.486 376.236 221.808C371.503 227.801 359.643 235.574 354.338 235.214C365.033 226.679 359.421 215.677 359.421 215.677C359.421 215.677 347.328 245.919 328.046 237.448C308.763 228.977 303.913 200.429 313.359 193.896Z" fill="#228B6A"/>
<g style="mix-blend-mode:multiply">
<path d="M287.405 141.915C287.405 141.915 316.599 163.22 316.927 175.493C317.256 187.765 294.394 186.558 291.62 197.613C289.925 204.411 291.831 211.082 294.14 214.375C290.963 207.291 291.704 200.059 292.477 197.867C297.401 194.881 300.864 193.346 313.242 194.055C313.687 193.854 329.126 178.669 329.306 177.462C329.486 176.255 326.457 168.144 326.457 168.144L311.019 151.276L299.371 147.114L287.405 141.915Z" fill="#CCCCCC"/>
</g>
<path d="M319.067 172.59C321.756 187.075 296.343 185.476 292.404 197.94C301.616 187.149 331.159 203.594 338.804 181.76C350.389 148.711 298.969 147.663 292.605 138.896C292.065 141.151 291.546 140.865 288.443 141.966C295.559 148.32 317.436 163.769 319.067 172.59Z" fill="#27D89F"/>
<g style="mix-blend-mode:multiply">
<path d="M289.185 141.048C311.072 150.346 337.978 140.858 352.718 125.97C323.885 131.942 289.185 141.048 289.185 141.048Z" fill="#CCCCCC"/>
</g>
<path d="M288.792 140.527C288.792 140.527 333.721 161.429 378.872 98.0861L358.753 67.5264C358.753 67.5264 338.857 123.902 288.792 140.527Z" fill="#2AAC83"/>
<g style="mix-blend-mode:multiply">
<path d="M289.185 141.047C289.185 141.047 313.327 102.926 379 98.5212C357.081 95.3022 312.872 90.3678 289.185 141.047Z" fill="#CCCCCC"/>
</g>
<path d="M289.185 141.048C289.185 141.048 285.743 94.0754 358.871 67.5713C366.691 77.1198 373.438 87.4994 378.99 98.5228C378.99 98.5228 318.622 97.2733 289.185 141.048Z" fill="#27D89F"/>
<path d="M272.496 224.902C272.496 224.902 274.307 216.028 265.084 208.468C250.894 196.82 218.291 191.42 209.862 232.452C202.312 269.27 250.513 277.752 250.513 277.752C249.186 271.125 245.336 265.275 239.776 261.434C253.637 257.325 257.851 248.886 257.851 248.886C257.851 248.886 241.375 249.786 231.887 244.65C223.649 240.15 225.64 226.575 235.17 224.606C252.853 220.942 249.465 239.557 249.465 239.557L272.496 224.902Z" fill="#2AAC83"/>
<g style="mix-blend-mode:multiply">
<path d="M292.498 137.363C292.498 137.363 256.687 140.995 234.768 169.13C217.02 191.918 230.913 236.285 249.486 239.515C239.363 228.926 228.414 201.554 234.333 185.776C240.253 169.998 250.969 153.797 263.908 149.202C276.848 144.606 292.498 137.363 292.498 137.363Z" fill="#CCCCCC"/>
</g>
<path d="M291.439 141.842C291.439 141.842 251.689 154.74 248.279 179.613C244.869 204.487 264.162 221.598 272.337 225.23C266.259 238.424 249.486 239.526 249.486 239.526C249.486 239.526 224.496 226.078 229.981 187.364C235.466 148.651 292.456 137.363 292.456 137.363L291.439 141.842Z" fill="#27D89F"/>
<g style="mix-blend-mode:multiply">
<path d="M289.735 141.841C289.735 141.841 302.114 126.519 299.403 107.872C298.747 121.924 292.711 138.019 289.735 141.841Z" fill="#CCCCCC"/>
</g>
<g style="mix-blend-mode:multiply">
<path d="M267.191 87.7432C267.191 87.7432 283.403 111.717 289.089 137.585C294.585 126.848 278.151 89.8186 267.191 87.7432Z" fill="#CCCCCC"/>
</g>
<path d="M289.714 141.874C289.714 141.874 322.116 100.906 268.07 41.0146L231.792 54.685C231.792 54.685 284.853 87.3625 289.714 141.874Z" fill="#2AAC83"/>
<g style="mix-blend-mode:multiply">
<path d="M231.909 54.5372C231.909 54.5372 227.62 116.334 284.536 139.778C260.329 93.1869 266.407 64.0779 268.536 41.1846C258.211 42.4976 231.909 54.5372 231.909 54.5372Z" fill="#CCCCCC"/>
</g>
<path d="M289.734 141.841C289.734 141.841 241.29 134.662 231.908 54.5353C243.611 48.7173 255.905 44.1733 268.578 40.9814C268.578 40.9814 251.964 102.239 289.734 141.841Z" fill="#27D89F"/>
<g style="mix-blend-mode:multiply">
<path d="M291.207 137.033C297.751 137.128 297.115 143.937 289.089 143.058C281.062 142.179 283.159 136.927 291.207 137.033Z" fill="#CCCCCC"/>
</g>
<path d="M290.963 137.033C296.258 137.128 295.792 143.937 289.216 143.058C282.64 142.179 284.398 136.927 290.963 137.033Z" fill="#27D89F"/>
<path d="M188.78 27.4153L201.169 9.89062L206.008 16.837L188.78 27.4153Z" fill="white"/>
<path d="M281.274 54.187L287.85 46.7324L289.163 51.1162L281.274 54.187Z" fill="#290142"/>
<path d="M37.4105 146.427L28.8652 143.144L31.4913 136.568L37.4105 146.427Z" fill="white"/>
<path d="M76.0492 167.517C73.762 167.517 71.8136 166.691 70.9135 165.219C70.2994 164.235 69.6323 162.138 72.0889 159.12C72.9713 158.002 74.0744 157.077 75.3295 156.403C76.5846 155.729 77.965 155.32 79.3847 155.202C81.8916 155.054 84.4005 155.459 86.7334 156.388C87.1833 155.012 87.485 153.593 87.6335 152.153C88.0571 148.076 86.5005 145.28 82.9955 143.851C81.6967 143.34 80.3307 143.019 78.94 142.898C76.9387 148.584 71.5277 154.133 66.8368 155.742C63.533 156.875 60.7058 156.081 58.8951 153.54C58.2199 152.62 57.8874 151.493 57.9551 150.355C58.0227 149.216 58.4863 148.136 59.2657 147.303C62.2412 143.554 70.31 140.611 77.3622 140.706C77.5487 139.905 77.6341 139.083 77.6164 138.26C77.4999 135.359 75.7209 133.453 72.3219 132.584C57.9103 128.921 51.737 139.213 51.4828 139.647C51.4133 139.768 51.3206 139.874 51.2101 139.959C51.0995 140.045 50.9733 140.107 50.8386 140.143C50.7039 140.18 50.5633 140.189 50.425 140.171C50.2866 140.154 50.1531 140.108 50.0321 140.039C49.9111 139.969 49.8051 139.877 49.7199 139.766C49.6347 139.656 49.5722 139.529 49.5358 139.395C49.4994 139.26 49.4899 139.119 49.5078 138.981C49.5258 138.843 49.5708 138.709 49.6403 138.588C49.7145 138.472 56.8408 126.453 72.8407 130.53C77.1293 131.589 79.5753 134.342 79.7236 138.175C79.7589 139.071 79.6842 139.967 79.5012 140.844C80.9734 140.993 82.4172 141.349 83.7897 141.903C88.1524 143.682 90.2596 147.398 89.7407 152.386C89.5668 154.036 89.2117 155.663 88.6818 157.235C91.751 158.67 94.6259 160.488 97.2377 162.646C97.4511 162.829 97.5833 163.089 97.6052 163.369C97.627 163.649 97.5367 163.926 97.3542 164.139C97.1716 164.353 96.9118 164.485 96.6318 164.507C96.3518 164.529 96.0746 164.438 95.8611 164.256C93.4149 162.262 90.7378 160.57 87.8876 159.216C87.0264 161.193 85.725 162.948 84.0826 164.346C82.4402 165.745 80.5002 166.75 78.4105 167.284C77.634 167.446 76.8424 167.524 76.0492 167.517ZM80.5177 157.278C80.2038 157.262 79.8893 157.262 79.5753 157.278C78.4322 157.365 77.3204 157.694 76.3131 158.241C75.3057 158.789 74.4255 159.543 73.7302 160.454C73.0313 161.302 71.9724 162.911 72.6713 164.097C73.3702 165.283 75.6045 165.696 77.9658 165.156C79.7246 164.695 81.3563 163.842 82.7389 162.661C84.1215 161.48 85.2192 160.002 85.9499 158.337C84.2162 157.659 82.3784 157.287 80.5177 157.235V157.278ZM76.6951 142.771C70.4476 142.824 63.4589 145.397 60.9282 148.595C60.4386 149.068 60.1384 149.703 60.0838 150.381C60.0292 151.06 60.224 151.735 60.6317 152.28C61.8812 154.048 63.7448 154.525 66.1591 153.709C70.0876 152.365 74.7573 147.568 76.6951 142.771Z" fill="#27D89F"/>
<path d="M48.6989 161.769L41.2443 153.88L35.1133 156.506L48.6989 161.769Z" fill="#290142"/>
<path d="M115.367 129.083L116.203 140.286L109.395 122.539L115.367 129.083Z" fill="white"/>
<path d="M125.797 155.297C126.79 154.923 127.673 154.307 128.367 153.504C129.061 152.701 129.542 151.738 129.768 150.701C131.07 155.424 134.723 154.481 134.723 154.481C134.723 154.481 129.852 156.599 129.852 158.802C128.465 155.297 125.797 155.297 125.797 155.297Z" fill="#27D89F"/>
<path d="M129.439 116.191C129.439 116.191 134.257 116.519 134.257 110.6C136.778 115.968 140.283 115.206 140.283 115.206C140.283 115.206 134.363 117.832 134.363 120.5C132.701 116.191 129.439 116.191 129.439 116.191Z" fill="#290142"/>
<path d="M18.001 189.98C18.001 189.98 22.0671 191.389 23.4966 186.052C24.3649 191.473 27.5628 191.6 27.5628 191.6C27.5628 191.6 21.8448 192.596 21.2094 194.968C20.7859 190.732 18.001 189.98 18.001 189.98Z" fill="#27D89F"/>
<path d="M287.85 7.41227C287.85 7.41227 291.905 4.78621 288.358 0C293.599 2.79548 295.94 0.0847136 295.94 0.0847136C295.94 0.0847136 292.763 5.72863 294.351 7.83584C290.476 5.44273 287.85 7.41227 287.85 7.41227Z" fill="white"/>
<path d="M343.072 61.0771C343.072 61.0771 347.128 58.4616 343.591 53.7178C348.822 56.5133 351.162 53.7919 351.162 53.7919C351.162 53.7919 347.986 59.4464 349.574 61.5536C345.709 59.1181 343.072 61.0771 343.072 61.0771Z" fill="white"/>
<path d="M113.937 149.398C113.527 149.398 113.133 149.561 112.843 149.851C112.553 150.141 112.391 150.534 112.391 150.944C112.391 151.354 112.553 151.748 112.843 152.038C113.133 152.328 113.527 152.49 113.937 152.49C114.347 152.49 114.74 152.328 115.03 152.038C115.32 151.748 115.483 151.354 115.483 150.944C115.483 150.534 115.32 150.141 115.03 149.851C114.74 149.561 114.347 149.398 113.937 149.398Z" fill="#4F007D"/>
<path d="M273.714 24.5996C273.328 24.6317 272.967 24.8079 272.704 25.0933C272.442 25.3787 272.296 25.7524 272.296 26.1403C272.296 26.5282 272.442 26.9019 272.704 27.1873C272.967 27.4727 273.328 27.6489 273.714 27.681C274.101 27.6489 274.461 27.4727 274.724 27.1873C274.986 26.9019 275.132 26.5282 275.132 26.1403C275.132 25.7524 274.986 25.3787 274.724 25.0933C274.461 24.8079 274.101 24.6317 273.714 24.5996Z" fill="#290142"/>
<path d="M181.409 7.83789C181.023 7.86997 180.662 8.04619 180.4 8.33158C180.137 8.61698 179.991 8.99069 179.991 9.37859C179.991 9.76648 180.137 10.1402 180.4 10.4256C180.662 10.711 181.023 10.8872 181.409 10.9193C181.796 10.8872 182.156 10.711 182.419 10.4256C182.682 10.1402 182.827 9.76648 182.827 9.37859C182.827 8.99069 182.682 8.61698 182.419 8.33158C182.156 8.04619 181.796 7.86997 181.409 7.83789Z" fill="#290142"/>
<path d="M370.846 42.166C370.436 42.166 370.043 42.3289 369.753 42.6188C369.463 42.9088 369.3 43.302 369.3 43.712C369.3 44.122 369.463 44.5152 369.753 44.8052C370.043 45.0951 370.436 45.258 370.846 45.258C371.256 45.258 371.649 45.0951 371.939 44.8052C372.229 44.5152 372.392 44.122 372.392 43.712C372.392 43.302 372.229 42.9088 371.939 42.6188C371.649 42.3289 371.256 42.166 370.846 42.166Z" fill="#27D89F"/>
<path d="M132.172 136.461L134.798 127.693L136.99 129.006L132.172 136.461Z" fill="#27D89F"/>
<path d="M147.536 164.257L153.73 166.788L147.239 166.046L144.507 171.987L145.175 165.591L139.351 162.849L145.916 163.706L148.584 157.649L147.536 164.257Z" fill="white"/>
<path d="M240.083 14.7629L245.219 17.6431L239.628 16.2983L236.61 21.1904L237.881 15.6735L233.095 12.6557L238.739 14.117L241.714 9.1084L240.083 14.7629Z" fill="white"/>
<path d="M123.531 167.965C123.297 168.018 123.088 168.149 122.938 168.337C122.789 168.524 122.707 168.757 122.707 168.997C122.707 169.237 122.789 169.47 122.938 169.658C123.088 169.845 123.297 169.976 123.531 170.03C123.765 169.976 123.973 169.845 124.123 169.658C124.273 169.47 124.354 169.237 124.354 168.997C124.354 168.757 124.273 168.524 124.123 168.337C123.973 168.149 123.765 168.018 123.531 167.965Z" fill="white"/>
<path d="M137.996 185.93C137.767 185.987 137.564 186.119 137.418 186.305C137.273 186.492 137.194 186.721 137.194 186.957C137.194 187.193 137.273 187.422 137.418 187.608C137.564 187.794 137.767 187.927 137.996 187.984C138.225 187.927 138.428 187.794 138.573 187.608C138.718 187.422 138.797 187.193 138.797 186.957C138.797 186.721 138.718 186.492 138.573 186.305C138.428 186.119 138.225 185.987 137.996 185.93Z" fill="#4F007D"/>
<path d="M165.156 171.003C164.927 171.06 164.724 171.193 164.579 171.379C164.433 171.565 164.354 171.794 164.354 172.03C164.354 172.266 164.433 172.495 164.579 172.681C164.724 172.868 164.927 173 165.156 173.057C165.385 173 165.588 172.868 165.733 172.681C165.879 172.495 165.957 172.266 165.957 172.03C165.957 171.794 165.879 171.565 165.733 171.379C165.588 171.193 165.385 171.06 165.156 171.003Z" fill="white"/>
<path d="M97.239 181.115C97.01 181.173 96.8068 181.305 96.6616 181.491C96.5164 181.677 96.4375 181.906 96.4375 182.142C96.4375 182.378 96.5164 182.608 96.6616 182.794C96.8068 182.98 97.01 183.112 97.239 183.169C97.4679 183.112 97.6712 182.98 97.8164 182.794C97.9616 182.608 98.0404 182.378 98.0404 182.142C98.0404 181.906 97.9616 181.677 97.8164 181.491C97.6712 181.305 97.4679 181.173 97.239 181.115Z" fill="#27D89F"/>
<path d="M157.701 199.084C157.472 199.141 157.269 199.274 157.123 199.46C156.978 199.646 156.899 199.875 156.899 200.111C156.899 200.347 156.978 200.576 157.123 200.763C157.269 200.949 157.472 201.081 157.701 201.138C157.93 201.081 158.133 200.949 158.278 200.763C158.423 200.576 158.502 200.347 158.502 200.111C158.502 199.875 158.423 199.646 158.278 199.46C158.133 199.274 157.93 199.141 157.701 199.084Z" fill="white"/>
<path d="M63.9255 183.305C63.6965 183.362 63.4933 183.494 63.3481 183.68C63.2029 183.867 63.124 184.096 63.124 184.332C63.124 184.568 63.2029 184.797 63.3481 184.983C63.4933 185.169 63.6965 185.302 63.9255 185.359C64.1545 185.302 64.3577 185.169 64.5029 184.983C64.6481 184.797 64.727 184.568 64.727 184.332C64.727 184.096 64.6481 183.867 64.5029 183.68C64.3577 183.494 64.1545 183.362 63.9255 183.305Z" fill="#4F007D"/>
<path d="M114.753 190.033L118.703 194.417L119.137 186.528L114.753 190.033Z" fill="#4F007D"/>
<path d="M77.5117 178.637L86.7135 188.273L81.0167 174.688L77.5117 178.637Z" fill="#4F007D"/>
<path d="M106.43 169.436L110.379 166.81L109.935 173.819L106.43 169.436Z" fill="white"/>
<path d="M153.752 183.452L159.015 184.765L154.197 188.27L153.752 183.452Z" fill="white"/>
<path d="M161.545 16.2345L167.125 21.1584L165.484 10.6436L161.545 16.2345Z" fill="#27D89F"/>
</svg>
