<svg width="40" height="38" viewBox="0 0 40 38" fill="none" xmlns="http://www.w3.org/2000/svg">
<path d="M14.9523 36.0003C15.8465 36.0003 16.5713 35.2754 16.5713 34.3813C16.5713 33.4871 15.8465 32.7622 14.9523 32.7622C14.0581 32.7622 13.3333 33.4871 13.3333 34.3813C13.3333 35.2754 14.0581 36.0003 14.9523 36.0003Z" stroke="#2CF2B3" stroke-width="3" stroke-linecap="round" stroke-linejoin="round"/>
<path d="M32.7619 36.0003C33.656 36.0003 34.3809 35.2754 34.3809 34.3813C34.3809 33.4871 33.656 32.7622 32.7619 32.7622C31.8677 32.7622 31.1428 33.4871 31.1428 34.3813C31.1428 35.2754 31.8677 36.0003 32.7619 36.0003Z" stroke="#2CF2B3" stroke-width="3" stroke-linecap="round" stroke-linejoin="round"/>
<path d="M2 2.00049H8.47619L12.8152 23.6795C12.9633 24.4249 13.3688 25.0945 13.9608 25.5711C14.5528 26.0476 15.2935 26.3008 16.0533 26.2862H31.7905C32.5503 26.3008 33.291 26.0476 33.883 25.5711C34.475 25.0945 34.8805 24.4249 35.0286 23.6795L37.619 10.0957H10.0952" stroke="#2CF2B3" stroke-width="3" stroke-linecap="round" stroke-linejoin="round"/>
</svg>
