<svg width="40" height="38" viewBox="0 0 40 38" fill="none" xmlns="http://www.w3.org/2000/svg">
<path d="M14.953 36.0003C15.8472 36.0003 16.5721 35.2754 16.5721 34.3813C16.5721 33.4871 15.8472 32.7622 14.953 32.7622C14.0589 32.7622 13.334 33.4871 13.334 34.3813C13.334 35.2754 14.0589 36.0003 14.953 36.0003Z" stroke="#F7F7F7" stroke-width="3" stroke-linecap="round" stroke-linejoin="round"/>
<path d="M32.7616 36.0003C33.6558 36.0003 34.3807 35.2754 34.3807 34.3813C34.3807 33.4871 33.6558 32.7622 32.7616 32.7622C31.8675 32.7622 31.1426 33.4871 31.1426 34.3813C31.1426 35.2754 31.8675 36.0003 32.7616 36.0003Z" stroke="#F7F7F7" stroke-width="3" stroke-linecap="round" stroke-linejoin="round"/>
<path d="M2 2.00049H8.47619L12.8152 23.6795C12.9633 24.4249 13.3688 25.0945 13.9608 25.5711C14.5528 26.0476 15.2935 26.3008 16.0533 26.2862H31.7905C32.5503 26.3008 33.291 26.0476 33.883 25.5711C34.475 25.0945 34.8805 24.4249 35.0286 23.6795L37.619 10.0957H10.0952" stroke="#F7F7F7" stroke-width="3" stroke-linecap="round" stroke-linejoin="round"/>
</svg>
