<svg width="45" height="51" viewBox="0 0 45 51" fill="none" xmlns="http://www.w3.org/2000/svg">
<path d="M45 0.673828H0V50.5651H45V0.673828Z" fill="#1C1B1B"/>
<path d="M37.9688 16.265H7.03125C6.2546 16.265 5.625 16.963 5.625 17.8241V24.0605C5.625 24.9216 6.2546 25.6196 7.03125 25.6196H37.9688C38.7454 25.6196 39.375 24.9216 39.375 24.0605V17.8241C39.375 16.963 38.7454 16.265 37.9688 16.265Z" fill="#1C1B1B" stroke="#F7F7F7" stroke-width="3" stroke-linecap="round" stroke-linejoin="round"/>
<path d="M36.5625 27.6191V41.6511C36.5625 42.0646 36.4143 42.4611 36.1506 42.7535C35.8869 43.0459 35.5292 43.2102 35.1562 43.2102H9.84375C9.47079 43.2102 9.1131 43.0459 8.84938 42.7535C8.58566 42.4611 8.4375 42.0646 8.4375 41.6511V27.6191" fill="#1C1B1B"/>
<path d="M36.5625 27.6191V41.6511C36.5625 42.0646 36.4143 42.4611 36.1506 42.7535C35.8869 43.0459 35.5292 43.2102 35.1562 43.2102H9.84375C9.47079 43.2102 9.1131 43.0459 8.84938 42.7535C8.58566 42.4611 8.4375 42.0646 8.4375 41.6511V27.6191" stroke="#F7F7F7" stroke-width="3" stroke-linecap="round" stroke-linejoin="round"/>
<path d="M22.5 16.265V41.2107" stroke="#F7F7F7" stroke-width="3" stroke-linecap="round" stroke-linejoin="round"/>
<path d="M30.4629 14.0609C28.459 16.2631 22.5 16.2631 22.5 16.2631C22.5 16.2631 22.5 9.65643 24.4863 7.43471C25.2789 6.55602 26.3538 6.06238 27.4746 6.06238C28.5954 6.06238 29.6703 6.55602 30.4629 7.43471C31.2554 8.31339 31.7007 9.50515 31.7007 10.7478C31.7007 11.9905 31.2554 13.1822 30.4629 14.0609Z" fill="#1C1B1B" stroke="#F7F7F7" stroke-width="2.7" stroke-linecap="round" stroke-linejoin="round"/>
<path d="M14.5366 14.0609C16.5405 16.2631 22.4995 16.2631 22.4995 16.2631C22.4995 16.2631 22.4995 9.65643 20.5132 7.43471C19.7206 6.55602 18.6457 6.06238 17.5249 6.06238C16.4041 6.06238 15.3292 6.55602 14.5366 7.43471C13.7441 8.31339 13.2988 9.50515 13.2988 10.7478C13.2988 11.9905 13.7441 13.1822 14.5366 14.0609Z" fill="#1C1B1B" stroke="#F7F7F7" stroke-width="2.7" stroke-linecap="round" stroke-linejoin="round"/>
</svg>
