<svg width="37" height="41" viewBox="0 0 37 41" fill="none" xmlns="http://www.w3.org/2000/svg">
<path d="M33.9688 12.2651H3.03125C2.2546 12.2651 1.625 12.9632 1.625 13.8242V20.0607C1.625 20.9217 2.2546 21.6198 3.03125 21.6198H33.9688C34.7454 21.6198 35.375 20.9217 35.375 20.0607V13.8242C35.375 12.9632 34.7454 12.2651 33.9688 12.2651Z" fill="#1C1B1B" stroke="#2CF2B3" stroke-width="3" stroke-linecap="round" stroke-linejoin="round"/>
<path d="M32.5625 23.6191V37.6511C32.5625 38.0646 32.4143 38.4611 32.1506 38.7535C31.8869 39.0459 31.5292 39.2102 31.1562 39.2102H5.84375C5.47079 39.2102 5.1131 39.0459 4.84938 38.7535C4.58566 38.4611 4.4375 38.0646 4.4375 37.6511V23.6191" fill="#1C1B1B"/>
<path d="M32.5625 23.6191V37.6511C32.5625 38.0646 32.4143 38.4611 32.1506 38.7535C31.8869 39.0459 31.5292 39.2102 31.1562 39.2102H5.84375C5.47079 39.2102 5.1131 39.0459 4.84938 38.7535C4.58566 38.4611 4.4375 38.0646 4.4375 37.6511V23.6191" stroke="#2CF2B3" stroke-width="3" stroke-linecap="round" stroke-linejoin="round"/>
<path d="M10.5366 10.061C12.5405 12.2633 18.4995 12.2633 18.4995 12.2633C18.4995 12.2633 18.4995 5.65655 16.5132 3.43483C15.7206 2.55614 14.6457 2.0625 13.5249 2.0625C12.4041 2.0625 11.3292 2.55614 10.5366 3.43483C9.74407 4.31352 9.29883 5.50527 9.29883 6.74792C9.29883 7.99057 9.74407 9.18233 10.5366 10.061Z" fill="#1C1B1B" stroke="#2CF2B3" stroke-width="2.7" stroke-linecap="round" stroke-linejoin="round"/>
<path d="M26.4629 10.061C24.459 12.2633 18.5 12.2633 18.5 12.2633C18.5 12.2633 18.5 5.65655 20.4863 3.43483C21.2789 2.55614 22.3538 2.0625 23.4746 2.0625C24.5954 2.0625 25.6703 2.55614 26.4629 3.43483C27.2554 4.31352 27.7007 5.50527 27.7007 6.74792C27.7007 7.99057 27.2554 9.18233 26.4629 10.061Z" fill="#1C1B1B" stroke="#2CF2B3" stroke-width="2.7" stroke-linecap="round" stroke-linejoin="round"/>
<path d="M18.5 12.2651V37.2108" stroke="#2CF2B3" stroke-width="3" stroke-linecap="round" stroke-linejoin="round"/>
</svg>
