<svg width="353" height="277" viewBox="0 0 353 277" fill="none" xmlns="http://www.w3.org/2000/svg">
<path d="M331.615 133.517L330.486 135.234C326.902 133.376 319.481 129.948 309.103 127.385C290.286 122.737 273.082 125.972 260.638 131.015C256.862 132.53 253.226 134.371 249.771 136.518C238.681 143.489 227.021 152.08 218.117 164.923L216.598 164.101L174.475 131.741L165.545 124.878C165.545 124.878 171.524 117.366 181.835 108.101C193.669 97.4581 211.198 84.5088 231.92 77.9482C243.87 74.1649 256.884 72.5088 270.472 74.6502C279.391 76.0636 288.562 79.0954 297.845 84.2402L331.622 133.531L331.615 133.517Z" fill="#29AF85"/>
<path d="M260.642 131.024C256.867 132.539 253.231 134.38 249.776 136.527C238.686 143.498 227.026 152.089 218.121 164.932L216.602 164.11L174.473 131.741C176.442 123.718 178.9 115.824 181.832 108.101C193.666 97.4581 211.195 84.5088 231.917 77.9481C243.867 74.1649 256.881 72.5088 270.47 74.6502C270.927 74.947 271.176 75.1213 271.176 75.1213C271.176 75.1213 249.978 100.85 260.642 131.024Z" fill="#279673"/>
<path d="M206.112 118.519L142.142 125.836L140.42 125.761C140.041 120.167 139.094 114.626 137.594 109.224C135.194 100.434 131.619 92.4369 127.908 85.1036C125.647 80.6277 122.272 75.4452 117.746 70.2485C109.592 60.9105 97.6852 51.6172 81.7532 46.7079C71.5393 43.5583 63.4167 42.6679 59.3801 42.4135L59.293 40.3593L113.624 15.5137C123.817 15.8717 132.91 17.8364 141.03 21.0025C154.242 26.1473 164.859 34.4465 173.37 44.0884C185.798 58.1708 193.725 75.1154 198.659 89.2826C204.428 105.798 206.112 118.519 206.112 118.519Z" fill="#29AF85"/>
<path d="M198.677 89.2877C197.756 101.172 191.703 110.868 179.21 114.407C165.55 118.272 150.478 115.203 137.6 109.224C135.201 100.435 131.626 92.4372 127.914 85.1039C125.653 80.6281 122.278 75.4456 117.752 70.2489C146.034 63.634 141.048 21.0146 141.048 21.0146C154.26 26.1595 164.877 34.4586 173.388 44.1005C185.816 58.1759 193.743 75.1205 198.677 89.2877Z" fill="#279673"/>
<path d="M123.425 81.9409C123.425 81.9409 122.269 69.8208 99.6152 74.7183C99.6152 74.7183 108.56 85.6724 123.425 81.9409Z" fill="#29AF85"/>
<path d="M298.159 199.115H298.173L264.394 149.833C240.968 136.846 218.266 137.28 198.471 143.548C159.7 155.824 132.094 190.479 132.094 190.479L183.156 229.706L184.673 230.526C193.58 217.685 205.24 209.089 216.33 202.123C228.204 194.655 250.478 186.771 275.661 192.99C286.04 195.553 293.46 198.978 297.045 200.837L298.173 199.117L298.159 199.115Z" fill="#29AF85"/>
<path d="M49.0747 143.762H49.0606L82.8369 94.4713C106.263 81.4866 128.966 81.9201 148.762 88.1862C187.534 100.462 215.14 135.119 215.14 135.119L164.068 174.351L162.549 175.171C153.642 162.33 141.984 153.734 130.894 146.768C119.02 139.3 96.7459 131.416 71.5632 137.635C61.1845 140.2 53.7637 143.623 50.1769 145.482L49.0488 143.764L49.0747 143.762Z" fill="#279673"/>
<path d="M159.18 117.949L157.653 117.145C163.329 102.585 163.941 88.1135 163.541 75.0182C163.101 60.9947 157.197 38.1019 137.979 20.6886C130.057 13.5084 123.072 9.26339 119.527 7.327L120.323 5.43066C169.627 27.6779 173.256 64.6224 168.583 90.0735C165.578 106.366 159.18 117.949 159.18 117.949Z" fill="#29AF85"/>
<path d="M220.235 138.409L159.182 117.949C162.701 108.696 164.274 98.2626 164.971 90.152C165.386 85.5227 165.557 80.8747 165.482 76.2274C164.043 29.9684 120.314 5.43848 120.314 5.43848L180.053 5.93788C203.907 18.1239 216.227 37.2028 222.084 57.1297C233.555 96.1425 220.235 138.409 220.235 138.409Z" fill="#2EE7AC"/>
<path d="M163.708 116.049C163.799 115.908 171.225 102.433 172.273 82.1812C172.895 70.3562 170.586 58.5607 165.549 47.8445C159.191 34.1602 148.357 21.4205 133.377 9.97887L131.066 8.2168L179.131 9.09548L179.291 9.15908C179.741 9.33576 190.416 13.6349 201.348 25.7974C207.757 32.9305 212.902 41.3003 216.638 50.676C221.301 62.3697 223.773 75.6677 223.988 90.1976C224.014 91.319 223.806 119.986 217.613 133.281L163.708 116.049ZM165.592 114.918L216.696 130.513C219.169 125.201 220.888 116.565 221.666 105.543C222.257 97.1611 222.097 90.3107 222.094 90.2424C221.885 75.9645 219.466 62.9162 214.909 51.4557C211.266 42.2968 206.254 34.1225 200.016 27.1543C193.231 19.576 186.446 15.1002 182.374 12.8198C180.24 11.6266 177.845 10.9792 175.4 10.9353L142.102 10.3228C141.721 10.3155 141.346 10.4263 141.03 10.6402C140.714 10.854 140.471 11.1604 140.336 11.5173C140.201 11.8743 140.179 12.2644 140.274 12.6342C140.369 13.004 140.575 13.3354 140.866 13.5831C152.877 23.8752 161.751 35.1213 167.304 47.0906C172.468 58.1035 174.828 70.2232 174.173 82.3696C173.665 91.1681 171.733 99.8256 168.451 108.004C166.668 112.438 166.451 113.453 165.589 114.918H165.592Z" fill="#29AF85"/>
<path d="M198.547 47.0111C189.855 43.3645 182.858 46.54 179.212 55.2419C175.567 63.9439 182.368 72.9709 191.061 76.6152C199.753 80.2595 207.052 77.1453 210.697 68.448C214.343 59.7507 207.242 50.6577 198.547 47.0111Z" fill="#29AF85"/>
<path d="M127.431 183.022L125.783 183.554C119.327 169.321 109.403 158.775 99.745 149.924C89.404 140.445 68.8937 128.683 43.0187 130.278C32.3573 130.935 24.4396 132.97 20.582 134.153L19.7812 132.268C70.1325 112.511 99.1021 135.715 114.047 156.836C123.611 170.353 127.431 183.022 127.431 183.022Z" fill="#29AF85"/>
<path d="M184.709 153.604L127.429 183.023C123.267 174.043 116.902 165.628 111.579 159.465C108.558 155.935 105.351 152.568 101.973 149.378C67.8716 118.099 19.7812 132.274 19.7812 132.274L61.8639 89.8568C87.2397 81.2914 109.497 85.7979 127.843 95.5105C163.77 114.552 184.709 153.604 184.709 153.604Z" fill="#2EE7AC"/>
<path d="M129.232 178.46C129.195 178.293 124.741 163.568 110.983 148.673C102.957 139.966 92.9032 133.381 81.7167 129.502C67.485 124.498 50.8088 123.349 32.1544 126.088L29.293 126.51L63.4908 92.7175L63.6486 92.6469C64.089 92.449 74.6138 87.8012 90.9674 88.4749C100.548 88.8707 110.128 91.0332 119.447 94.906C131.072 99.7375 142.312 107.255 152.856 117.25C153.678 118.011 174.052 138.183 179.233 151.902L129.232 178.46ZM129.739 176.321L176.581 150.644C174.508 145.163 169.516 137.9 162.18 129.638C156.596 123.361 151.582 118.692 151.533 118.644C141.17 108.823 130.146 101.448 118.762 96.701C109.664 92.9107 100.317 90.7882 90.9721 90.3901C80.8335 89.9566 72.8828 91.6787 68.4176 92.9979C66.0725 93.6899 63.9349 94.9516 62.1955 96.6704L38.4942 120.084C38.2227 120.352 38.0407 120.697 37.9731 121.073C37.9054 121.449 37.9555 121.836 38.1163 122.182C38.2772 122.528 38.541 122.816 38.8717 123.006C39.2024 123.196 39.5838 123.28 39.9638 123.245C55.7168 121.832 69.9602 123.339 82.4043 127.721C93.8903 131.716 104.21 138.491 112.443 147.443C118.384 153.951 123.228 161.382 126.785 169.445C128.714 173.817 129.291 174.682 129.739 176.321Z" fill="#29AF85"/>
<path d="M127.992 111.575C124.315 102.889 112.851 101.622 104.17 105.299C95.4895 108.977 92.8801 116.206 96.554 124.88C100.228 133.554 111.44 135.009 120.121 131.325C128.802 127.641 131.668 120.258 127.992 111.575Z" fill="#29AF85"/>
<path d="M222.443 138.388L224.165 138.487C226.8 123.083 233.724 110.36 240.822 99.3495C248.42 87.5569 265.273 70.9774 290.707 65.9504C301.194 63.8797 309.369 63.8302 313.403 64.0046L313.697 61.9692C259.981 55.6371 237.845 85.4344 228.746 109.656C222.924 125.166 222.443 138.388 222.443 138.388Z" fill="#29AF85"/>
<path d="M159.574 124.463L222.44 138.383C224.19 128.639 228.213 118.884 231.795 111.568C233.822 107.385 236.07 103.313 238.528 99.3675C263.581 60.4606 313.694 61.9777 313.694 61.9777L262.234 31.6127C235.513 29.7682 215.132 39.7752 199.848 53.8364C169.918 81.3746 159.574 124.463 159.574 124.463Z" fill="#2EE7AC"/>
<path d="M164.477 121.424C166.012 106.837 180.597 82.159 181.198 81.212C188.863 68.8681 197.829 58.7432 207.847 51.1225C215.878 45.0118 224.599 40.4889 233.765 37.6738C249.402 32.8753 260.763 34.6986 261.239 34.7787L261.409 34.8069L303.048 58.8186L300.161 59.139C281.422 61.2238 265.582 66.5666 253.086 75.0165C243.25 81.6078 235.195 90.5288 229.639 100.986C220.11 118.889 219.536 134.26 219.54 134.437L164.477 121.424ZM219.632 125.092C221.03 116.39 223.832 107.974 227.927 100.171C233.62 89.4224 241.884 80.25 251.981 73.4711C262.906 66.0719 276.304 61.0071 291.897 58.371C292.273 58.3077 292.621 58.13 292.892 57.8619C293.163 57.5939 293.345 57.2487 293.413 56.8734C293.481 56.498 293.432 56.1109 293.272 55.7647C293.112 55.4185 292.849 55.13 292.519 54.9388L263.653 38.3005C261.535 37.079 259.147 36.4008 256.703 36.3264C252.047 36.1827 243.92 36.536 234.224 39.5278C225.287 42.2839 216.782 46.708 208.945 52.682C199.134 60.159 190.34 70.0954 182.804 82.2249C182.768 82.2815 179.102 88.0718 175.293 95.5606C170.279 105.417 167.305 113.699 166.69 119.532L218.502 132.489C218.528 130.79 218.864 129.81 219.62 125.092H219.632Z" fill="#29AF85"/>
<path d="M225.237 57.301C215.908 55.9464 205.139 60.083 203.787 69.4163C202.435 78.7496 207.084 85.1807 216.41 86.5329C225.736 87.885 236.219 83.6495 237.573 74.3186C238.927 64.9876 234.558 58.6555 225.237 57.301Z" fill="#29AF85"/>
<path d="M163.073 119.322C168.725 96.0426 192.175 81.7576 215.445 87.4113C226.621 90.1269 236.26 97.172 242.243 106.997C248.225 116.821 250.061 128.621 247.347 139.8C241.694 163.076 218.245 177.361 194.972 171.708C171.7 166.054 157.409 142.598 163.073 119.322Z" fill="#31004F"/>
<path d="M232.194 159.335C249.128 142.396 249.128 114.934 232.194 97.9955C215.261 81.0572 187.806 81.0572 170.872 97.9955C153.938 114.934 153.938 142.396 170.872 159.335C187.806 176.273 215.261 176.273 232.194 159.335Z" fill="#7000B4"/>
<path d="M201.484 168.695C198.318 168.693 195.163 168.313 192.087 167.564C186.979 166.403 182.153 164.238 177.89 161.195C173.626 158.151 170.01 154.29 167.252 149.836C164.494 145.381 162.649 140.423 161.825 135.249C161 130.075 161.212 124.789 162.449 119.697C163.685 114.606 165.922 109.812 169.028 105.593C172.134 101.374 176.047 97.8152 180.541 95.1232C185.034 92.4312 190.018 90.6599 195.203 89.9122C200.387 89.1646 205.668 89.4556 210.739 90.7682C231.906 95.9131 244.946 117.324 239.803 138.497C237.71 147.091 232.798 154.735 225.852 160.209C218.906 165.683 210.326 168.671 201.484 168.695ZM201.345 91.9861C194.374 91.9963 187.546 93.9677 181.642 97.6749C175.738 101.382 170.995 106.676 167.956 112.951C164.917 119.227 163.704 126.231 164.455 133.163C165.206 140.095 167.892 146.676 172.205 152.155C176.518 157.633 182.284 161.787 188.846 164.142C195.407 166.498 202.498 166.96 209.309 165.475C216.121 163.991 222.377 160.62 227.364 155.748C232.351 150.876 235.868 144.699 237.511 137.922C242.349 118.012 230.088 97.8754 210.181 93.0415C207.288 92.3395 204.322 91.986 201.345 91.9885V91.9861Z" fill="#4B0078"/>
<path d="M162.752 140.33L0 186.305L19.2751 254.577L182.027 208.602L162.752 140.33Z" fill="#2EE7AC"/>
<path d="M10.9688 189.875L26.3332 244.313L170.091 203.714L154.726 149.276L10.9688 189.875ZM165.093 193.858C165.718 196.081 165.436 198.461 164.309 200.476C163.181 202.491 161.3 203.976 159.079 204.605L35.3083 239.559C33.3202 240.121 31.1903 239.871 29.3867 238.863C27.5831 237.855 26.2535 236.171 25.6902 234.183L15.9356 199.622C15.6283 198.537 15.5379 197.402 15.6696 196.281C15.8013 195.161 16.1524 194.078 16.7029 193.093C17.2534 192.109 17.9926 191.242 18.878 190.544C19.7634 189.845 20.7779 189.328 21.8633 189.022L145.165 154.193C147.308 153.588 149.604 153.859 151.547 154.947C153.49 156.036 154.922 157.851 155.527 159.995L165.093 193.858Z" fill="#29AF85"/>
<path d="M107.717 191.934C106.771 188.583 104.852 185.587 102.204 183.327C99.5553 181.066 96.2963 179.642 92.8387 179.234C89.3811 178.826 85.8801 179.452 82.7785 181.034C79.6769 182.616 77.114 185.083 75.4138 188.122C73.7135 191.161 72.9524 194.636 73.2266 198.108C73.5007 201.58 74.7979 204.892 76.954 207.626C79.1101 210.361 82.0284 212.394 85.3399 213.469C88.6513 214.545 92.2072 214.614 95.5579 213.668C97.7831 213.04 99.8628 211.979 101.678 210.547C103.494 209.115 105.009 207.339 106.138 205.32C107.267 203.302 107.988 201.081 108.259 198.784C108.53 196.488 108.346 194.16 107.717 191.934Z" fill="#29AF85"/>
<path opacity="0.5" d="M162.743 140.358L182.012 208.631L54.7656 244.568C60.6533 240.876 114.565 223.131 125.653 198.518C139.122 168.653 128.559 152.29 128.846 149.93L162.743 140.358Z" fill="#29AF85"/>
<path d="M350.937 161.851H181.82V232.793H350.937V161.851Z" fill="#2EE7AC"/>
<path d="M192.5 166.605L192.736 223.17L342.11 222.517L341.863 165.952L192.5 166.605ZM339.927 211.683C339.935 213.993 339.027 216.211 337.401 217.851C335.776 219.491 333.567 220.418 331.258 220.43L202.657 220.991C201.633 220.995 200.617 220.798 199.669 220.41C198.721 220.021 197.859 219.45 197.132 218.728C196.405 218.006 195.827 217.147 195.432 216.202C195.037 215.256 194.832 214.242 194.829 213.217L194.671 177.302C194.666 176.174 194.884 175.057 195.31 174.013C195.737 172.97 196.365 172.021 197.159 171.22C197.953 170.419 198.896 169.783 199.936 169.347C200.975 168.911 202.091 168.685 203.218 168.68L331.345 168.119C332.448 168.114 333.541 168.327 334.562 168.744C335.582 169.162 336.511 169.777 337.294 170.553C338.077 171.33 338.699 172.253 339.126 173.27C339.552 174.288 339.774 175.379 339.779 176.482L339.927 211.683Z" fill="#29AF85"/>
<path d="M267.49 176.95C264.008 176.965 260.608 178.013 257.721 179.96C254.834 181.908 252.589 184.668 251.27 187.892C249.952 191.116 249.618 194.659 250.312 198.072C251.006 201.485 252.697 204.616 255.17 207.069C257.643 209.521 260.788 211.184 264.206 211.849C267.624 212.514 271.163 212.15 274.374 210.802C277.586 209.455 280.325 207.186 282.247 204.281C284.169 201.377 285.187 197.967 285.172 194.484C285.162 192.171 284.697 189.883 283.803 187.75C282.909 185.618 281.603 183.682 279.961 182.054C278.32 180.426 276.373 179.137 274.233 178.261C272.093 177.386 269.802 176.94 267.49 176.95Z" fill="#29AF85"/>
<path opacity="0.5" d="M351.976 159.509L352.287 230.448L220.066 231.028C226.727 229.044 283.418 226.368 300.697 205.626C321.657 180.453 315.858 161.86 316.765 159.662L351.976 159.509Z" fill="#29AF85"/>
<path d="M249.035 210.862C237.474 189.896 211.1 182.252 190.128 193.816C180.057 199.37 172.603 208.698 169.407 219.749C166.211 230.799 167.535 242.667 173.087 252.742C184.648 273.708 211.022 281.349 231.994 269.785C252.966 258.221 260.596 231.828 249.035 210.862Z" fill="#31004F"/>
<path d="M245.725 212.68C234.164 191.701 207.789 184.07 186.817 195.635C165.846 207.199 158.215 233.58 169.776 254.558C181.337 275.535 207.711 283.168 228.683 271.604C249.655 260.04 257.286 233.658 245.725 212.68Z" fill="#7000B4"/>
<path d="M208.055 273.604C201.083 273.616 194.231 271.782 188.196 268.288C182.161 264.795 177.158 259.766 173.694 253.713C170.23 247.66 168.429 240.798 168.473 233.824C168.518 226.849 170.406 220.011 173.947 214.003C177.488 207.994 182.555 203.03 188.633 199.614C194.712 196.197 201.587 194.451 208.558 194.551C215.53 194.651 222.352 196.595 228.33 200.184C234.308 203.774 239.23 208.882 242.597 214.99C253.112 234.071 246.148 258.156 227.07 268.676C221.251 271.902 214.708 273.598 208.055 273.604ZM207.944 196.891C201.688 196.896 195.535 198.49 190.062 201.524C172.124 211.418 165.57 234.064 175.461 252.007C180.218 260.638 188.207 267.026 197.672 269.765C207.136 272.504 217.301 271.37 225.93 266.613C243.871 256.719 250.423 234.073 240.531 216.127C238.186 211.846 235.015 208.072 231.202 205.024C227.39 201.976 223.011 199.714 218.318 198.37C214.947 197.392 211.455 196.894 207.944 196.891Z" fill="#4B0078"/>
<path d="M166.435 171C165.88 164.579 163.433 158.466 159.405 153.436C155.376 148.405 149.947 144.682 143.803 142.738C137.66 140.794 131.078 140.716 124.89 142.514C118.702 144.312 113.186 147.904 109.039 152.838C104.892 157.771 102.301 163.824 101.594 170.231C100.886 176.637 102.093 183.11 105.063 188.83C108.033 194.55 112.632 199.26 118.278 202.366C123.925 205.472 130.365 206.833 136.785 206.277C145.393 205.531 153.353 201.396 158.913 194.78C164.474 188.165 167.179 179.611 166.435 171Z" fill="#31004F"/>
<path d="M163.607 171.242C163.052 164.82 160.605 158.708 156.576 153.677C152.548 148.646 147.119 144.924 140.975 142.98C134.831 141.036 128.25 140.957 122.062 142.755C115.873 144.553 110.357 148.146 106.211 153.079C102.064 158.013 99.4731 164.065 98.7654 170.472C98.0578 176.878 99.2653 183.351 102.235 189.071C105.205 194.791 109.804 199.502 115.45 202.607C121.097 205.713 127.537 207.074 133.957 206.518C142.565 205.772 150.524 201.636 156.084 195.021C161.645 188.406 164.351 179.852 163.607 171.242Z" fill="#7000B4"/>
<path d="M131.158 204.13C123.732 204.118 116.58 201.326 111.109 196.304C105.638 191.282 102.244 184.394 101.595 176.995C101.094 171.148 102.337 165.283 105.167 160.142C107.996 155.001 112.286 150.815 117.494 148.112C122.702 145.41 128.594 144.312 134.425 144.958C140.257 145.603 145.766 147.964 150.257 151.741C154.747 155.517 158.018 160.541 159.655 166.176C161.292 171.812 161.223 177.806 159.455 183.402C157.687 188.998 154.301 193.944 149.724 197.616C145.146 201.287 139.584 203.519 133.739 204.029C132.872 204.092 132.01 204.13 131.158 204.13ZM103.368 176.842C103.844 182.344 105.94 187.581 109.391 191.891C112.843 196.202 117.495 199.392 122.758 201.058C128.022 202.723 133.662 202.791 138.964 201.25C144.266 199.71 148.992 196.632 152.545 192.405C156.098 188.178 158.318 182.992 158.925 177.503C159.531 172.014 158.496 166.468 155.952 161.567C153.407 156.666 149.467 152.63 144.629 149.969C139.791 147.308 134.273 146.142 128.772 146.618C121.4 147.264 114.585 150.809 109.822 156.475C105.06 162.141 102.739 169.466 103.368 176.842Z" fill="#4B0078"/>
<path d="M156.922 83.3727C155.189 80.4844 152.639 78.1748 149.594 76.7361C146.549 75.2974 143.146 74.7942 139.815 75.2901C136.485 75.7859 133.375 77.2586 130.881 79.522C128.387 81.7853 126.62 84.7375 125.803 88.0054C124.987 91.2733 125.157 94.7101 126.293 97.8812C127.429 101.052 129.479 103.815 132.185 105.821C134.891 107.826 138.13 108.984 141.494 109.148C144.857 109.312 148.194 108.474 151.082 106.741C154.954 104.417 157.745 100.649 158.84 96.2668C159.935 91.8845 159.245 87.2464 156.922 83.3727Z" fill="#31004F"/>
<path d="M155.647 84.1383C153.914 81.25 151.364 78.9404 148.319 77.5017C145.274 76.063 141.871 75.5598 138.54 76.0557C135.209 76.5516 132.1 78.0243 129.606 80.2876C127.112 82.5509 125.345 85.5032 124.528 88.7711C123.711 92.039 123.882 95.4758 125.017 98.6468C126.153 101.818 128.204 104.581 130.91 106.586C133.615 108.592 136.855 109.75 140.218 109.913C143.582 110.077 146.918 109.24 149.806 107.507C153.678 105.183 156.469 101.415 157.564 97.0325C158.66 92.6501 157.97 88.012 155.647 84.1383Z" fill="#7000B4"/>
<path d="M141.175 108.589C138.492 108.592 135.853 107.899 133.517 106.578C131.181 105.257 129.227 103.352 127.846 101.051C126.082 98.1105 125.34 94.6691 125.737 91.2633C126.134 87.8574 127.646 84.6786 130.038 82.2228C132.431 79.767 135.568 78.1723 138.962 77.6873C142.355 77.2024 145.814 77.8546 148.798 79.5422C151.782 81.2297 154.124 83.8577 155.458 87.0163C156.792 90.1748 157.044 93.6862 156.173 97.0027C155.303 100.319 153.36 103.254 150.647 105.35C147.934 107.446 144.603 108.585 141.175 108.589ZM128.639 100.579C130.124 103.054 132.309 105.033 134.918 106.266C137.527 107.499 140.443 107.93 143.297 107.505C146.151 107.08 148.815 105.818 150.952 103.879C153.089 101.94 154.604 99.4099 155.304 96.6098C156.003 93.8097 155.857 90.8649 154.884 88.1478C153.911 85.4307 152.154 83.0633 149.836 81.345C147.517 79.6266 144.741 78.6345 141.859 78.494C138.977 78.3536 136.118 79.0712 133.644 80.556C130.328 82.5494 127.939 85.7778 127 89.5321C126.062 93.2863 126.651 97.2596 128.639 100.579Z" fill="#4B0078"/>
<path d="M218.296 23.3325C215.036 22.4884 211.599 22.6302 208.42 23.7399C205.24 24.8496 202.461 26.8774 200.434 29.5669C198.406 32.2564 197.222 35.4868 197.03 38.8497C196.838 42.2126 197.647 45.5569 199.355 48.4598C201.063 51.3627 203.593 53.6938 206.626 55.1584C209.658 56.6229 213.057 57.1552 216.392 56.6878C219.727 56.2204 222.848 54.7744 225.361 52.5327C227.875 50.2909 229.667 47.354 230.512 44.0933C231.073 41.9278 231.202 39.673 230.892 37.4576C230.581 35.2422 229.838 33.1097 228.703 31.1818C227.569 29.2539 226.066 27.5684 224.28 26.2216C222.495 24.8748 220.461 23.8931 218.296 23.3325Z" fill="#31004F"/>
<path d="M216.859 22.9571C213.599 22.1126 210.162 22.2539 206.982 23.3632C203.802 24.4726 201.023 26.5001 198.995 29.1894C196.968 31.8788 195.783 35.1091 195.59 38.4721C195.398 41.835 196.207 45.1795 197.915 48.0826C199.623 50.9857 202.153 53.317 205.185 54.7819C208.218 56.2467 211.616 56.7791 214.951 56.312C218.286 55.8448 221.408 54.3989 223.921 52.1572C226.435 49.9155 228.227 46.9786 229.072 43.7179C230.204 39.3449 229.553 34.7012 227.263 30.8081C224.973 26.9149 221.23 24.0909 216.859 22.9571Z" fill="#7000B4"/>
<path d="M212.535 55.1647C210.166 55.1638 207.829 54.6205 205.703 53.5764C203.576 52.5323 201.717 51.0151 200.268 49.1411C198.818 47.2672 197.817 45.0862 197.341 42.7652C196.864 40.4443 196.925 38.0451 197.519 35.7514C198.247 32.9421 199.748 30.3932 201.851 28.3943C203.955 26.3953 206.576 25.0264 209.418 24.4429C212.261 23.8594 215.209 24.0847 217.93 25.0933C220.65 26.1019 223.034 27.8533 224.809 30.1487C226.584 32.444 227.681 35.1913 227.974 38.0787C228.267 40.966 227.744 43.8776 226.466 46.4829C225.188 49.0882 223.205 51.2828 220.742 52.8174C218.28 54.3521 215.436 55.1653 212.535 55.1647ZM212.518 25.0447C209.29 25.0528 206.156 26.1309 203.605 28.1102C201.054 30.0896 199.231 32.8588 198.421 35.9846C197.698 38.7782 197.82 41.7236 198.77 44.4482C199.721 47.1727 201.458 49.5542 203.761 51.2915C206.065 53.0287 208.831 54.0437 211.712 54.2082C214.592 54.3726 217.456 53.6791 219.942 52.2153C222.429 50.7515 224.425 48.5831 225.679 45.9844C226.934 43.3857 227.389 40.4733 226.989 37.6156C226.589 34.7578 225.35 32.0829 223.43 29.9292C221.51 27.7755 218.994 26.2396 216.202 25.5158C214.999 25.2037 213.761 25.0454 212.518 25.0447Z" fill="#4B0078"/>
<path d="M251.48 166.833C250.116 164.558 249.457 161.93 249.586 159.28C249.716 156.63 250.627 154.078 252.207 151.947C253.786 149.816 255.961 148.201 258.458 147.306C260.955 146.412 263.661 146.278 266.234 146.921C268.807 147.565 271.131 148.958 272.913 150.923C274.695 152.888 275.854 155.337 276.244 157.961C276.634 160.585 276.237 163.266 275.104 165.665C273.971 168.063 272.152 170.072 269.878 171.437C268.368 172.343 266.694 172.942 264.952 173.201C263.21 173.461 261.434 173.374 259.726 172.946C258.018 172.519 256.41 171.759 254.995 170.71C253.581 169.661 252.386 168.344 251.48 166.833Z" fill="#31004F"/>
<path d="M250.477 167.437C249.113 165.162 248.453 162.533 248.582 159.884C248.711 157.234 249.623 154.682 251.202 152.55C252.781 150.419 254.956 148.803 257.453 147.908C259.949 147.013 262.655 146.879 265.229 147.523C267.802 148.166 270.126 149.558 271.908 151.523C273.69 153.488 274.85 155.937 275.24 158.561C275.63 161.185 275.234 163.866 274.101 166.265C272.968 168.664 271.15 170.673 268.875 172.037C265.826 173.868 262.174 174.411 258.724 173.548C255.274 172.686 252.307 170.487 250.477 167.437Z" fill="#7000B4"/>
<rect x="253.592" y="163.767" width="11.9228" height="11.9228" rx="3" transform="rotate(-62.6814 253.592 163.767)" fill="#4B0078"/>
<path d="M260.354 157.76L258.566 161.222" stroke="#7000B4" stroke-width="1.2" stroke-linecap="round"/>
<path d="M258.566 161.223L262.028 163.012" stroke="#7000B4" stroke-width="1.2" stroke-linecap="round"/>
<path d="M261.382 159.772L264.845 161.56" stroke="#7000B4" stroke-width="1.2" stroke-linecap="round"/>
<path d="M264.847 161.56L263.058 165.023" stroke="#7000B4" stroke-width="1.2" stroke-linecap="round"/>
<path d="M262.078 172.891C259.965 172.894 257.887 172.349 256.047 171.31C254.208 170.27 252.669 168.771 251.581 166.959C250.191 164.644 249.606 161.934 249.918 159.252C250.229 156.57 251.419 154.066 253.302 152.131C255.185 150.197 257.656 148.94 260.328 148.557C263 148.174 265.724 148.687 268.074 150.015C270.425 151.343 272.27 153.412 273.321 155.899C274.372 158.387 274.571 161.152 273.887 163.764C273.202 166.376 271.672 168.687 269.536 170.338C267.4 171.989 264.777 172.887 262.078 172.891ZM252.205 166.575C253.374 168.524 255.095 170.082 257.149 171.053C259.203 172.024 261.499 172.363 263.747 172.029C265.994 171.695 268.092 170.701 269.774 169.174C271.457 167.647 272.65 165.656 273.201 163.451C273.752 161.246 273.638 158.928 272.872 156.788C272.105 154.649 270.722 152.784 268.897 151.431C267.072 150.078 264.886 149.296 262.617 149.185C260.347 149.075 258.096 149.639 256.148 150.808C253.537 152.378 251.656 154.92 250.917 157.876C250.178 160.832 250.641 163.96 252.205 166.575Z" fill="#4B0078"/>
<path d="M98.4163 153.81C98.4163 153.81 89.0667 147.214 82.0604 148.515C75.0541 149.815 67.459 158.825 67.459 158.825C67.459 158.825 81.448 160.373 86.6339 158.408C91.8197 156.444 98.4163 153.81 98.4163 153.81Z" fill="#4B0078"/>
<path d="M252.557 140.231C252.557 140.231 268.505 131.557 274.591 134.431C280.676 137.305 283.9 144.13 283.9 144.13C283.9 144.13 276.524 144.867 270.811 144.601C265.097 144.335 261.219 139.192 252.557 140.231Z" fill="#29AF85"/>
<path d="M277.99 73.6968C277.99 73.6968 288.647 68.42 293.43 69.6497C298.213 70.8793 303.043 73.6968 303.043 73.6968C303.043 73.6968 297.104 77.2727 291.327 77.0277C285.55 76.7827 277.99 73.6968 277.99 73.6968Z" fill="#4B0078"/>
<path d="M208.483 19.3662C208.483 19.3662 202.982 12.5347 204.903 7.5618C206.825 2.58891 208.483 0 208.483 0C208.483 0 213.521 5.71729 213.306 9.6843C213.092 13.6513 208.483 19.3662 208.483 19.3662Z" fill="#4B0078"/>
<path d="M231.06 31.3973C231.06 31.3973 229.772 22.8084 233.754 20.349C237.737 17.8896 244.131 17.8896 244.131 17.8896C244.131 17.8896 243.146 25.1452 240.443 26.7424C237.739 28.3396 232.247 29.2159 231.06 31.3973Z" fill="#29AF85"/>
<path d="M159.647 216.678C159.647 216.678 151.64 219.382 150.533 223.808C149.426 228.235 149.796 231.403 149.796 231.403C149.796 231.403 161.387 225.775 159.647 216.678Z" fill="#29AF85"/>
<path d="M162.089 216.678C162.089 216.678 164.562 219.505 164.616 221.474C164.67 223.443 163.354 225.154 163.354 225.154C163.354 225.154 160.436 222.807 162.089 216.678Z" fill="#29AF85"/>
<path d="M47.3223 144.904C47.3223 144.904 50.1484 145.062 51.585 145.929C51.585 145.917 49.4913 147.507 47.3223 144.904Z" fill="white"/>
<rect x="181.068" y="120.186" width="33.5619" height="33.5619" rx="5" transform="rotate(-25.0696 181.068 120.186)" fill="#4B0078"/>
<path d="M206.657 118.45L196.719 123.099" stroke="#7000B4" stroke-width="3.6" stroke-linecap="round"/>
<path d="M196.718 123.1L201.367 133.038" stroke="#7000B4" stroke-width="3.6" stroke-linecap="round"/>
<path d="M205.306 124.664L209.955 134.602" stroke="#7000B4" stroke-width="3.6" stroke-linecap="round"/>
<path d="M209.955 134.602L200.018 139.25" stroke="#7000B4" stroke-width="3.6" stroke-linecap="round"/>
<rect x="113.068" y="175.771" width="27.3338" height="27.3338" rx="5" transform="rotate(-49.315 113.068 175.771)" fill="#4B0078"/>
<path d="M131.338 165.957L125.513 172.733" stroke="#7000B4" stroke-width="3" stroke-linecap="round"/>
<path d="M125.514 172.733L132.29 178.558" stroke="#7000B4" stroke-width="3" stroke-linecap="round"/>
<path d="M132.561 170.991L139.337 176.816" stroke="#7000B4" stroke-width="3" stroke-linecap="round"/>
<path d="M139.336 176.817L133.511 183.592" stroke="#7000B4" stroke-width="3" stroke-linecap="round"/>
<rect x="185.568" y="244.059" width="35.037" height="35.037" rx="5" transform="rotate(-67.3606 185.568 244.059)" fill="#4B0078"/>
<path d="M203.937 224.845L199.528 235.416" stroke="#7000B4" stroke-width="4" stroke-linecap="round"/>
<path d="M199.53 235.416L210.101 239.825" stroke="#7000B4" stroke-width="4" stroke-linecap="round"/>
<path d="M207.432 230.491L218.003 234.9" stroke="#7000B4" stroke-width="4" stroke-linecap="round"/>
<path d="M218.004 234.901L213.595 245.472" stroke="#7000B4" stroke-width="4" stroke-linecap="round"/>
<rect x="133.463" y="100.615" width="14.8589" height="14.8589" rx="3" transform="rotate(-86.4549 133.463 100.615)" fill="#4B0078"/>
<path d="M138.154 90.3658L137.854 95.2139" stroke="#7000B4" stroke-width="1.6" stroke-linecap="round"/>
<path d="M137.853 95.2143L142.702 95.5147" stroke="#7000B4" stroke-width="1.6" stroke-linecap="round"/>
<path d="M140.342 92.145L145.19 92.4453" stroke="#7000B4" stroke-width="1.6" stroke-linecap="round"/>
<path d="M145.189 92.4458L144.889 97.294" stroke="#7000B4" stroke-width="1.6" stroke-linecap="round"/>
<rect x="202.953" y="36.0215" width="14.8589" height="14.8589" rx="3" transform="rotate(-24.9331 202.953 36.0215)" fill="#4B0078"/>
<path d="M214.203 35.2615L209.798 37.3092" stroke="#7000B4" stroke-width="1.7" stroke-linecap="round"/>
<path d="M209.797 37.3098L211.845 41.7145" stroke="#7000B4" stroke-width="1.7" stroke-linecap="round"/>
<path d="M213.678 38.0295L215.726 42.4342" stroke="#7000B4" stroke-width="1.7" stroke-linecap="round"/>
<path d="M215.726 42.4344L211.321 44.4821" stroke="#7000B4" stroke-width="1.7" stroke-linecap="round"/>
</svg>
