<svg width="41" height="41" viewBox="0 0 41 41" fill="none" xmlns="http://www.w3.org/2000/svg">
<path d="M15 6H38V40H15V6Z" fill="white"/>
<path d="M36.119 0H4.88095C2.18667 0 0 2.18667 0 4.88095V36.119C0 38.8133 2.18667 41 4.88095 41H36.119C38.8133 41 41 38.8133 41 36.119V4.88095C41 2.18667 38.8133 0 36.119 0ZM32.2143 14.6429H30.2619C28.1729 14.6429 27.3333 15.131 27.3333 16.5952V19.5238H32.2143L31.2381 24.4048H27.3333V39.0476H22.4524V24.4048H18.5476V19.5238H22.4524V16.5952C22.4524 12.6905 24.4048 9.7619 28.3095 9.7619C31.1405 9.7619 32.2143 10.7381 32.2143 10.7381V14.6429Z" fill="#252525"/>
</svg>
