<svg width="41" height="41" viewBox="0 0 41 41" fill="none" xmlns="http://www.w3.org/2000/svg">
<path d="M36.119 0H4.88095C2.18667 0 0 2.18667 0 4.88095V36.119C0 38.8133 2.18667 41 4.88095 41H36.119C38.8133 41 41 38.8133 41 36.119V4.88095C41 2.18667 38.8133 0 36.119 0ZM32.9171 28.3095L29.276 28.2998C29.276 28.2998 29.1979 28.3095 29.0709 28.3095C28.7781 28.3095 28.1729 28.2314 27.4602 27.7433C26.1814 26.855 24.9612 24.6488 23.9948 24.6488C23.9264 24.6488 23.8679 24.6586 23.8093 24.6781C22.9698 24.9417 22.716 25.7812 22.716 26.8062C22.716 27.1674 22.4621 27.3333 21.7788 27.3333H19.8948C17.7862 27.3333 15.746 27.2845 13.4519 24.7757C10.0743 21.076 6.91143 14.4964 6.91143 14.4964C6.91143 14.4964 6.73571 14.1157 6.92119 13.8912C7.0969 13.6862 7.50691 13.6667 7.6631 13.6667C7.70214 13.6667 7.72167 13.6667 7.72167 13.6667H11.6264C11.6264 13.6667 11.9876 13.735 12.2512 13.9302C12.4757 14.0962 12.5929 14.3988 12.5929 14.3988C12.5929 14.3988 13.2567 15.6874 14.0864 17.1419C15.4824 19.5433 16.234 20.3438 16.771 20.3438C16.8588 20.3438 16.9467 20.3243 17.0345 20.2755C17.835 19.8362 17.6007 16.2829 17.6007 16.2829C17.6007 16.2829 17.6105 14.9943 17.1907 14.4281C16.8686 13.979 16.2536 13.8521 15.9802 13.8131C15.7655 13.7838 16.1169 13.2762 16.5855 13.0419C17.1907 12.749 18.1962 12.6905 19.4067 12.6905H19.9924C21.1345 12.71 21.1638 12.8271 21.6129 12.9345C22.96 13.2567 22.5012 14.516 22.5012 17.5324C22.5012 18.4988 22.3255 19.8557 23.0186 20.3145C23.0674 20.3438 23.1357 20.3633 23.2236 20.3633C23.6726 20.3633 24.639 19.7874 26.1814 17.181C27.0405 15.6971 27.7043 14.2231 27.7043 14.2231C27.7043 14.2231 27.8507 13.9595 28.0752 13.8229C28.29 13.696 28.29 13.696 28.5731 13.696H28.6024C28.9148 13.696 32.019 13.6667 32.7024 13.6667H32.7805C33.4345 13.6667 34.03 13.6764 34.1374 14.0767C34.2936 14.6819 33.659 15.7655 31.9898 18.0107C29.2369 21.691 28.9245 21.4176 31.2088 23.5457C33.3955 25.5762 33.8445 26.5621 33.9226 26.689C34.8305 28.1924 32.9171 28.3095 32.9171 28.3095Z" fill="#252525"/>
<path d="M7.43236 7.01082H33.5676V33.5676H7.43236V7.01082Z" fill="white"/>
<path d="M12.9123 1.95238C6.8675 1.95238 1.95238 6.8675 1.95238 12.9123V28.0877C1.95238 34.1325 6.8675 39.0476 12.9123 39.0476H28.0877C34.1325 39.0476 39.0476 34.1325 39.0476 28.0877V12.9123C39.0476 6.8675 34.1325 1.95238 28.0877 1.95238H12.9123ZM30.6169 8.69697C31.5443 8.69697 32.303 9.45574 32.303 10.3831C32.303 11.3105 31.5443 12.0693 30.6169 12.0693C29.6895 12.0693 28.9307 11.3105 28.9307 10.3831C28.9307 9.45574 29.6895 8.69697 30.6169 8.69697ZM20.5 11.2262C25.6175 11.2262 29.7738 15.3825 29.7738 20.5C29.7738 25.6175 25.6175 29.7738 20.5 29.7738C15.3825 29.7738 11.2262 25.6175 11.2262 20.5C11.2262 15.3825 15.3825 11.2262 20.5 11.2262ZM20.5 12.9123C16.3184 12.9123 12.9123 16.3184 12.9123 20.5C12.9123 24.6816 16.3184 28.0877 20.5 28.0877C24.6816 28.0877 28.0877 24.6816 28.0877 20.5C28.0877 16.3184 24.6816 12.9123 20.5 12.9123Z" fill="#252525"/>
</svg>
