<svg width="17" height="18" viewBox="0 0 17 18" fill="none" xmlns="http://www.w3.org/2000/svg">
<path fill-rule="evenodd" clip-rule="evenodd" d="M7.62441 1.30569C7.93592 0.575185 8.99484 0.575185 9.30635 1.30569L10.9471 5.15385C11.0794 5.46439 11.3899 5.66667 11.7342 5.66667H16.0488C16.8422 5.66667 17.2395 6.60403 16.6785 7.15224L13.1888 10.5625C12.9699 10.7765 12.8869 11.0897 12.9719 11.3807L14.3558 16.1141C14.5895 16.9133 13.6776 17.5639 12.9698 17.1028L8.93839 14.4763C8.65196 14.2898 8.2788 14.2898 7.99237 14.4764L3.96767 17.0985C3.25768 17.561 2.34273 16.9083 2.57716 16.1066L3.95884 11.3807C4.04392 11.0897 3.96087 10.7765 3.7419 10.5625L0.269485 7.16909C-0.297848 6.61465 0.10396 5.66667 0.906298 5.66667H5.19658C5.54083 5.66667 5.85131 5.46439 5.98371 5.15385L7.62441 1.30569Z" fill="#2CF2B3"/>
</svg>
