<svg width="229" height="226" viewBox="0 0 229 226" fill="none" xmlns="http://www.w3.org/2000/svg">
<path d="M70.7263 102.8C77.8563 102.8 83.6363 97.0247 83.6363 89.9001C83.6363 82.7756 77.8563 77 70.7263 77C63.5964 77 57.8164 82.7756 57.8164 89.9001C57.8164 97.0247 63.5964 102.8 70.7263 102.8Z" fill="#302E2E"/>
<path d="M180.962 194.013V103.041C176.118 100.266 170.556 98.9964 164.986 99.3949C156.697 100.177 148.947 103.847 143.094 109.763C138.672 114.08 135.264 119.308 131.337 124.068C127.36 128.895 122.841 133.249 117.869 137.045C115.363 139.152 112.46 140.737 109.33 141.703C105.945 142.434 102.435 142.364 99.0809 141.501C91.6821 139.906 84.7774 136.614 77.5432 134.247C70.3091 131.879 62.5049 130.449 55.2707 132.626C46.4023 135.31 40.2451 142.754 35 150.603V194.013H180.962Z" fill="#302E2E"/>
<rect x="1.5" y="26.5" width="207" height="198" stroke="#2CF2B3" stroke-width="3" stroke-dasharray="7 7"/>
<circle cx="195.167" cy="29.0924" r="18.1827" fill="white"/>
<path fill-rule="evenodd" clip-rule="evenodd" d="M183.5 44.9995C175.216 36.7152 175.216 23.2838 183.5 14.9995C191.784 6.71531 205.216 6.71524 213.5 14.9995C221.784 23.2837 221.784 36.7153 213.5 44.9995C205.216 53.2838 191.784 53.2837 183.5 44.9995ZM189.5 27.8782C188.328 27.8782 187.379 28.8279 187.379 29.9995C187.379 31.1711 188.328 32.1208 189.5 32.1208L196.379 32.1208L196.379 38.9995C196.379 40.1711 197.328 41.1209 198.5 41.1208C199.672 41.1208 200.621 40.171 200.621 38.9995L200.621 32.1208L207.5 32.1208C208.671 32.1208 209.621 31.171 209.621 29.9995C209.621 28.828 208.671 27.8782 207.5 27.8782L200.621 27.8782L200.621 20.9995C200.621 19.828 199.672 18.8782 198.5 18.8782C197.328 18.8782 196.379 19.828 196.379 20.9995L196.379 27.8782L189.5 27.8782Z" fill="#302E2E"/>
</svg>
