<svg width="838" height="50" viewBox="0 0 838 50" fill="none" xmlns="http://www.w3.org/2000/svg">
<rect x="0.75" y="0.75" width="836.5" height="48.5" fill="white" stroke="#2CF2B3" stroke-width="1.5" stroke-dasharray="6 4"/>
<path d="M312.355 30.1016V32H303.03V30.1016H312.355ZM303.689 30.1016V35.1377H301.396L301.281 30.1016H303.689ZM314.157 30.1016L313.973 35.1465H311.731V30.1016H314.157ZM310.853 19.2031V21.1104H304.823V19.2031H310.853ZM312.637 19.2031V32H310.229V19.2031H312.637ZM304.437 19.2031H306.854L306.528 24.4062C306.481 25.2441 306.394 25.9912 306.265 26.6475C306.142 27.3037 305.989 27.8867 305.808 28.3965C305.626 28.9062 305.424 29.3545 305.201 29.7412C304.984 30.1221 304.753 30.4531 304.507 30.7344C304.267 31.0156 304.018 31.2588 303.76 31.4639C303.508 31.6631 303.259 31.8418 303.013 32H301.668V30.1016H302.248C302.418 29.9551 302.597 29.75 302.784 29.4863C302.978 29.2227 303.162 28.874 303.338 28.4404C303.52 28.0068 303.678 27.459 303.812 26.7969C303.947 26.1348 304.044 25.3379 304.103 24.4062L304.437 19.2031ZM325.82 25.2764V25.9355C325.82 26.9023 325.691 27.7725 325.434 28.5459C325.176 29.3135 324.81 29.9668 324.335 30.5059C323.86 31.0449 323.295 31.458 322.639 31.7451C321.982 32.0322 321.253 32.1758 320.45 32.1758C319.659 32.1758 318.933 32.0322 318.271 31.7451C317.614 31.458 317.046 31.0449 316.565 30.5059C316.085 29.9668 315.713 29.3135 315.449 28.5459C315.186 27.7725 315.054 26.9023 315.054 25.9355V25.2764C315.054 24.3037 315.186 23.4336 315.449 22.666C315.713 21.8984 316.082 21.2451 316.557 20.7061C317.031 20.1611 317.597 19.7451 318.253 19.458C318.915 19.1709 319.642 19.0273 320.433 19.0273C321.235 19.0273 321.965 19.1709 322.621 19.458C323.277 19.7451 323.843 20.1611 324.317 20.7061C324.798 21.2451 325.167 21.8984 325.425 22.666C325.688 23.4336 325.82 24.3037 325.82 25.2764ZM323.377 25.9355V25.2588C323.377 24.5615 323.312 23.9492 323.184 23.4219C323.055 22.8887 322.864 22.4404 322.612 22.0771C322.36 21.7139 322.05 21.4414 321.681 21.2598C321.312 21.0723 320.896 20.9785 320.433 20.9785C319.964 20.9785 319.548 21.0723 319.185 21.2598C318.827 21.4414 318.522 21.7139 318.271 22.0771C318.019 22.4404 317.825 22.8887 317.69 23.4219C317.562 23.9492 317.497 24.5615 317.497 25.2588V25.9355C317.497 26.627 317.562 27.2393 317.69 27.7725C317.825 28.3057 318.019 28.7568 318.271 29.126C318.528 29.4893 318.839 29.7646 319.202 29.9521C319.565 30.1396 319.981 30.2334 320.45 30.2334C320.919 30.2334 321.335 30.1396 321.698 29.9521C322.062 29.7646 322.366 29.4893 322.612 29.126C322.864 28.7568 323.055 28.3057 323.184 27.7725C323.312 27.2393 323.377 26.627 323.377 25.9355ZM336.104 19.2031V21.1104H330.25V32H327.842V19.2031H336.104ZM329.468 23.9932H332.57C333.561 23.9932 334.41 24.1602 335.119 24.4941C335.828 24.8223 336.37 25.2822 336.745 25.874C337.126 26.4658 337.316 27.1602 337.316 27.957C337.316 28.5547 337.208 29.0996 336.991 29.5918C336.78 30.084 336.47 30.5117 336.06 30.875C335.649 31.2324 335.151 31.5107 334.565 31.71C333.979 31.9033 333.314 32 332.57 32H327.842V19.2031H330.268V30.1016H332.57C333.098 30.1016 333.534 30.002 333.88 29.8027C334.226 29.6035 334.483 29.3398 334.653 29.0117C334.823 28.6836 334.908 28.3262 334.908 27.9395C334.908 27.5586 334.823 27.2129 334.653 26.9023C334.483 26.5918 334.226 26.3457 333.88 26.1641C333.534 25.9824 333.098 25.8916 332.57 25.8916H329.468V23.9932ZM344.26 21.1455L340.612 32H338.055L342.836 19.2031H344.471L344.26 21.1455ZM347.31 32L343.645 21.1455L343.425 19.2031H345.068L349.876 32H347.31ZM347.143 27.2451V29.1523H340.278V27.2451H347.143ZM356.099 26.2959H352.829L352.812 24.5908H355.615C356.096 24.5908 356.497 24.5234 356.819 24.3887C357.142 24.2539 357.385 24.0576 357.549 23.7998C357.719 23.542 357.804 23.2285 357.804 22.8594C357.804 22.4492 357.725 22.1152 357.566 21.8574C357.414 21.5996 357.174 21.4121 356.846 21.2949C356.518 21.1719 356.102 21.1104 355.598 21.1104H353.611V32H351.194V19.2031H355.598C356.324 19.2031 356.972 19.2734 357.54 19.4141C358.114 19.5488 358.601 19.7598 358.999 20.0469C359.397 20.334 359.699 20.6943 359.904 21.1279C360.115 21.5615 360.221 22.0771 360.221 22.6748C360.221 23.2021 360.098 23.6885 359.852 24.1338C359.611 24.5732 359.239 24.9307 358.735 25.2061C358.237 25.4814 357.604 25.6396 356.837 25.6807L356.099 26.2959ZM355.993 32H352.117L353.128 30.1016H355.993C356.474 30.1016 356.869 30.0225 357.18 29.8643C357.496 29.7061 357.73 29.4893 357.883 29.2139C358.041 28.9326 358.12 28.6104 358.12 28.2471C358.12 27.8486 358.05 27.5029 357.909 27.21C357.774 26.917 357.558 26.6914 357.259 26.5332C356.966 26.375 356.579 26.2959 356.099 26.2959H353.585L353.603 24.5908H356.802L357.355 25.25C358.094 25.2559 358.694 25.4023 359.157 25.6895C359.626 25.9766 359.972 26.3457 360.194 26.7969C360.417 27.248 360.528 27.7344 360.528 28.2559C360.528 29.0762 360.35 29.7646 359.992 30.3213C359.641 30.8779 359.125 31.2969 358.445 31.5781C357.771 31.8594 356.954 32 355.993 32ZM364.984 28.1328L370.39 19.2031H372.815V32H370.39V23.0703L364.984 32H362.567V19.2031H364.984V28.1328ZM380.506 19.2031V32H378.098V19.2031H380.506ZM384.479 19.2031V21.1104H374.169V19.2031H384.479ZM387.827 23.9932H390.93C391.92 23.9932 392.77 24.1602 393.479 24.4941C394.188 24.8223 394.729 25.2822 395.104 25.874C395.485 26.4658 395.676 27.1602 395.676 27.957C395.676 28.5547 395.567 29.0996 395.351 29.5918C395.14 30.084 394.829 30.5117 394.419 30.875C394.009 31.2324 393.511 31.5107 392.925 31.71C392.339 31.9033 391.674 32 390.93 32H386.201V19.2031H388.627V30.1016H390.93C391.457 30.1016 391.894 30.002 392.239 29.8027C392.585 29.6035 392.843 29.3398 393.013 29.0117C393.183 28.6836 393.268 28.3262 393.268 27.9395C393.268 27.5586 393.183 27.2129 393.013 26.9023C392.843 26.5918 392.585 26.3457 392.239 26.1641C391.894 25.9824 391.457 25.8916 390.93 25.8916H387.827V23.9932ZM410.45 24.4854V26.3838H403.718V24.4854H410.45ZM404.377 19.2031V32H401.96V19.2031H404.377ZM412.243 19.2031V32H409.826V19.2031H412.243ZM425.066 25.2764V25.9355C425.066 26.9023 424.938 27.7725 424.68 28.5459C424.422 29.3135 424.056 29.9668 423.581 30.5059C423.106 31.0449 422.541 31.458 421.885 31.7451C421.229 32.0322 420.499 32.1758 419.696 32.1758C418.905 32.1758 418.179 32.0322 417.517 31.7451C416.86 31.458 416.292 31.0449 415.812 30.5059C415.331 29.9668 414.959 29.3135 414.695 28.5459C414.432 27.7725 414.3 26.9023 414.3 25.9355V25.2764C414.3 24.3037 414.432 23.4336 414.695 22.666C414.959 21.8984 415.328 21.2451 415.803 20.7061C416.277 20.1611 416.843 19.7451 417.499 19.458C418.161 19.1709 418.888 19.0273 419.679 19.0273C420.481 19.0273 421.211 19.1709 421.867 19.458C422.523 19.7451 423.089 20.1611 423.563 20.7061C424.044 21.2451 424.413 21.8984 424.671 22.666C424.935 23.4336 425.066 24.3037 425.066 25.2764ZM422.623 25.9355V25.2588C422.623 24.5615 422.559 23.9492 422.43 23.4219C422.301 22.8887 422.11 22.4404 421.858 22.0771C421.606 21.7139 421.296 21.4414 420.927 21.2598C420.558 21.0723 420.142 20.9785 419.679 20.9785C419.21 20.9785 418.794 21.0723 418.431 21.2598C418.073 21.4414 417.769 21.7139 417.517 22.0771C417.265 22.4404 417.071 22.8887 416.937 23.4219C416.808 23.9492 416.743 24.5615 416.743 25.2588V25.9355C416.743 26.627 416.808 27.2393 416.937 27.7725C417.071 28.3057 417.265 28.7568 417.517 29.126C417.774 29.4893 418.085 29.7646 418.448 29.9521C418.812 30.1396 419.228 30.2334 419.696 30.2334C420.165 30.2334 420.581 30.1396 420.944 29.9521C421.308 29.7646 421.612 29.4893 421.858 29.126C422.11 28.7568 422.301 28.3057 422.43 27.7725C422.559 27.2393 422.623 26.627 422.623 25.9355ZM432.019 26.2959H428.749L428.731 24.5908H431.535C432.016 24.5908 432.417 24.5234 432.739 24.3887C433.062 24.2539 433.305 24.0576 433.469 23.7998C433.639 23.542 433.724 23.2285 433.724 22.8594C433.724 22.4492 433.645 22.1152 433.486 21.8574C433.334 21.5996 433.094 21.4121 432.766 21.2949C432.438 21.1719 432.021 21.1104 431.518 21.1104H429.531V32H427.114V19.2031H431.518C432.244 19.2031 432.892 19.2734 433.46 19.4141C434.034 19.5488 434.521 19.7598 434.919 20.0469C435.317 20.334 435.619 20.6943 435.824 21.1279C436.035 21.5615 436.141 22.0771 436.141 22.6748C436.141 23.2021 436.018 23.6885 435.771 24.1338C435.531 24.5732 435.159 24.9307 434.655 25.2061C434.157 25.4814 433.524 25.6396 432.757 25.6807L432.019 26.2959ZM431.913 32H428.037L429.048 30.1016H431.913C432.394 30.1016 432.789 30.0225 433.1 29.8643C433.416 29.7061 433.65 29.4893 433.803 29.2139C433.961 28.9326 434.04 28.6104 434.04 28.2471C434.04 27.8486 433.97 27.5029 433.829 27.21C433.694 26.917 433.478 26.6914 433.179 26.5332C432.886 26.375 432.499 26.2959 432.019 26.2959H429.505L429.522 24.5908H432.722L433.275 25.25C434.014 25.2559 434.614 25.4023 435.077 25.6895C435.546 25.9766 435.892 26.3457 436.114 26.7969C436.337 27.248 436.448 27.7344 436.448 28.2559C436.448 29.0762 436.27 29.7646 435.912 30.3213C435.561 30.8779 435.045 31.2969 434.365 31.5781C433.691 31.8594 432.874 32 431.913 32ZM440.192 23.9932H443.295C444.285 23.9932 445.135 24.1602 445.844 24.4941C446.553 24.8223 447.095 25.2822 447.47 25.874C447.851 26.4658 448.041 27.1602 448.041 27.957C448.041 28.5547 447.933 29.0996 447.716 29.5918C447.505 30.084 447.194 30.5117 446.784 30.875C446.374 31.2324 445.876 31.5107 445.29 31.71C444.704 31.9033 444.039 32 443.295 32H438.566V19.2031H441.001V30.1016H443.295C443.822 30.1016 444.259 30.002 444.604 29.8027C444.95 29.6035 445.208 29.3398 445.378 29.0117C445.548 28.6836 445.633 28.3262 445.633 27.9395C445.633 27.5586 445.548 27.2129 445.378 26.9023C445.208 26.5918 444.95 26.3457 444.604 26.1641C444.259 25.9824 443.822 25.8916 443.295 25.8916H440.192V23.9932ZM451.688 19.2031V32H449.271V19.2031H451.688ZM456.531 28.1328L461.937 19.2031H464.362V32H461.937V23.0703L456.531 32H454.114V19.2031H456.531V28.1328ZM460.53 15.8896H462.218C462.218 16.3818 462.098 16.8184 461.857 17.1992C461.617 17.5801 461.274 17.8789 460.829 18.0957C460.39 18.3066 459.868 18.4121 459.265 18.4121C458.356 18.4121 457.636 18.1777 457.103 17.709C456.569 17.2402 456.303 16.6338 456.303 15.8896H457.99C457.99 16.2002 458.087 16.4785 458.28 16.7246C458.474 16.9707 458.802 17.0938 459.265 17.0938C459.728 17.0938 460.053 16.9707 460.24 16.7246C460.434 16.4785 460.53 16.2002 460.53 15.8896ZM476.359 19.2031V32H473.951V19.2031H476.359ZM480.332 19.2031V21.1104H470.022V19.2031H480.332ZM492.057 25.2764V25.9355C492.057 26.9023 491.928 27.7725 491.67 28.5459C491.412 29.3135 491.046 29.9668 490.571 30.5059C490.097 31.0449 489.531 31.458 488.875 31.7451C488.219 32.0322 487.489 32.1758 486.687 32.1758C485.896 32.1758 485.169 32.0322 484.507 31.7451C483.851 31.458 483.282 31.0449 482.802 30.5059C482.321 29.9668 481.949 29.3135 481.686 28.5459C481.422 27.7725 481.29 26.9023 481.29 25.9355V25.2764C481.29 24.3037 481.422 23.4336 481.686 22.666C481.949 21.8984 482.318 21.2451 482.793 20.7061C483.268 20.1611 483.833 19.7451 484.489 19.458C485.151 19.1709 485.878 19.0273 486.669 19.0273C487.472 19.0273 488.201 19.1709 488.857 19.458C489.514 19.7451 490.079 20.1611 490.554 20.7061C491.034 21.2451 491.403 21.8984 491.661 22.666C491.925 23.4336 492.057 24.3037 492.057 25.2764ZM489.613 25.9355V25.2588C489.613 24.5615 489.549 23.9492 489.42 23.4219C489.291 22.8887 489.101 22.4404 488.849 22.0771C488.597 21.7139 488.286 21.4414 487.917 21.2598C487.548 21.0723 487.132 20.9785 486.669 20.9785C486.2 20.9785 485.784 21.0723 485.421 21.2598C485.063 21.4414 484.759 21.7139 484.507 22.0771C484.255 22.4404 484.062 22.8887 483.927 23.4219C483.798 23.9492 483.733 24.5615 483.733 25.2588V25.9355C483.733 26.627 483.798 27.2393 483.927 27.7725C484.062 28.3057 484.255 28.7568 484.507 29.126C484.765 29.4893 485.075 29.7646 485.438 29.9521C485.802 30.1396 486.218 30.2334 486.687 30.2334C487.155 30.2334 487.571 30.1396 487.935 29.9521C488.298 29.7646 488.603 29.4893 488.849 29.126C489.101 28.7568 489.291 28.3057 489.42 27.7725C489.549 27.2393 489.613 26.627 489.613 25.9355ZM499.009 26.2959H495.739L495.722 24.5908H498.525C499.006 24.5908 499.407 24.5234 499.729 24.3887C500.052 24.2539 500.295 24.0576 500.459 23.7998C500.629 23.542 500.714 23.2285 500.714 22.8594C500.714 22.4492 500.635 22.1152 500.477 21.8574C500.324 21.5996 500.084 21.4121 499.756 21.2949C499.428 21.1719 499.012 21.1104 498.508 21.1104H496.521V32H494.104V19.2031H498.508C499.234 19.2031 499.882 19.2734 500.45 19.4141C501.024 19.5488 501.511 19.7598 501.909 20.0469C502.308 20.334 502.609 20.6943 502.814 21.1279C503.025 21.5615 503.131 22.0771 503.131 22.6748C503.131 23.2021 503.008 23.6885 502.762 24.1338C502.521 24.5732 502.149 24.9307 501.646 25.2061C501.147 25.4814 500.515 25.6396 499.747 25.6807L499.009 26.2959ZM498.903 32H495.027L496.038 30.1016H498.903C499.384 30.1016 499.779 30.0225 500.09 29.8643C500.406 29.7061 500.641 29.4893 500.793 29.2139C500.951 28.9326 501.03 28.6104 501.03 28.2471C501.03 27.8486 500.96 27.5029 500.819 27.21C500.685 26.917 500.468 26.6914 500.169 26.5332C499.876 26.375 499.489 26.2959 499.009 26.2959H496.495L496.513 24.5908H499.712L500.266 25.25C501.004 25.2559 501.604 25.4023 502.067 25.6895C502.536 25.9766 502.882 26.3457 503.104 26.7969C503.327 27.248 503.438 27.7344 503.438 28.2559C503.438 29.0762 503.26 29.7646 502.902 30.3213C502.551 30.8779 502.035 31.2969 501.355 31.5781C500.682 31.8594 499.864 32 498.903 32ZM510.619 21.1455L506.972 32H504.414L509.195 19.2031H510.83L510.619 21.1455ZM513.669 32L510.004 21.1455L509.784 19.2031H511.428L516.235 32H513.669ZM513.502 27.2451V29.1523H506.638V27.2451H513.502ZM522.476 27.333H519.18V25.4346H522.476C523.015 25.4346 523.451 25.3467 523.785 25.1709C524.125 24.9893 524.374 24.7432 524.532 24.4326C524.69 24.1162 524.77 23.7559 524.77 23.3516C524.77 22.959 524.69 22.5928 524.532 22.2529C524.374 21.9131 524.125 21.6377 523.785 21.4268C523.451 21.2158 523.015 21.1104 522.476 21.1104H519.971V32H517.554V19.2031H522.476C523.472 19.2031 524.321 19.3818 525.024 19.7393C525.733 20.0908 526.272 20.5801 526.642 21.207C527.017 21.8281 527.204 22.5371 527.204 23.334C527.204 24.1602 527.017 24.8721 526.642 25.4697C526.272 26.0674 525.733 26.5273 525.024 26.8496C524.321 27.1719 523.472 27.333 522.476 27.333Z" fill="#302E2E"/>
<path d="M291.349 22.3452C293.697 24.6927 293.697 28.4987 291.349 30.8462C289.002 33.1937 285.196 33.1937 282.848 30.8462C280.501 28.4987 280.501 24.6927 282.848 22.3452C285.196 19.9977 289.002 19.9977 291.349 22.3452Z" stroke="#302E2E" stroke-width="1.7"/>
<path d="M284.266 26.5957H289.933" stroke="#302E2E" stroke-width="1.7" stroke-linecap="round" stroke-linejoin="round"/>
<path d="M287.099 23.762V29.4294" stroke="#302E2E" stroke-width="1.7" stroke-linecap="round" stroke-linejoin="round"/>
</svg>
