<svg width="30" height="30" viewBox="0 0 30 30" fill="none" xmlns="http://www.w3.org/2000/svg">
<rect width="30" height="30" rx="15" fill="#EEEEEE"/>
<path d="M9.4931 21.022C9.36232 21.022 9.2369 20.9692 9.14443 20.8753C9.05195 20.7813 9 20.6539 9 20.5211C9 20.5211 9 20.481 9 20.461L9.37969 16.955C9.3932 16.843 9.44359 16.7388 9.52269 16.6595L17.5898 8.47056C17.7364 8.3214 17.9105 8.20305 18.1021 8.12231C18.2938 8.04156 18.4992 8 18.7067 8C18.9142 8 19.1196 8.04156 19.3113 8.12231C19.5029 8.20305 19.677 8.3214 19.8236 8.47056L21.3571 10.0282C21.504 10.1771 21.6205 10.3539 21.7 10.5486C21.7795 10.7432 21.8204 10.9519 21.8204 11.1627C21.8204 11.3734 21.7795 11.5821 21.7 11.7767C21.6205 11.9714 21.504 12.1482 21.3571 12.2971L13.2949 20.486C13.2168 20.5664 13.1143 20.6176 13.004 20.6313L9.55227 21.017L9.4931 21.022ZM10.3462 17.2405L10.0503 19.9551L12.7229 19.6546L20.6618 11.5909C20.717 11.535 20.7608 11.4687 20.7906 11.3956C20.8205 11.3226 20.8359 11.2443 20.8359 11.1652C20.8359 11.0861 20.8205 11.0077 20.7906 10.9347C20.7608 10.8616 20.717 10.7953 20.6618 10.7394L19.1234 9.17677C19.0684 9.12073 19.0031 9.07628 18.9311 9.04594C18.8592 9.01561 18.7821 8.99999 18.7042 8.99999C18.6263 8.99999 18.5492 9.01561 18.4773 9.04594C18.4054 9.07628 18.3401 9.12073 18.2851 9.17677L10.3462 17.2405Z" fill="#3A3A3A"/>
<path d="M19.8502 13.6138C19.7853 13.6142 19.721 13.6016 19.6609 13.5766C19.6009 13.5517 19.5462 13.515 19.5001 13.4686L16.438 10.3483C16.392 10.3016 16.3555 10.2461 16.3307 10.1851C16.3058 10.1241 16.293 10.0587 16.293 9.99265C16.293 9.92661 16.3058 9.86121 16.3307 9.8002C16.3555 9.73918 16.392 9.68374 16.438 9.63704C16.484 9.59034 16.5385 9.5533 16.5986 9.52803C16.6587 9.50275 16.7231 9.48975 16.7881 9.48975C16.8531 9.48975 16.9175 9.50275 16.9776 9.52803C17.0376 9.5533 17.0922 9.59034 17.1382 9.63704L20.2102 12.7574C20.302 12.8512 20.3536 12.9781 20.3536 13.1105C20.3536 13.2428 20.302 13.3697 20.2102 13.4636C20.1634 13.5121 20.1073 13.5505 20.0454 13.5763C19.9836 13.6021 19.9171 13.6149 19.8502 13.6138Z" fill="#3A3A3A"/>
<path d="M16.4288 12.7589L12.5898 16.6582L13.2872 17.3665L17.1261 13.4672L16.4288 12.7589Z" fill="#3A3A3A"/>
<path d="M23.3007 21.0227H15.4111C15.2803 21.0227 15.1549 20.9699 15.0624 20.876C14.9699 20.7821 14.918 20.6547 14.918 20.5219C14.918 20.389 14.9699 20.2616 15.0624 20.1677C15.1549 20.0738 15.2803 20.021 15.4111 20.021H23.3007C23.4315 20.021 23.5569 20.0738 23.6494 20.1677C23.7418 20.2616 23.7938 20.389 23.7938 20.5219C23.7938 20.6547 23.7418 20.7821 23.6494 20.876C23.5569 20.9699 23.4315 21.0227 23.3007 21.0227Z" fill="#3A3A3A"/>
</svg>
