<svg width="30" height="30" viewBox="0 0 30 30" fill="none" xmlns="http://www.w3.org/2000/svg">
<rect width="30" height="30" rx="15" fill="white"/>
<path d="M18.9529 18.7777C17.9485 19.5432 16.7256 19.9673 15.4629 19.988C11.3501 19.988 9 15.2877 9 15.2877C9.73083 13.9257 10.7445 12.7358 11.9729 11.7977L18.9529 18.7777ZM14.2291 10.7284C14.6335 10.6338 15.0475 10.5864 15.4629 10.5874C19.5756 10.5874 21.9258 15.2877 21.9258 15.2877C21.5691 15.9549 21.1438 16.5831 20.6567 17.1619L14.2291 10.7284ZM16.7085 16.5333C16.5471 16.7065 16.3525 16.8453 16.1363 16.9417C15.9201 17.038 15.6867 17.0898 15.45 17.094C15.2134 17.0982 14.9783 17.0546 14.7588 16.966C14.5393 16.8773 14.3399 16.7454 14.1726 16.578C14.0052 16.4106 13.8733 16.2113 13.7846 15.9918C13.696 15.7723 13.6524 15.5372 13.6566 15.3006C13.6608 15.0639 13.7126 14.8305 13.8089 14.6143C13.9052 14.3981 14.0441 14.2035 14.2173 14.0421" fill="white"/>
<path d="M16.7085 16.5333C16.5471 16.7065 16.3525 16.8453 16.1363 16.9417C15.9201 17.038 15.6867 17.0898 15.45 17.094C15.2134 17.0982 14.9783 17.0546 14.7588 16.966C14.5393 16.8773 14.3399 16.7454 14.1726 16.578C14.0052 16.4106 13.8733 16.2113 13.7846 15.9918C13.696 15.7723 13.6524 15.5372 13.6566 15.3006C13.6608 15.0639 13.7126 14.8305 13.8089 14.6143C13.9052 14.3981 14.0441 14.2035 14.2173 14.0421M18.9529 18.7777C17.9485 19.5432 16.7256 19.9673 15.4629 19.988C11.3501 19.988 9 15.2877 9 15.2877C9.73083 13.9257 10.7445 12.7358 11.9729 11.7977L18.9529 18.7777ZM14.2291 10.7284C14.6335 10.6338 15.0475 10.5864 15.4629 10.5874C19.5756 10.5874 21.9258 15.2877 21.9258 15.2877C21.5691 15.9549 21.1438 16.5831 20.6567 17.1619L14.2291 10.7284Z" stroke="#3A3A3A" stroke-linecap="round" stroke-linejoin="round"/>
<path d="M10.1797 10L19.874 19.6943" stroke="#3A3A3A" stroke-linecap="round" stroke-linejoin="round"/>
</svg>
