<svg width="210" height="201" viewBox="0 0 210 201" fill="none" xmlns="http://www.w3.org/2000/svg">
<rect width="210" height="201" fill="black" fill-opacity="0.79"/>
<path d="M47.168 169.043L51.3691 162.469H52.5V171H51.3691V164.42L47.168 171H46.043V162.469H47.168V169.043ZM56.7598 167.971H55.5938V167.303H56.6719C56.9727 167.303 57.2109 167.266 57.3867 167.191C57.5625 167.113 57.6875 167.006 57.7617 166.869C57.8359 166.732 57.873 166.572 57.873 166.389C57.873 166.225 57.8301 166.07 57.7441 165.926C57.6621 165.777 57.5293 165.658 57.3457 165.568C57.1621 165.475 56.916 165.428 56.6074 165.428C56.3574 165.428 56.1309 165.473 55.9277 165.562C55.7246 165.648 55.5625 165.768 55.4414 165.92C55.3242 166.068 55.2656 166.236 55.2656 166.424H54.1816C54.1816 166.037 54.291 165.705 54.5098 165.428C54.7324 165.146 55.0273 164.93 55.3945 164.777C55.7656 164.625 56.1699 164.549 56.6074 164.549C56.9746 164.549 57.3027 164.59 57.5918 164.672C57.8848 164.75 58.1328 164.867 58.3359 165.023C58.5391 165.176 58.6934 165.367 58.7988 165.598C58.9082 165.824 58.9629 166.088 58.9629 166.389C58.9629 166.604 58.9121 166.807 58.8105 166.998C58.709 167.189 58.5625 167.359 58.3711 167.508C58.1797 167.652 57.9473 167.766 57.6738 167.848C57.4043 167.93 57.0996 167.971 56.7598 167.971ZM55.5938 167.561H56.7598C57.1387 167.561 57.4727 167.598 57.7617 167.672C58.0508 167.742 58.293 167.848 58.4883 167.988C58.6836 168.129 58.8301 168.303 58.9277 168.51C59.0293 168.713 59.0801 168.947 59.0801 169.213C59.0801 169.51 59.0195 169.777 58.8984 170.016C58.7812 170.25 58.6133 170.449 58.3945 170.613C58.1758 170.777 57.9141 170.902 57.6094 170.988C57.3086 171.074 56.9746 171.117 56.6074 171.117C56.1973 171.117 55.7988 171.047 55.4121 170.906C55.0254 170.766 54.707 170.549 54.457 170.256C54.207 169.959 54.082 169.582 54.082 169.125H55.166C55.166 169.316 55.2266 169.498 55.3477 169.67C55.4688 169.842 55.6367 169.98 55.8516 170.086C56.0703 170.191 56.3223 170.244 56.6074 170.244C56.9121 170.244 57.166 170.197 57.3691 170.104C57.5723 170.01 57.7246 169.885 57.8262 169.729C57.9316 169.572 57.9844 169.402 57.9844 169.219C57.9844 168.98 57.9375 168.789 57.8438 168.645C57.75 168.5 57.6055 168.395 57.4102 168.328C57.2188 168.258 56.9727 168.223 56.6719 168.223H55.5938V167.561ZM64.1309 169.559L66.2871 164.66H67.3301L64.5059 171H63.7559L60.9434 164.66H61.9863L64.1309 169.559ZM61.6699 164.66V171H60.5859V164.66H61.6699ZM66.5566 171V164.66H67.6465V171H66.5566ZM72.0234 171.117C71.582 171.117 71.1816 171.043 70.8223 170.895C70.4668 170.742 70.1602 170.529 69.9023 170.256C69.6484 169.982 69.4531 169.658 69.3164 169.283C69.1797 168.908 69.1113 168.498 69.1113 168.053V167.807C69.1113 167.291 69.1875 166.832 69.3398 166.43C69.4922 166.023 69.6992 165.68 69.9609 165.398C70.2227 165.117 70.5195 164.904 70.8516 164.76C71.1836 164.615 71.5273 164.543 71.8828 164.543C72.3359 164.543 72.7266 164.621 73.0547 164.777C73.3867 164.934 73.6582 165.152 73.8691 165.434C74.0801 165.711 74.2363 166.039 74.3379 166.418C74.4395 166.793 74.4902 167.203 74.4902 167.648V168.135H69.7559V167.25H73.4062V167.168C73.3906 166.887 73.332 166.613 73.2305 166.348C73.1328 166.082 72.9766 165.863 72.7617 165.691C72.5469 165.52 72.2539 165.434 71.8828 165.434C71.6367 165.434 71.4102 165.486 71.2031 165.592C70.9961 165.693 70.8184 165.846 70.6699 166.049C70.5215 166.252 70.4062 166.5 70.3242 166.793C70.2422 167.086 70.2012 167.424 70.2012 167.807V168.053C70.2012 168.354 70.2422 168.637 70.3242 168.902C70.4102 169.164 70.5332 169.395 70.6934 169.594C70.8574 169.793 71.0547 169.949 71.2852 170.062C71.5195 170.176 71.7852 170.232 72.082 170.232C72.4648 170.232 72.7891 170.154 73.0547 169.998C73.3203 169.842 73.5527 169.633 73.752 169.371L74.4082 169.893C74.2715 170.1 74.0977 170.297 73.8867 170.484C73.6758 170.672 73.416 170.824 73.1074 170.941C72.8027 171.059 72.4414 171.117 72.0234 171.117ZM80.0566 167.408V168.287H76.7051V167.408H80.0566ZM76.9336 164.66V171H75.8496V164.66H76.9336ZM80.9355 164.66V171H79.8457V164.66H80.9355ZM83.8535 169.283L86.7773 164.66H87.8672V171H86.7773V166.377L83.8535 171H82.7754V164.66H83.8535V169.283ZM92.1914 164.66V171H91.1016V164.66H92.1914ZM94.3184 164.66V165.539H89.0156V164.66H94.3184ZM96.2754 166.84H98.1797C98.6914 166.84 99.123 166.93 99.4746 167.109C99.8262 167.285 100.092 167.529 100.271 167.842C100.455 168.15 100.547 168.502 100.547 168.896C100.547 169.189 100.496 169.465 100.395 169.723C100.293 169.977 100.141 170.199 99.9375 170.391C99.7383 170.582 99.4902 170.732 99.1934 170.842C98.9004 170.947 98.5625 171 98.1797 171H95.4844V164.66H96.5684V170.109H98.1797C98.4922 170.109 98.7422 170.053 98.9297 169.939C99.1172 169.826 99.252 169.68 99.334 169.5C99.416 169.32 99.457 169.133 99.457 168.938C99.457 168.746 99.416 168.559 99.334 168.375C99.252 168.191 99.1172 168.039 98.9297 167.918C98.7422 167.793 98.4922 167.73 98.1797 167.73H96.2754V166.84ZM108.521 169.559L110.678 164.66H111.721L108.896 171H108.146L105.334 164.66H106.377L108.521 169.559ZM106.061 164.66V171H104.977V164.66H106.061ZM110.947 171V164.66H112.037V171H110.947ZM114.955 169.283L117.879 164.66H118.969V171H117.879V166.377L114.955 171H113.877V164.66H114.955V169.283ZM125.01 167.408V168.287H121.658V167.408H125.01ZM121.887 164.66V171H120.803V164.66H121.887ZM125.889 164.66V171H124.799V164.66H125.889ZM128.807 169.283L131.73 164.66H132.82V171H131.73V166.377L128.807 171H127.729V164.66H128.807V169.283ZM138.299 169.916V166.652C138.299 166.402 138.248 166.186 138.146 166.002C138.049 165.814 137.9 165.67 137.701 165.568C137.502 165.467 137.256 165.416 136.963 165.416C136.689 165.416 136.449 165.463 136.242 165.557C136.039 165.65 135.879 165.773 135.762 165.926C135.648 166.078 135.592 166.242 135.592 166.418H134.508C134.508 166.191 134.566 165.967 134.684 165.744C134.801 165.521 134.969 165.32 135.188 165.141C135.41 164.957 135.676 164.812 135.984 164.707C136.297 164.598 136.645 164.543 137.027 164.543C137.488 164.543 137.895 164.621 138.246 164.777C138.602 164.934 138.879 165.17 139.078 165.486C139.281 165.799 139.383 166.191 139.383 166.664V169.617C139.383 169.828 139.4 170.053 139.436 170.291C139.475 170.529 139.531 170.734 139.605 170.906V171H138.475C138.42 170.875 138.377 170.709 138.346 170.502C138.314 170.291 138.299 170.096 138.299 169.916ZM138.486 167.156L138.498 167.918H137.402C137.094 167.918 136.818 167.943 136.576 167.994C136.334 168.041 136.131 168.113 135.967 168.211C135.803 168.309 135.678 168.432 135.592 168.58C135.506 168.725 135.463 168.895 135.463 169.09C135.463 169.289 135.508 169.471 135.598 169.635C135.688 169.799 135.822 169.93 136.002 170.027C136.186 170.121 136.41 170.168 136.676 170.168C137.008 170.168 137.301 170.098 137.555 169.957C137.809 169.816 138.01 169.645 138.158 169.441C138.311 169.238 138.393 169.041 138.404 168.85L138.867 169.371C138.84 169.535 138.766 169.717 138.645 169.916C138.523 170.115 138.361 170.307 138.158 170.49C137.959 170.67 137.721 170.82 137.443 170.941C137.17 171.059 136.861 171.117 136.518 171.117C136.088 171.117 135.711 171.033 135.387 170.865C135.066 170.697 134.816 170.473 134.637 170.191C134.461 169.906 134.373 169.588 134.373 169.236C134.373 168.896 134.439 168.598 134.572 168.34C134.705 168.078 134.896 167.861 135.146 167.689C135.396 167.514 135.697 167.381 136.049 167.291C136.4 167.201 136.793 167.156 137.227 167.156H138.486ZM143.578 164.66V171H142.488V164.66H143.578ZM145.705 164.66V165.539H140.402V164.66H145.705ZM150.381 167.35V168.234H147.012V167.35H150.381ZM147.955 164.66V171H146.871V164.66H147.955ZM149.455 167.9V167.766C149.455 167.309 149.521 166.885 149.654 166.494C149.787 166.1 149.979 165.758 150.229 165.469C150.482 165.176 150.785 164.949 151.137 164.789C151.492 164.625 151.891 164.543 152.332 164.543C152.781 164.543 153.184 164.625 153.539 164.789C153.895 164.949 154.197 165.176 154.447 165.469C154.701 165.758 154.895 166.1 155.027 166.494C155.16 166.885 155.227 167.309 155.227 167.766V167.9C155.227 168.357 155.16 168.781 155.027 169.172C154.895 169.562 154.703 169.904 154.453 170.197C154.203 170.486 153.9 170.713 153.545 170.877C153.189 171.037 152.789 171.117 152.344 171.117C151.898 171.117 151.498 171.037 151.143 170.877C150.787 170.713 150.482 170.486 150.229 170.197C149.979 169.904 149.787 169.562 149.654 169.172C149.521 168.781 149.455 168.357 149.455 167.9ZM150.545 167.766V167.9C150.545 168.217 150.582 168.516 150.656 168.797C150.73 169.074 150.842 169.32 150.99 169.535C151.143 169.75 151.33 169.92 151.553 170.045C151.779 170.166 152.043 170.227 152.344 170.227C152.645 170.227 152.906 170.166 153.129 170.045C153.355 169.92 153.543 169.75 153.691 169.535C153.84 169.32 153.951 169.074 154.025 168.797C154.104 168.516 154.143 168.217 154.143 167.9V167.766C154.143 167.453 154.104 167.158 154.025 166.881C153.951 166.6 153.838 166.352 153.686 166.137C153.537 165.918 153.35 165.746 153.123 165.621C152.896 165.496 152.633 165.434 152.332 165.434C152.035 165.434 151.775 165.496 151.553 165.621C151.33 165.746 151.143 165.918 150.99 166.137C150.842 166.352 150.73 166.6 150.656 166.881C150.582 167.158 150.545 167.453 150.545 167.766ZM157.652 165.879V173.438H156.562V164.66H157.559L157.652 165.879ZM161.924 167.777V167.9C161.924 168.361 161.869 168.789 161.76 169.184C161.65 169.574 161.49 169.914 161.279 170.203C161.072 170.492 160.816 170.717 160.512 170.877C160.207 171.037 159.857 171.117 159.463 171.117C159.061 171.117 158.705 171.051 158.396 170.918C158.088 170.785 157.826 170.592 157.611 170.338C157.396 170.084 157.225 169.779 157.096 169.424C156.971 169.068 156.885 168.668 156.838 168.223V167.566C156.885 167.098 156.973 166.678 157.102 166.307C157.23 165.936 157.4 165.619 157.611 165.357C157.826 165.092 158.086 164.891 158.391 164.754C158.695 164.613 159.047 164.543 159.445 164.543C159.844 164.543 160.197 164.621 160.506 164.777C160.814 164.93 161.074 165.148 161.285 165.434C161.496 165.719 161.654 166.061 161.76 166.459C161.869 166.854 161.924 167.293 161.924 167.777ZM160.834 167.9V167.777C160.834 167.461 160.801 167.164 160.734 166.887C160.668 166.605 160.564 166.359 160.424 166.148C160.287 165.934 160.111 165.766 159.896 165.645C159.682 165.52 159.426 165.457 159.129 165.457C158.855 165.457 158.617 165.504 158.414 165.598C158.215 165.691 158.045 165.818 157.904 165.979C157.764 166.135 157.648 166.314 157.559 166.518C157.473 166.717 157.408 166.924 157.365 167.139V168.656C157.443 168.93 157.553 169.188 157.693 169.43C157.834 169.668 158.021 169.861 158.256 170.01C158.49 170.154 158.785 170.227 159.141 170.227C159.434 170.227 159.686 170.166 159.896 170.045C160.111 169.92 160.287 169.75 160.424 169.535C160.564 169.32 160.668 169.074 160.734 168.797C160.801 168.516 160.834 168.217 160.834 167.9ZM165.018 170.344L166.781 164.66H167.941L165.398 171.979C165.34 172.135 165.262 172.303 165.164 172.482C165.07 172.666 164.949 172.84 164.801 173.004C164.652 173.168 164.473 173.301 164.262 173.402C164.055 173.508 163.807 173.561 163.518 173.561C163.432 173.561 163.322 173.549 163.189 173.525C163.057 173.502 162.963 173.482 162.908 173.467L162.902 172.588C162.934 172.592 162.982 172.596 163.049 172.6C163.119 172.607 163.168 172.611 163.195 172.611C163.441 172.611 163.65 172.578 163.822 172.512C163.994 172.449 164.139 172.342 164.256 172.189C164.377 172.041 164.48 171.836 164.566 171.574L165.018 170.344ZM163.723 164.66L165.369 169.582L165.65 170.725L164.871 171.123L162.539 164.66H163.723Z" fill="#2CF2B3"/>
<path d="M85.094 75.6733C89.3376 75.6733 92.7778 72.2358 92.7778 67.9954C92.7778 63.7549 89.3376 60.3174 85.094 60.3174C80.8503 60.3174 77.4102 63.7549 77.4102 67.9954C77.4102 72.2358 80.8503 75.6733 85.094 75.6733Z" fill="#2CF2B3"/>
<path d="M150.707 129.962V75.8167C147.823 74.165 144.513 73.4095 141.198 73.6467C136.264 74.112 131.652 76.2965 128.168 79.8177C125.536 82.3871 123.508 85.4989 121.17 88.332C118.803 91.2048 116.114 93.7962 113.155 96.0552C111.663 97.3098 109.935 98.2527 108.072 98.828C106.057 99.2626 103.968 99.2214 101.972 98.7075C97.5684 97.7581 93.4588 95.799 89.1532 94.39C84.8475 92.981 80.2025 92.1296 75.8969 93.4256C70.6185 95.0229 66.9538 99.4534 63.832 104.125V129.962H150.707Z" fill="#2CF2B3"/>
<rect x="44" y="30" width="123" height="118" stroke="#2CF2B3" stroke-width="2" stroke-dasharray="5 5"/>
</svg>
