<svg width="663" height="808" viewBox="0 0 663 808" fill="none" xmlns="http://www.w3.org/2000/svg">
<path d="M212.46 712.077C210.975 723.215 240.728 723.215 245.847 711.511C250.966 699.808 213.97 701.093 212.46 712.077Z" fill="#228B6A"/>
<path d="M594.734 737.991C590.043 741.92 602.739 753.82 609.201 751.052C615.663 748.284 599.447 733.996 594.734 737.991Z" fill="#228B6A"/>
<path d="M615.069 754.854C610.347 758.788 623.074 770.682 629.505 767.92C635.936 765.157 619.782 750.858 615.069 754.854Z" fill="#228B6A"/>
<path d="M655.832 853.672C655.832 853.672 679.009 709.985 527.382 687.214C375.754 664.443 227.865 748.128 164.76 680.549C101.656 612.97 226.752 552.011 226.532 432.569C226.312 313.127 149.238 267.58 43.7731 227.05C-82.4253 178.563 -98.9395 117.909 -98.9395 117.909C-98.9395 117.909 -198.698 84.9971 -254.866 170.393C-254.866 170.393 -208.998 314.849 -50.0501 350.056C108.898 385.263 134.515 416.003 78.4975 526.128C17.9718 645.142 31.2468 736.609 160.265 772.665C267.091 802.457 454.312 696.548 558.262 727.097C662.212 757.646 655.832 853.672 655.832 853.672Z" fill="url(#paint0_linear_105_1045)"/>
<path style="mix-blend-mode:multiply" opacity="0.72" d="M-18.7885 300.078C-18.7885 300.078 -92.6916 292.436 -108.975 245.858C-118.314 219.229 11.4641 170.414 187.538 314.358C154.894 275.08 103.988 250.173 43.7731 227.05C-82.4254 178.563 -98.9395 117.909 -98.9395 117.909C-98.9395 117.909 -166.293 95.7387 -221.46 135.187C-148.355 301.781 -18.7885 300.078 -18.7885 300.078Z" fill="url(#paint1_linear_105_1045)"/>
<path style="mix-blend-mode:multiply" opacity="0.72" d="M132.261 638.501C132.261 638.501 142.798 702.569 115.772 720.686C88.7456 738.803 29.6032 675.34 104.739 557.586C104.739 557.586 -6.41134 698.724 144.915 767.675C149.897 769.35 154.94 771.015 160.363 772.491C207.574 785.692 270.446 772.351 334.877 756.008C200.706 763.519 141.757 705.456 132.261 638.501Z" fill="url(#paint2_linear_105_1045)"/>
<path d="M-50.0855 349.841C108.739 385.068 134.48 415.787 78.462 525.913C30.3224 620.566 28.9339 697.774 95.3036 743.534C44.9281 694.006 45.431 651.551 66.8785 602.587C97.4102 532.617 154.118 474.886 127.089 407.72C102.71 347.065 16.8263 330.532 -63.5376 306.46C-147.896 281.34 -191.374 235.919 -232.833 144.004C-241.242 151.734 -248.652 160.484 -254.891 170.05C-254.891 170.05 -209.054 314.701 -50.0855 349.841Z" fill="url(#paint3_linear_105_1045)"/>
<path d="M482.691 683.387C347.249 679.52 221.408 741.517 164.652 680.662C164.008 680.01 163.518 679.333 162.935 678.671C189.038 715.046 260.057 759.694 340.116 747.726C368.018 743.579 394.965 738.421 419.859 734.611C471.604 722.753 520.494 715.817 558.232 726.913C610.439 742.26 634.794 774.154 646.154 802.124C630.227 749.456 597.944 692.596 482.691 683.387Z" fill="url(#paint4_linear_105_1045)"/>
<g style="mix-blend-mode:multiply" opacity="0.33">
<path d="M9.94569 328.064C-13.7967 320.633 -38.9243 313.999 -63.5379 306.649C-147.896 281.529 -191.374 236.108 -232.833 144.193C-241.243 151.923 -248.653 160.673 -254.892 170.239C-245.262 196.49 -231.71 221.131 -214.697 243.323C-179.275 275.102 -126.669 293.446 9.94569 328.064Z" fill="#080808"/>
</g>
<g style="mix-blend-mode:multiply" opacity="0.33">
<path d="M95.2217 743.611C58.9009 707.906 49.3284 675.822 54.5099 642.416C51.3643 609.464 58.5485 574.024 73.135 536.925C30.4528 626.544 31.5278 699.526 95.2217 743.611Z" fill="#080808"/>
</g>
<g style="mix-blend-mode:multiply" opacity="0.5">
<path d="M164.673 680.784C164.028 680.132 163.538 679.455 162.955 678.793C187.551 713.111 252.198 754.734 326.637 749.311C236.399 746.44 245.705 715.26 307.24 701.666C245.849 710.564 195.22 713.46 164.673 680.784Z" fill="#080808"/>
</g>
<path style="mix-blend-mode:color-dodge" d="M194.265 532.126C158.393 586.146 131.098 629.125 136.431 657.517C137.423 660.859 138.568 664.175 139.832 667.441C141.342 670.286 142.641 673.238 143.716 676.274C161.436 712.765 198.427 742.171 260.088 752.584C180.697 735.962 146.922 688.85 140.983 653.895C137.661 633.697 160.551 592.738 181.465 560.691C202.979 525.578 226.531 484.604 226.424 432.682C226.428 419.459 225.314 406.259 223.093 393.225C224.016 399.988 232.619 474.383 194.265 532.126Z" fill="url(#paint5_linear_105_1045)"/>
<path style="mix-blend-mode:color-dodge" opacity="0.44" d="M187.159 313.978C18.3122 176.14 -107.797 215.574 -109.373 242.482C-109.309 243.583 -109.181 244.68 -108.99 245.766C-105.985 254.143 -101.119 261.731 -94.7592 267.959C-34.8223 317.24 185.435 289.665 220.702 380.799C214.917 356.203 203.427 333.314 187.159 313.978Z" fill="url(#paint6_linear_105_1045)"/>
<path style="mix-blend-mode:color-dodge" opacity="0.44" d="M115.772 720.686C142.829 702.564 132.261 638.501 132.261 638.501C133.176 644.935 134.57 651.291 136.431 657.518C131.832 633.014 151.364 597.943 179.655 554.295L179.835 554.045C245.026 452.451 203.758 392.237 121.329 373.083L148.572 415.048C191.261 493.121 61.0304 601.213 68.9387 677.333C74.6875 714.782 100.383 731.016 115.772 720.686Z" fill="url(#paint7_linear_105_1045)"/>
<g style="mix-blend-mode:color-dodge" opacity="0.6">
<path d="M106.749 568.465C105.123 562.417 90.7905 588.771 97.4817 588.934C104.173 589.096 108.695 575.881 106.749 568.465Z" fill="#A09B9C"/>
</g>
<g style="mix-blend-mode:color-dodge" opacity="0.6">
<path d="M122.902 318.894C128.836 316.561 100.88 305.403 101.5 312.058C102.121 318.713 115.79 321.738 122.902 318.894Z" fill="#A09B9C"/>
</g>
<g style="mix-blend-mode:color-dodge" opacity="0.6">
<path d="M92.2275 592.324C92.8798 596.29 98.9609 596.584 96.2574 591.093C93.5539 585.601 91.5053 587.548 92.2275 592.324Z" fill="#A09B9C"/>
</g>
<g style="mix-blend-mode:multiply" opacity="0.33">
<path d="M524.627 714.443C525.704 720.991 505.602 721.676 501.917 715.02C498.233 708.364 523.432 707.945 524.627 714.443Z" fill="#080808"/>
</g>
<path d="M524.987 716.246C526.064 722.795 505.992 723.475 502.308 716.819C498.623 710.163 523.787 709.718 524.987 716.246Z" fill="#2AAC83"/>
<g style="mix-blend-mode:multiply" opacity="0.49">
<g style="mix-blend-mode:multiply" opacity="0.49">
<path d="M518.624 717.893C520.369 719.279 511.914 719.533 509.186 718.119C506.458 716.705 516.885 716.537 518.624 717.893Z" fill="#303030"/>
</g>
</g>
<g style="mix-blend-mode:multiply">
<g style="mix-blend-mode:multiply">
<path d="M516.734 717.919C517.532 718.546 516.235 718.917 514.329 719.041C517.152 719.114 519.643 718.704 518.625 717.893C516.304 717.056 513.825 716.751 511.371 717.002C513.205 716.909 515.036 717.222 516.734 717.919Z" fill="#303030"/>
</g>
</g>
<g style="mix-blend-mode:multiply" opacity="0.33">
<path d="M552.521 721.19C552.66 727.798 532.596 725.256 530.045 718.003C527.494 710.75 552.397 714.674 552.521 721.19Z" fill="#080808"/>
</g>
<path d="M552.619 723.131C552.764 729.77 532.694 727.198 530.143 719.945C527.592 712.692 552.475 716.493 552.619 723.131Z" fill="#2AAC83"/>
<g style="mix-blend-mode:multiply" opacity="0.49">
<g style="mix-blend-mode:multiply" opacity="0.49">
<path d="M546.054 723.737C547.583 725.349 539.193 724.266 536.614 722.417C534.036 720.567 544.557 722.121 546.054 723.737Z" fill="#303030"/>
</g>
</g>
<g style="mix-blend-mode:multiply">
<g style="mix-blend-mode:multiply">
<path d="M544.175 723.447C544.865 724.186 543.538 724.373 541.673 724.174C544.413 724.702 546.97 724.692 546.055 723.738C543.914 722.526 541.517 721.838 539.06 721.731C540.873 721.907 542.622 722.494 544.175 723.447Z" fill="#303030"/>
</g>
</g>
<g style="mix-blend-mode:multiply" opacity="0.33">
<path d="M573.794 726.09C574.007 731.801 557.053 729.348 554.792 723.09C552.53 716.831 573.617 720.404 573.794 726.09Z" fill="#080808"/>
</g>
<path d="M573.893 727.652C574.106 733.364 557.152 730.911 554.891 724.652C552.63 718.393 573.716 721.966 573.893 727.652Z" fill="#2AAC83"/>
<g style="mix-blend-mode:multiply" opacity="0.49">
<g style="mix-blend-mode:multiply" opacity="0.49">
<path d="M568.369 728.056C569.672 729.452 562.584 728.408 560.363 726.815C558.143 725.223 567.071 726.691 568.369 728.056Z" fill="#303030"/>
</g>
</g>
<g style="mix-blend-mode:multiply">
<g style="mix-blend-mode:multiply">
<path d="M566.786 727.842C567.364 728.473 566.252 728.625 564.674 728.442C566.994 728.913 569.146 728.938 568.379 728.117C566.571 727.051 564.543 726.413 562.45 726.25C563.995 726.454 565.476 726.997 566.786 727.842Z" fill="#303030"/>
</g>
</g>
<g style="mix-blend-mode:multiply" opacity="0.33">
<path d="M601.425 733.733C598.713 738.758 585.277 728.117 586.505 721.568C587.734 715.02 604.1 728.684 601.425 733.733Z" fill="#080808"/>
</g>
<path d="M600.705 735.115C598.029 740.165 584.592 729.524 585.79 722.98C586.988 716.437 603.385 730.096 600.705 735.115Z" fill="#2AAC83"/>
<g style="mix-blend-mode:multiply" opacity="0.49">
<g style="mix-blend-mode:multiply" opacity="0.49">
<path d="M595.643 732.758C595.951 734.633 590.448 730.171 589.372 727.664C588.297 725.157 595.329 730.852 595.643 732.758Z" fill="#303030"/>
</g>
</g>
<g style="mix-blend-mode:multiply">
<g style="mix-blend-mode:multiply">
<path d="M594.461 731.721C594.603 732.582 593.61 732.114 592.346 731.153C594.126 732.755 595.927 733.722 595.766 732.738C594.743 730.904 593.306 729.335 591.569 728.155C592.784 729.116 593.772 730.334 594.461 731.721Z" fill="#303030"/>
</g>
</g>
<g style="mix-blend-mode:multiply" opacity="0.33">
<path d="M616.912 753.572C613.274 757.96 602.241 744.839 604.765 738.678C607.289 732.516 620.456 749.2 616.912 753.572Z" fill="#080808"/>
</g>
<path d="M615.971 754.958C612.303 759.351 601.3 746.225 603.819 740.033C606.339 733.84 619.583 750.417 615.971 754.958Z" fill="#2AAC83"/>
<g style="mix-blend-mode:multiply" opacity="0.49">
<g style="mix-blend-mode:multiply" opacity="0.49">
<path d="M611.541 751.456C611.542 753.382 606.974 747.881 606.406 745.196C605.838 742.511 611.51 749.535 611.541 751.456Z" fill="#303030"/>
</g>
</g>
<g style="mix-blend-mode:multiply">
<g style="mix-blend-mode:multiply">
<path d="M610.514 750.204C610.656 751.065 609.592 750.356 608.554 749.232C609.974 751.145 611.539 752.593 611.541 751.456C610.893 749.452 609.793 747.623 608.325 746.112C609.345 747.3 610.092 748.697 610.514 750.204Z" fill="#303030"/>
</g>
</g>
<g style="mix-blend-mode:multiply" opacity="0.33">
<path d="M633.263 773.68C629.595 778.072 618.593 764.947 621.117 758.786C623.641 752.624 636.906 769.324 633.263 773.68Z" fill="#080808"/>
</g>
<path d="M632.298 774.912C628.63 779.304 617.627 766.179 620.146 759.987C622.665 753.794 635.95 770.617 632.298 774.912Z" fill="#2AAC83"/>
<g style="mix-blend-mode:multiply" opacity="0.49">
<g style="mix-blend-mode:multiply" opacity="0.49">
<path d="M627.862 771.569C627.894 773.489 623.325 767.989 622.757 765.304C622.189 762.619 627.861 769.643 627.862 771.569Z" fill="#303030"/>
</g>
</g>
<g style="mix-blend-mode:multiply">
<g style="mix-blend-mode:multiply">
<path d="M626.866 770.312C627.008 771.173 625.943 770.464 624.906 769.34C626.326 771.253 627.891 772.701 627.862 771.569C627.223 769.566 626.133 767.736 624.677 766.22C625.697 767.408 626.444 768.804 626.866 770.312Z" fill="#303030"/>
</g>
</g>
<g style="mix-blend-mode:multiply" opacity="0.33">
<path d="M593.402 738.336C591.607 743.747 576.556 735.581 576.601 728.943C576.646 722.305 595.13 732.905 593.402 738.336Z" fill="#080808"/>
</g>
<path d="M592.917 739.806C591.122 745.216 576.04 737.056 576.116 730.413C576.192 723.77 594.681 734.401 592.917 739.806Z" fill="#2AAC83"/>
<g style="mix-blend-mode:multiply" opacity="0.49">
<g style="mix-blend-mode:multiply" opacity="0.49">
<path d="M587.591 738.345C588.294 740.124 582.015 736.704 580.626 734.407C579.238 732.109 586.796 736.581 587.591 738.345Z" fill="#303030"/>
</g>
</g>
<g style="mix-blend-mode:multiply">
<g style="mix-blend-mode:multiply">
<path d="M586.194 737.533C586.515 738.333 585.435 738.1 583.986 737.359C585.997 738.639 588.014 739.381 587.591 738.345C586.242 736.73 584.55 735.433 582.64 734.55C584.024 735.278 585.236 736.296 586.194 737.533Z" fill="#303030"/>
</g>
</g>
<g style="mix-blend-mode:multiply" opacity="0.33">
<path d="M248 725.366C250.43 733.997 227.119 732.842 221.878 723.632C216.636 714.422 245.569 716.736 248 725.366Z" fill="#080808"/>
</g>
<path d="M251.102 726.371C253.532 735.002 230.222 733.847 224.985 724.667C219.748 715.488 248.672 717.74 251.102 726.371Z" fill="#2AAC83"/>
<g style="mix-blend-mode:multiply" opacity="0.49">
<g style="mix-blend-mode:multiply" opacity="0.49">
<path d="M244.572 725.077C246.822 727.044 237.135 726.522 233.594 724.388C230.053 722.255 242.353 723.106 244.572 725.077Z" fill="#303030"/>
</g>
</g>
<g style="mix-blend-mode:multiply">
<g style="mix-blend-mode:multiply">
<path d="M242.385 724.837C243.382 725.715 241.988 726.071 239.805 726.051C243.027 726.437 245.881 726.125 244.557 724.985C241.911 723.699 239.003 723.043 236.061 723.067C238.277 723.166 240.44 723.771 242.385 724.837Z" fill="#303030"/>
</g>
</g>
<g style="mix-blend-mode:multiply" opacity="0.33">
<path d="M275.509 711.337C279.954 719.163 256.945 723.295 249.676 715.586C242.407 707.878 271.181 703.461 275.509 711.337Z" fill="#080808"/>
</g>
<path d="M278.127 711.507C282.572 719.332 259.599 723.49 252.324 715.75C245.05 708.011 273.835 703.656 278.127 711.507Z" fill="#2AAC83"/>
<g style="mix-blend-mode:multiply" opacity="0.49">
<g style="mix-blend-mode:multiply" opacity="0.49">
<path d="M271.496 711.713C274.126 713.112 264.552 714.813 260.64 713.499C256.728 712.185 268.865 710.315 271.496 711.713Z" fill="#303030"/>
</g>
</g>
<g style="mix-blend-mode:multiply">
<g style="mix-blend-mode:multiply">
<path d="M269.343 712.067C270.52 712.695 269.212 713.383 267.105 713.825C270.335 713.294 273.052 712.531 271.496 711.713C268.63 711.042 265.645 711.068 262.791 711.787C264.968 711.389 267.208 711.484 269.343 712.067Z" fill="#303030"/>
</g>
</g>
<g style="mix-blend-mode:multiply" opacity="0.33">
<path d="M217.76 715.689C217.971 724.653 195.79 717.692 192.943 707.488C190.096 697.284 217.595 706.812 217.76 715.689Z" fill="#080808"/>
</g>
<path d="M220.865 715.747C221.076 724.711 198.895 717.75 196.043 707.515C193.191 697.28 220.685 706.777 220.865 715.747Z" fill="#2AAC83"/>
<g style="mix-blend-mode:multiply" opacity="0.49">
<g style="mix-blend-mode:multiply" opacity="0.49">
<path d="M214.892 712.845C216.562 715.317 207.294 712.358 204.447 709.448C201.599 706.538 213.227 710.404 214.892 712.845Z" fill="#303030"/>
</g>
</g>
<g style="mix-blend-mode:multiply">
<g style="mix-blend-mode:multiply">
<path d="M212.818 712.145C213.569 713.253 212.119 713.27 210.02 712.605C213.06 713.81 215.878 714.231 214.882 712.784C212.652 710.858 209.99 709.498 207.123 708.819C209.254 709.471 211.203 710.609 212.818 712.145Z" fill="#303030"/>
</g>
</g>
<g style="mix-blend-mode:multiply" opacity="0.33">
<path d="M349.698 733.394C347.482 743.736 323.01 746.656 322.392 736.18C321.775 725.704 351.888 723.088 349.698 733.394Z" fill="#080808"/>
</g>
<path d="M350.267 735.51C348.082 745.847 323.61 748.767 322.992 738.291C322.375 727.815 352.483 725.168 350.267 735.51Z" fill="#2AAC83"/>
<g style="mix-blend-mode:multiply" opacity="0.49">
<g style="mix-blend-mode:multiply" opacity="0.49">
<path d="M343.523 736.178C342.394 741.415 330.002 742.885 329.696 737.568C329.39 732.25 344.682 730.935 343.523 736.178Z" fill="#303030"/>
</g>
</g>
<g style="mix-blend-mode:multiply">
<g style="mix-blend-mode:multiply">
<path d="M340.838 736.367C340.325 737.62 339.472 738.705 338.374 739.5C337.277 740.294 335.98 740.766 334.628 740.861C338.348 741.007 342.891 739.25 343.564 736.234C344.236 733.219 339.786 732.467 335.818 733.119C338.816 733.1 341.324 734.14 340.838 736.367Z" fill="#303030"/>
</g>
</g>
<g style="mix-blend-mode:multiply" opacity="0.33">
<path d="M315.768 736.038C311.617 745.751 287.058 743.918 288.469 733.487C289.881 723.056 319.796 726.345 315.768 736.038Z" fill="#080808"/>
</g>
<path d="M315.968 738.215C311.817 747.928 287.227 746.1 288.638 735.669C290.05 725.238 320.15 728.497 315.968 738.215Z" fill="#2AAC83"/>
<g style="mix-blend-mode:multiply" opacity="0.49">
<g style="mix-blend-mode:multiply" opacity="0.49">
<path d="M309.227 737.556C307.13 742.479 294.687 741.526 295.4 736.262C296.114 730.998 311.353 732.628 309.227 737.556Z" fill="#303030"/>
</g>
</g>
<g style="mix-blend-mode:multiply">
<g style="mix-blend-mode:multiply">
<path d="M306.522 737.243C305.772 738.368 304.725 739.265 303.498 739.834C302.271 740.404 300.911 740.624 299.567 740.471C303.177 741.298 307.996 740.442 309.227 737.556C310.457 734.67 306.285 733.114 302.166 733.034C305.203 733.639 307.438 735.135 306.522 737.243Z" fill="#303030"/>
</g>
</g>
<g style="mix-blend-mode:multiply" opacity="0.33">
<path d="M308.091 715.672C303.94 725.385 279.381 723.552 280.766 713.157C282.152 702.762 312.242 705.959 308.091 715.672Z" fill="#080808"/>
</g>
<path d="M310.487 716.604C306.336 726.317 281.777 724.484 283.162 714.089C284.548 703.694 314.638 706.891 310.487 716.604Z" fill="#2AAC83"/>
<g style="mix-blend-mode:multiply" opacity="0.49">
<g style="mix-blend-mode:multiply" opacity="0.49">
<path d="M303.745 715.945C301.649 720.868 289.211 719.946 289.919 714.651C290.628 709.356 305.872 711.017 303.745 715.945Z" fill="#303030"/>
</g>
</g>
<g style="mix-blend-mode:multiply">
<g style="mix-blend-mode:multiply">
<path d="M301.071 715.627C300.324 716.754 299.278 717.653 298.05 718.223C296.823 718.793 295.461 719.011 294.117 718.854C297.727 719.681 302.514 718.831 303.745 715.945C304.976 713.058 300.809 711.533 296.685 711.422C299.691 712.033 301.896 713.533 301.071 715.627Z" fill="#303030"/>
</g>
</g>
<g style="mix-blend-mode:multiply" opacity="0.33">
<path d="M280.708 732.963C275.953 742.46 251.632 739.387 253.566 729.06C255.5 718.733 285.366 723.451 280.708 732.963Z" fill="#080808"/>
</g>
<path d="M282.74 733.987C277.984 743.484 253.659 740.381 255.562 730.058C257.465 719.736 287.377 724.542 282.74 733.987Z" fill="#2AAC83"/>
<g style="mix-blend-mode:multiply" opacity="0.49">
<g style="mix-blend-mode:multiply" opacity="0.49">
<path d="M276.045 733.036C273.678 737.846 261.323 736.278 262.297 731.066C263.272 725.854 278.438 728.38 276.045 733.036Z" fill="#303030"/>
</g>
</g>
<g style="mix-blend-mode:multiply">
<g style="mix-blend-mode:multiply">
<path d="M273.444 732.58C272.638 733.666 271.548 734.509 270.294 735.016C269.04 735.523 267.67 735.674 266.336 735.454C269.915 736.475 274.738 735.84 276.107 733.026C277.476 730.211 273.396 728.451 269.37 728.166C272.212 728.93 274.37 730.533 273.444 732.58Z" fill="#303030"/>
</g>
</g>
<g style="mix-blend-mode:multiply" opacity="0.33">
<path d="M344.284 711.235C342.964 722.409 317.622 724.651 316.182 713.205C314.741 701.759 345.713 700.139 344.284 711.235Z" fill="#080808"/>
</g>
<path d="M345.931 712.416C344.611 723.59 319.269 725.832 317.824 714.356C316.378 702.879 347.257 701.274 345.931 712.416Z" fill="#2AAC83"/>
<g style="mix-blend-mode:multiply" opacity="0.49">
<g style="mix-blend-mode:multiply" opacity="0.49">
<path d="M339.024 712.858C338.31 718.501 325.518 719.657 324.752 713.847C323.986 708.037 339.733 707.184 339.024 712.858Z" fill="#303030"/>
</g>
</g>
<g style="mix-blend-mode:multiply">
<g style="mix-blend-mode:multiply">
<path d="M336.231 712.97C335.832 714.286 335.03 715.444 333.938 716.28C332.846 717.117 331.52 717.59 330.144 717.633C334.017 717.944 338.602 716.242 339.049 713.011C339.497 709.78 334.811 708.751 330.737 709.327C333.836 709.354 336.529 710.553 336.231 712.97Z" fill="#303030"/>
</g>
</g>
<g style="mix-blend-mode:multiply" opacity="0.33">
<path d="M498.315 713.087C495.272 722.239 475.389 723.488 476.178 714.075C476.967 704.663 501.393 703.961 498.315 713.087Z" fill="#080808"/>
</g>
<path d="M498.292 714.101C495.249 723.253 475.335 724.507 476.155 715.09C476.975 705.672 501.34 704.98 498.292 714.101Z" fill="#2AAC83"/>
<g style="mix-blend-mode:multiply" opacity="0.49">
<g style="mix-blend-mode:multiply" opacity="0.49">
<path d="M492.829 714.305C491.287 718.947 481.223 719.592 481.633 714.789C482.043 709.985 494.376 709.693 492.829 714.305Z" fill="#303030"/>
</g>
</g>
<g style="mix-blend-mode:multiply">
<g style="mix-blend-mode:multiply">
<path d="M490.657 714.346C490.146 715.395 489.366 716.289 488.396 716.937C487.425 717.585 486.3 717.963 485.136 718.033C486.647 718.295 488.203 718.076 489.583 717.408C490.963 716.739 492.099 715.653 492.829 714.305C493.706 711.761 490.316 710.74 487.062 711.117C489.434 711.327 491.21 712.329 490.657 714.346Z" fill="#303030"/>
</g>
</g>
<g style="mix-blend-mode:multiply" opacity="0.33">
<path d="M525.121 701.7C520.28 710.674 500.343 706.406 502.972 696.47C505.602 686.534 529.895 692.705 525.121 701.7Z" fill="#080808"/>
</g>
<path d="M524.888 702.78C520.047 711.754 500.11 707.487 502.74 697.551C505.369 687.614 529.668 693.816 524.888 702.78Z" fill="#2AAC83"/>
<g style="mix-blend-mode:multiply" opacity="0.49">
<g style="mix-blend-mode:multiply" opacity="0.49">
<path d="M519.414 701.376C517.001 705.909 506.856 703.757 508.204 698.704C509.552 693.652 521.868 696.899 519.414 701.376Z" fill="#303030"/>
</g>
</g>
<g style="mix-blend-mode:multiply">
<g style="mix-blend-mode:multiply">
<path d="M517.248 700.879C516.576 701.849 515.629 702.597 514.528 703.025C513.428 703.454 512.225 703.544 511.073 703.284C512.462 703.989 514.052 704.194 515.575 703.863C517.097 703.532 518.459 702.686 519.429 701.467C520.782 698.94 517.63 696.869 514.327 696.371C516.651 697.251 518.287 698.94 517.248 700.879Z" fill="#303030"/>
</g>
</g>
<g style="mix-blend-mode:multiply" opacity="0.33">
<path d="M558.189 708.986C552.544 717.492 533.062 711.382 536.623 701.734C540.185 692.086 563.787 700.392 558.189 708.986Z" fill="#080808"/>
</g>
<path d="M557.859 710.05C552.214 718.557 532.732 712.446 536.293 702.799C539.855 693.151 563.472 701.549 557.859 710.05Z" fill="#2AAC83"/>
<g style="mix-blend-mode:multiply" opacity="0.49">
<g style="mix-blend-mode:multiply" opacity="0.49">
<path d="M552.539 708.241C549.707 712.528 539.82 709.449 541.634 704.541C543.448 699.633 555.398 703.919 552.539 708.241Z" fill="#303030"/>
</g>
</g>
<g style="mix-blend-mode:multiply">
<g style="mix-blend-mode:multiply">
<path d="M550.42 707.453C549.663 708.358 548.653 709.016 547.519 709.343C546.385 709.67 545.18 709.651 544.057 709.289C545.373 710.123 546.939 710.474 548.486 710.283C550.032 710.092 551.465 709.37 552.539 708.241C554.107 705.868 551.161 703.511 547.93 702.684C550.166 703.8 551.623 705.55 550.42 707.453Z" fill="#303030"/>
</g>
</g>
<g style="mix-blend-mode:multiply" opacity="0.33">
<path d="M581.473 719.586C578.05 726.811 561.979 718.782 563.602 710.211C565.224 701.64 584.876 712.237 581.473 719.586Z" fill="#080808"/>
</g>
<path d="M581.328 720.43C577.91 727.686 561.834 719.627 563.457 711.056C565.079 702.485 584.715 713.179 581.328 720.43Z" fill="#2AAC83"/>
<g style="mix-blend-mode:multiply" opacity="0.49">
<g style="mix-blend-mode:multiply" opacity="0.49">
<path d="M576.932 718.09C575.197 721.754 567.044 717.696 567.863 713.267C568.683 708.838 578.667 714.427 576.932 718.09Z" fill="#303030"/>
</g>
</g>
<g style="mix-blend-mode:multiply">
<g style="mix-blend-mode:multiply">
<path d="M575.161 717.119C574.389 718.761 572.288 718.854 570.333 717.913C572.661 719.583 575.882 720.158 576.912 717.968C577.941 715.778 575.277 713.406 572.61 712.36C574.533 713.686 575.913 715.543 575.161 717.119Z" fill="#303030"/>
</g>
</g>
<g style="mix-blend-mode:multiply" opacity="0.33">
<path d="M494.696 692.811C496.748 705.293 477.142 711.485 472.603 699.255C468.065 687.024 492.556 680.186 494.696 692.811Z" fill="#080808"/>
</g>
<path d="M495.758 691.784C497.811 704.265 478.205 710.458 473.697 698.222C469.189 685.986 493.675 679.307 495.758 691.784Z" fill="#2AAC83"/>
<g style="mix-blend-mode:multiply" opacity="0.49">
<g style="mix-blend-mode:multiply" opacity="0.49">
<path d="M490.298 693.345C491.334 699.647 481.439 702.853 479.116 696.605C476.793 690.356 489.256 687.011 490.298 693.345Z" fill="#303030"/>
</g>
</g>
<g style="mix-blend-mode:multiply">
<g style="mix-blend-mode:multiply">
<path d="M488.176 693.884C488.371 695.142 488.128 696.429 487.487 697.529C486.845 698.63 485.844 699.476 484.653 699.925C485.475 699.905 486.284 699.714 487.028 699.364C487.773 699.014 488.436 698.512 488.976 697.892C489.515 697.271 489.92 696.545 490.164 695.76C490.407 694.974 490.484 694.147 490.39 693.33C489.814 689.825 485.777 689.289 482.67 690.558C485.119 690.282 487.731 691.178 488.176 693.884Z" fill="#303030"/>
</g>
</g>
<g style="mix-blend-mode:multiply" opacity="0.33">
<path d="M471.496 715.95C469.798 728.481 449.205 728.679 448.501 715.565C447.797 702.45 473.219 703.384 471.496 715.95Z" fill="#080808"/>
</g>
<path d="M473.836 716.544C472.143 729.105 451.52 729.308 450.847 716.189C450.173 703.07 475.534 704.014 473.836 716.544Z" fill="#2AAC83"/>
<g style="mix-blend-mode:multiply" opacity="0.49">
<g style="mix-blend-mode:multiply" opacity="0.49">
<path d="M468.159 716.405C467.325 722.857 456.873 722.871 456.508 716.237C456.144 709.603 469.014 710.075 468.159 716.405Z" fill="#303030"/>
</g>
</g>
<g style="mix-blend-mode:multiply">
<g style="mix-blend-mode:multiply">
<path d="M465.9 716.302C465.703 717.563 465.079 718.717 464.134 719.573C463.189 720.43 461.978 720.937 460.704 721.009C461.497 721.242 462.33 721.305 463.149 721.194C463.969 721.084 464.755 720.802 465.458 720.368C466.161 719.934 466.765 719.356 467.231 718.673C467.696 717.991 468.012 717.217 468.159 716.404C468.628 712.917 464.937 711.219 461.601 711.484C462.202 711.512 462.791 711.659 463.335 711.918C463.878 712.176 464.364 712.541 464.764 712.99C465.164 713.438 465.471 713.963 465.666 714.532C465.861 715.1 465.941 715.702 465.9 716.302Z" fill="#303030"/>
</g>
</g>
<g style="mix-blend-mode:multiply" opacity="0.33">
<path d="M460.907 696.505C459.214 709.066 438.621 709.264 437.917 696.15C437.214 683.036 462.605 683.975 460.907 696.505Z" fill="#080808"/>
</g>
<path d="M462.637 694.926C460.939 707.456 440.316 707.659 439.643 694.54C438.969 681.421 464.196 682.514 462.637 694.926Z" fill="#2AAC83"/>
<g style="mix-blend-mode:multiply" opacity="0.49">
<g style="mix-blend-mode:multiply" opacity="0.49">
<path d="M456.981 694.909C456.147 701.361 445.689 701.345 445.325 694.711C444.96 688.077 457.83 688.549 456.981 694.909Z" fill="#303030"/>
</g>
</g>
<g style="mix-blend-mode:multiply">
<g style="mix-blend-mode:multiply">
<path d="M454.716 694.777C454.51 696.034 453.885 697.186 452.943 698.046C452.002 698.905 450.798 699.422 449.526 699.514C450.319 699.737 451.149 699.792 451.965 699.677C452.78 699.563 453.563 699.28 454.264 698.847C454.964 698.414 455.568 697.841 456.035 697.163C456.503 696.485 456.825 695.718 456.981 694.909C457.444 691.391 453.754 689.693 450.418 689.958C452.871 690.47 455.06 692.068 454.716 694.777Z" fill="#303030"/>
</g>
</g>
<g style="mix-blend-mode:multiply" opacity="0.33">
<path d="M439.278 720.365C437.581 732.895 416.993 733.124 416.284 719.979C415.575 706.835 441.027 707.953 439.278 720.365Z" fill="#080808"/>
</g>
<path d="M441.747 720.78C440.054 733.341 419.431 733.544 418.758 720.425C418.085 707.306 443.445 708.25 441.747 720.78Z" fill="#2AAC83"/>
<g style="mix-blend-mode:multiply" opacity="0.49">
<g style="mix-blend-mode:multiply" opacity="0.49">
<path d="M436.071 720.64C435.237 727.093 424.784 727.107 424.42 720.473C424.055 713.839 436.925 714.311 436.071 720.64Z" fill="#303030"/>
</g>
</g>
<g style="mix-blend-mode:multiply">
<g style="mix-blend-mode:multiply">
<path d="M433.811 720.538C433.614 721.798 432.991 722.953 432.045 723.809C431.1 724.666 429.889 725.172 428.616 725.245C429.409 725.472 430.24 725.532 431.058 725.419C431.875 725.306 432.66 725.024 433.362 724.591C434.063 724.157 434.667 723.582 435.134 722.902C435.6 722.221 435.919 721.451 436.071 720.64C436.539 717.153 432.849 715.455 429.513 715.72C430.114 715.748 430.703 715.895 431.246 716.154C431.789 716.412 432.275 716.777 432.675 717.225C433.076 717.674 433.382 718.198 433.577 718.767C433.773 719.336 433.852 719.938 433.811 720.538Z" fill="#303030"/>
</g>
</g>
<g style="mix-blend-mode:multiply" opacity="0.33">
<path d="M432.548 698.076C430.856 710.637 410.263 710.834 409.559 697.72C408.855 684.606 434.277 685.54 432.548 698.076Z" fill="#080808"/>
</g>
<path d="M433.598 696.009C431.9 708.539 411.308 708.737 410.604 695.623C409.9 682.509 435.321 683.632 433.598 696.009Z" fill="#2AAC83"/>
<g style="mix-blend-mode:multiply" opacity="0.49">
<g style="mix-blend-mode:multiply" opacity="0.49">
<path d="M427.921 695.868C427.087 702.32 416.63 702.304 416.296 695.665C415.962 689.026 428.801 689.503 427.921 695.868Z" fill="#303030"/>
</g>
</g>
<g style="mix-blend-mode:multiply">
<g style="mix-blend-mode:multiply">
<path d="M425.657 695.736C425.473 696.997 424.858 698.156 423.919 699.018C422.979 699.88 421.771 700.392 420.498 700.468C421.288 700.696 422.118 700.755 422.933 700.642C423.748 700.53 424.531 700.248 425.23 699.814C425.93 699.381 426.531 698.806 426.994 698.126C427.458 697.447 427.774 696.678 427.922 695.869C428.416 692.346 424.726 690.648 421.364 690.948C423.904 691.414 426.037 693.053 425.657 695.736Z" fill="#303030"/>
</g>
</g>
<g style="mix-blend-mode:multiply" opacity="0.33">
<path d="M408.027 723.548C406.329 736.078 385.706 736.281 385.033 723.162C384.36 710.043 409.725 711.018 408.027 723.548Z" fill="#080808"/>
</g>
<path d="M410.064 724.602C408.366 737.133 387.774 737.33 387.07 724.216C386.366 711.102 411.762 712.072 410.064 724.602Z" fill="#2AAC83"/>
<g style="mix-blend-mode:multiply" opacity="0.49">
<g style="mix-blend-mode:multiply" opacity="0.49">
<path d="M404.387 724.462C403.553 730.914 393.096 730.897 392.762 724.259C392.428 717.62 405.267 718.097 404.387 724.462Z" fill="#303030"/>
</g>
</g>
<g style="mix-blend-mode:multiply">
<g style="mix-blend-mode:multiply">
<path d="M402.123 724.329C401.938 725.591 401.324 726.75 400.384 727.612C399.444 728.474 398.236 728.986 396.963 729.062C397.754 729.284 398.582 729.34 399.395 729.225C400.209 729.11 400.989 728.828 401.688 728.395C402.386 727.963 402.986 727.39 403.451 726.713C403.916 726.035 404.235 725.269 404.387 724.462C404.882 720.939 401.191 719.241 397.824 719.511C400.37 720.008 402.498 721.616 402.123 724.329Z" fill="#303030"/>
</g>
</g>
<g style="mix-blend-mode:multiply" opacity="0.33">
<path d="M403.652 702.134C401.955 714.664 381.362 714.862 380.658 701.748C379.954 688.634 405.345 689.573 403.652 702.134Z" fill="#080808"/>
</g>
<path d="M405.377 700.713C403.679 713.244 383.087 713.441 382.383 700.327C381.679 687.214 407.121 688.27 405.377 700.713Z" fill="#2AAC83"/>
<g style="mix-blend-mode:multiply" opacity="0.49">
<g style="mix-blend-mode:multiply" opacity="0.49">
<path d="M399.731 700.568C398.866 707.025 388.409 707.008 388.075 700.37C387.741 693.731 400.58 694.208 399.731 700.568Z" fill="#303030"/>
</g>
</g>
<g style="mix-blend-mode:multiply">
<g style="mix-blend-mode:multiply">
<path d="M397.436 700.44C397.24 701.697 396.623 702.85 395.685 703.71C394.747 704.57 393.545 705.086 392.276 705.173C393.069 705.395 393.899 705.451 394.715 705.336C395.531 705.221 396.313 704.938 397.014 704.506C397.715 704.073 398.318 703.499 398.786 702.822C399.253 702.144 399.575 701.376 399.731 700.568C400.195 697.05 396.504 695.352 393.137 695.622C395.678 696.088 397.811 697.726 397.436 700.44Z" fill="#303030"/>
</g>
</g>
<g style="mix-blend-mode:multiply" opacity="0.33">
<path d="M379.433 725.409C382.993 737.453 364.308 746.178 358.308 734.472C352.309 722.766 375.857 713.272 379.433 725.409Z" fill="#080808"/>
</g>
<path d="M381.606 725.178C385.166 737.222 366.476 745.916 360.476 734.21C354.477 722.504 378.025 713.011 381.606 725.178Z" fill="#2AAC83"/>
<g style="mix-blend-mode:multiply" opacity="0.49">
<g style="mix-blend-mode:multiply" opacity="0.49">
<path d="M376.375 727.364C378.155 733.387 368.63 737.89 365.661 731.937C362.692 725.984 374.574 721.219 376.375 727.364Z" fill="#303030"/>
</g>
</g>
<g style="mix-blend-mode:multiply">
<g style="mix-blend-mode:multiply">
<path d="M374.267 728.184C374.595 729.414 374.497 730.718 373.989 731.885C373.482 733.052 372.594 734.013 371.471 734.612C372.275 734.494 373.046 734.212 373.736 733.783C374.426 733.354 375.021 732.788 375.483 732.12C375.945 731.451 376.264 730.695 376.421 729.898C376.578 729.101 376.569 728.28 376.395 727.487C375.393 724.084 371.341 724.024 368.386 725.647C370.862 724.955 373.366 725.586 374.267 728.184Z" fill="#303030"/>
</g>
</g>
<g style="mix-blend-mode:multiply" opacity="0.33">
<path d="M371.413 706.994C374.973 719.038 356.289 727.763 350.289 716.057C344.289 704.351 367.818 694.734 371.413 706.994Z" fill="#080808"/>
</g>
<path d="M372.868 705.081C376.428 717.125 357.743 725.851 351.743 714.144C345.743 702.438 369.292 692.945 372.868 705.081Z" fill="#2AAC83"/>
<g style="mix-blend-mode:multiply" opacity="0.49">
<g style="mix-blend-mode:multiply" opacity="0.49">
<path d="M367.657 707.391C369.468 713.408 359.907 717.885 356.944 711.963C353.98 706.041 365.836 701.122 367.657 707.391Z" fill="#303030"/>
</g>
</g>
<g style="mix-blend-mode:multiply">
<g style="mix-blend-mode:multiply">
<path d="M365.534 708.119C365.865 709.344 365.768 710.646 365.259 711.809C364.749 712.973 363.858 713.927 362.733 714.515C363.539 714.402 364.312 714.122 365.005 713.695C365.697 713.267 366.294 712.701 366.756 712.032C367.219 711.362 367.538 710.604 367.693 709.805C367.848 709.007 367.836 708.184 367.657 707.391C366.655 703.988 362.602 703.928 359.647 705.551C360.202 705.33 360.795 705.221 361.393 705.231C361.99 705.24 362.579 705.368 363.127 705.607C363.674 705.846 364.169 706.191 364.582 706.622C364.995 707.053 365.319 707.562 365.534 708.119Z" fill="#303030"/>
</g>
</g>
<g style="mix-blend-mode:multiply" opacity="0.33">
<path d="M48.1425 372.68C44.7968 386.712 -0.0719144 370.474 -1.96192 353.798C-3.85192 337.121 51.4832 358.616 48.1425 372.68Z" fill="#080808"/>
</g>
<path d="M49.3689 376.488C46.0231 390.521 1.15444 374.283 -0.70481 357.601C-2.56406 340.92 52.7096 362.425 49.3689 376.488Z" fill="#2AAC83"/>
<g style="mix-blend-mode:multiply" opacity="0.49">
<g style="mix-blend-mode:multiply" opacity="0.49">
<path d="M33.9257 374.197C36.5192 378.443 17.7097 371.623 12.8281 366.332C7.94655 361.041 31.3321 369.95 33.9257 374.197Z" fill="#303030"/>
</g>
</g>
<g style="mix-blend-mode:multiply">
<g style="mix-blend-mode:multiply">
<path d="M29.7486 372.611C30.9177 374.534 27.7623 374.169 23.4564 372.762C29.5376 375.361 35.3808 376.705 33.8645 374.207C32.3483 371.71 24.6859 368.139 18.8238 366.103C23.7431 368.168 28.6612 370.8 29.7486 372.611Z" fill="#303030"/>
</g>
</g>
<g style="mix-blend-mode:multiply" opacity="0.33">
<path d="M99.0641 402.099C94.4788 413.589 58.5425 394.24 59.0555 379.884C59.5686 365.527 103.777 390.62 99.0641 402.099Z" fill="#080808"/>
</g>
<path d="M99.6202 405.481C95.1887 416.945 59.1293 397.616 59.6116 383.265C60.0939 368.914 104.318 393.91 99.6202 405.481Z" fill="#2AAC83"/>
<g style="mix-blend-mode:multiply" opacity="0.49">
<g style="mix-blend-mode:multiply" opacity="0.49">
<path d="M86.9834 401.623C88.64 405.55 73.6708 397.498 70.1057 392.338C66.5406 387.178 85.2961 397.701 86.9834 401.623Z" fill="#303030"/>
</g>
</g>
<g style="mix-blend-mode:multiply">
<g style="mix-blend-mode:multiply">
<path d="M83.6416 399.742C84.3756 401.516 81.7691 400.839 78.3554 399.096C83.1704 402.061 87.9162 403.838 86.9834 401.623C86.0506 399.409 79.9469 395.329 75.2487 392.881C78.4967 394.554 81.3562 396.892 83.6416 399.742Z" fill="#303030"/>
</g>
</g>
<g style="mix-blend-mode:multiply" opacity="0.33">
<path d="M124.404 451.892C114.74 459.576 93.1318 424.987 100.66 412.761C108.188 400.535 134.064 444.178 124.404 451.892Z" fill="#080808"/>
</g>
<path d="M123.229 455.117C113.564 462.8 91.9564 428.212 99.4843 415.986C107.012 403.76 132.889 447.403 123.229 455.117Z" fill="#2AAC83"/>
<g style="mix-blend-mode:multiply" opacity="0.49">
<g style="mix-blend-mode:multiply" opacity="0.49">
<path d="M114.022 445.422C113.547 449.636 104.535 435.173 103.995 429.011C103.456 422.848 114.529 441.202 114.022 445.422Z" fill="#303030"/>
</g>
</g>
<g style="mix-blend-mode:multiply">
<g style="mix-blend-mode:multiply">
<path d="M111.97 442.16C111.746 444.06 109.823 442.166 107.689 438.981C110.429 443.929 113.643 447.916 113.931 445.437C114.218 442.959 110.968 436.452 108.098 432.062C110.093 435.114 111.413 438.557 111.97 442.16Z" fill="#303030"/>
</g>
</g>
<g style="mix-blend-mode:multiply" opacity="0.33">
<path d="M110.238 509.983C97.8851 509.962 102.529 469.446 116.035 464.572C129.542 459.699 122.587 509.973 110.238 509.983Z" fill="#080808"/>
</g>
<path d="M107.309 511.76C94.9606 511.77 99.5993 471.223 113.106 466.349C126.612 461.475 119.657 511.749 107.309 511.76Z" fill="#2AAC83"/>
<g style="mix-blend-mode:multiply" opacity="0.49">
<g style="mix-blend-mode:multiply" opacity="0.49">
<path d="M106.134 498.47C103.12 501.461 105.104 484.526 108.517 479.355C111.931 474.183 109.179 495.475 106.134 498.47Z" fill="#303030"/>
</g>
</g>
<g style="mix-blend-mode:multiply">
<g style="mix-blend-mode:multiply">
<path d="M106.629 494.568C105.274 495.928 104.926 493.238 105.278 489.423C104.302 495.014 104.352 500.121 106.119 498.378C107.885 496.635 109.366 489.508 109.89 484.244C109.551 487.878 108.439 491.398 106.629 494.568Z" fill="#303030"/>
</g>
</g>
<g style="mix-blend-mode:multiply" opacity="0.33">
<path d="M77.6003 556.777C67.5248 553.13 83.2325 521.119 95.7959 521.073C108.359 521.028 87.8039 560.435 77.6003 556.777Z" fill="#080808"/>
</g>
<path d="M74.6684 557.386C64.5929 553.738 80.3006 521.727 92.864 521.682C105.427 521.636 84.8719 561.044 74.6684 557.386Z" fill="#2AAC83"/>
<g style="mix-blend-mode:multiply" opacity="0.49">
<g style="mix-blend-mode:multiply" opacity="0.49">
<path d="M77.6392 546.067C74.2694 547.663 80.9134 534.288 85.2399 531.018C89.5664 527.749 81.014 544.501 77.6392 546.067Z" fill="#303030"/>
</g>
</g>
<g style="mix-blend-mode:multiply">
<g style="mix-blend-mode:multiply">
<path d="M79.1725 543.099C77.6492 543.823 78.1514 541.499 79.5773 538.454C77.129 542.772 75.6441 546.995 77.67 546.062C79.6959 545.129 82.9459 539.732 84.9177 535.397C83.5849 538.351 81.6244 540.98 79.1725 543.099Z" fill="#303030"/>
</g>
</g>
<g style="mix-blend-mode:multiply" opacity="0.33">
<path d="M55.7182 607.706C45.0909 605.697 55.6179 571.57 68.0473 569.557C80.4767 567.544 66.3712 609.68 55.7182 607.706Z" fill="#080808"/>
</g>
<path d="M52.9233 608.766C42.2703 606.792 52.8231 572.629 65.2217 570.622C77.6204 568.614 63.5506 610.775 52.9233 608.766Z" fill="#2AAC83"/>
<g style="mix-blend-mode:multiply" opacity="0.49">
<g style="mix-blend-mode:multiply" opacity="0.49">
<path d="M54.0404 597.121C50.9769 599.235 55.4197 584.959 59.1685 581.058C62.9174 577.158 57.1397 595.032 54.0404 597.121Z" fill="#303030"/>
</g>
</g>
<g style="mix-blend-mode:multiply">
<g style="mix-blend-mode:multiply">
<path d="M55.0975 593.947C53.7069 594.902 53.8555 592.541 54.7747 589.296C53.0429 593.938 52.2544 598.362 54.0402 597.121C55.8259 595.88 58.2877 590.107 59.5632 585.572C58.6928 588.651 57.1697 591.508 55.0975 593.947Z" fill="#303030"/>
</g>
</g>
<g style="mix-blend-mode:multiply" opacity="0.33">
<path d="M45.3246 653.399C36.7056 653.806 38.6329 625.388 47.8643 621.407C57.0957 617.426 53.9436 652.992 45.3246 653.399Z" fill="#080808"/>
</g>
<path d="M43.3336 654.737C34.7454 655.139 36.6419 626.726 45.8733 622.745C55.1047 618.764 51.9526 654.33 43.3336 654.737Z" fill="#2AAC83"/>
<g style="mix-blend-mode:multiply" opacity="0.49">
<g style="mix-blend-mode:multiply" opacity="0.49">
<path d="M42.0987 645.499C40.0905 647.692 40.9159 635.811 43.0554 632.112C45.195 628.413 43.9839 643.326 42.0987 645.499Z" fill="#303030"/>
</g>
</g>
<g style="mix-blend-mode:multiply">
<g style="mix-blend-mode:multiply">
<path d="M42.3248 642.842C41.4107 643.813 41.1072 641.968 41.2053 639.3C40.71 643.202 40.9224 646.798 42.2166 645.449C43.632 642.364 44.373 639.012 44.3901 635.619C44.221 638.145 43.517 640.607 42.3248 642.842Z" fill="#303030"/>
</g>
</g>
<defs>
<linearGradient id="paint0_linear_105_1045" x1="604.879" y1="604.209" x2="-227.371" y2="373.313" gradientUnits="userSpaceOnUse">
<stop offset="0.32" stop-color="#383838"/>
<stop offset="1" stop-color="#0A0A0A"/>
</linearGradient>
<linearGradient id="paint1_linear_105_1045" x1="-106.205" y1="68.9907" x2="70.0931" y2="380.676" gradientUnits="userSpaceOnUse">
<stop stop-color="white"/>
<stop offset="1" stop-color="#181818"/>
</linearGradient>
<linearGradient id="paint2_linear_105_1045" x1="2035.89" y1="42271.1" x2="17637.2" y2="40055.4" gradientUnits="userSpaceOnUse">
<stop stop-color="white"/>
<stop offset="1" stop-color="#1F1F1F"/>
</linearGradient>
<linearGradient id="paint3_linear_105_1045" x1="-168.177" y1="107.552" x2="319.96" y2="970.551" gradientUnits="userSpaceOnUse">
<stop stop-color="#030303"/>
<stop offset="1" stop-color="#1F1F1F"/>
</linearGradient>
<linearGradient id="paint4_linear_105_1045" x1="-86023.9" y1="39284.8" x2="45118" y2="17715.5" gradientUnits="userSpaceOnUse">
<stop stop-color="#1C1B1B"/>
<stop offset="1" stop-color="#282828"/>
</linearGradient>
<linearGradient id="paint5_linear_105_1045" x1="132.277" y1="444.587" x2="295.23" y2="732.678" gradientUnits="userSpaceOnUse">
<stop stop-color="#303030"/>
<stop offset="1"/>
</linearGradient>
<linearGradient id="paint6_linear_105_1045" x1="-15.396" y1="181.68" x2="416.506" y2="945.259" gradientUnits="userSpaceOnUse">
<stop/>
<stop offset="1" stop-color="#1F1F1F"/>
</linearGradient>
<linearGradient id="paint7_linear_105_1045" x1="-3381.56" y1="59225.1" x2="52253.2" y2="50074.7" gradientUnits="userSpaceOnUse">
<stop stop-color="#282828"/>
<stop offset="1" stop-color="#1C1B1B"/>
</linearGradient>
</defs>
</svg>
