<svg width="351" height="321" viewBox="0 0 351 321" fill="none" xmlns="http://www.w3.org/2000/svg">
<path d="M302.029 118.744C308.649 115.548 318.001 131.691 312.215 136.987C306.429 142.283 295.431 121.944 302.029 118.744Z" fill="#208363"/>
<path d="M318.751 151.071C325.349 147.87 334.72 164.036 328.912 169.328C323.103 174.62 312.127 154.285 318.751 151.071Z" fill="#208363"/>
<path d="M193.407 168.046C193.093 161.486 214.116 164.533 216.979 171.762C219.841 178.99 193.658 174.575 193.407 168.046Z" fill="#1F1F1F"/>
<path d="M405.964 111.745C405.964 111.745 380.138 120.988 405.435 137.62C430.732 154.252 468.438 130.211 435.449 90.5368C402.46 50.8622 318.444 41.1209 284.853 83.7994C251.262 126.478 292.655 177.945 312.017 202.738C331.379 227.531 327.273 249.001 297.506 263.267C267.74 277.533 236.392 273.344 197.078 243.291C157.765 213.238 228.523 216.302 263.569 266.14C298.615 315.978 262.554 362.328 202.619 355.942C134.866 348.722 41.4677 324.557 9.53485 394.652C9.53485 394.652 -3.20408 454.373 87.2032 456.418C87.2032 456.418 96.8555 413.846 169.814 428.736C246.804 444.448 316.667 423.444 344.142 361.812C376.053 289.913 333.943 224.751 249.074 184.659C164.205 144.567 108.09 172.887 102.832 211.697C97.075 254.302 185.073 345.643 280.028 328.442C374.982 311.241 386.667 254.664 366.347 216.907C346.027 179.15 274.576 114.923 321.654 87.2456C368.733 59.5686 416.781 82.9225 430.602 106.752C444.422 130.581 423.851 140.395 411.303 134.623C398.755 128.852 393.309 118.535 405.964 111.745Z" fill="url(#paint0_linear_105_1297)"/>
<path style="mix-blend-mode:multiply" opacity="0.72" d="M256.693 307.032C277.236 297.584 266.905 282.522 240.572 268.944C247.766 270.351 255.065 271.081 262.323 271.119C263.465 271.148 264.618 271.124 265.701 271.103L266.736 271.092C280.248 293.058 280.061 313.992 270.228 329.671C179.102 339.247 97.2625 252.707 102.813 211.563C102.941 210.939 103.068 210.316 103.195 209.692C102.839 271.606 230.622 319.046 256.693 307.032Z" fill="url(#paint1_linear_105_1297)"/>
<path style="mix-blend-mode:multiply" opacity="0.72" d="M173.762 199.298C228.781 216.614 253.969 249.074 262.885 263.643C264.396 266.061 265.745 268.536 266.927 271.056L266.751 271.02C265.734 269.365 264.832 267.715 263.657 266.046C263.017 265.136 262.34 264.293 261.67 263.414C225.957 216.279 158.482 213.774 197.086 243.255C203.342 248.076 209.989 252.534 216.972 256.593C233.254 266.003 248.196 270.612 262.232 271.008C254.973 270.969 247.675 270.24 240.48 268.833C168.427 254.907 109.207 178.997 173.762 199.298Z" fill="url(#paint2_linear_105_1297)"/>
<path style="mix-blend-mode:multiply" opacity="0.72" d="M307.494 169.337C366.315 221.336 374.551 254.085 352.034 290.635C347.472 271.582 337.58 253.311 323.164 237.306C324.386 231.969 324.076 226.37 322.258 220.938C321.807 219.547 321.265 218.155 320.675 216.773C320.675 216.773 320.707 216.613 320.549 216.487C319.985 215.203 319.311 213.896 318.611 212.603C318.493 212.393 318.419 212.192 318.301 211.983C317.59 210.743 316.795 209.467 315.952 208.2C315.797 207.946 315.646 207.673 315.469 207.415C314.449 205.889 313.323 204.323 312.101 202.774C292.739 177.981 251.346 126.514 284.937 83.8353C285.27 83.4394 285.622 83.0657 285.933 82.6653C277.873 92.8053 258.618 126.198 307.494 169.337Z" fill="url(#paint3_linear_105_1297)"/>
<path style="mix-blend-mode:color-dodge" d="M231.753 225.108C251.652 239.284 264.657 255.078 271.908 270.718C279.531 286.475 280.722 303.442 275.292 318.92C279.655 304.963 277.519 288.325 266.901 271.07C265.747 268.54 264.406 266.06 262.886 263.643C253.966 249.091 228.869 216.632 173.762 199.298C146.543 190.737 141.394 199.318 149.891 213.134L149.777 213.018C128.429 186.372 173.949 183.877 231.753 225.108Z" fill="url(#paint4_linear_105_1297)"/>
<path style="mix-blend-mode:color-dodge" d="M307.494 169.337C258.728 126.22 277.88 92.7695 285.842 82.6649C296.194 70.2231 311.829 61.5249 330.041 58.075C273.14 76.9733 259.482 121.066 307.494 169.337Z" fill="url(#paint5_linear_105_1297)"/>
<path style="mix-blend-mode:color-dodge" d="M183.389 353.558C189.984 354.421 196.454 355.222 202.696 355.902C218.861 357.828 234.905 355.379 248.372 348.929C240.298 353.851 212.361 362.978 165.011 355.319C120.864 348.166 58.453 355.936 30.6908 381.301C52.7752 360.364 96.5479 343.036 183.389 353.558Z" fill="url(#paint6_linear_105_1297)"/>
<path style="mix-blend-mode:color-dodge" opacity="0.44" d="M149.777 213.018L149.891 213.134C161.525 232.045 198.85 260.819 240.572 268.944C262.544 280.277 273.291 292.622 264.374 301.9C237.204 318.737 147.783 272.835 122.312 236.811C105.397 212.851 127.965 202.814 144.998 198.755C143.533 202.112 144.893 206.918 149.777 213.018Z" fill="url(#paint7_linear_105_1297)"/>
<path style="mix-blend-mode:color-dodge" opacity="0.44" d="M353.247 296.505C352.883 294.575 352.498 292.641 352.134 290.71C357.224 282.767 360.758 274.134 362.616 265.104C362.663 264.978 362.69 264.846 362.696 264.712C364.546 254.555 363.459 243.984 359.519 233.831C348.635 191.226 314.559 154.855 307.001 140.043C305.055 136.306 307.602 135.86 312.752 137.505C325.97 164.738 354.506 195.189 366.263 216.871C373.605 230.434 376.279 245.116 373.976 259.212C371.672 273.307 364.484 286.239 353.247 296.505Z" fill="url(#paint8_linear_105_1297)"/>
<path d="M249.011 184.517C279.866 199.109 304.971 217.02 323.017 237.35C338.971 254.987 349.37 275.376 353.18 296.492C356.808 317.183 354.101 339.105 344.075 361.687C316.697 423.413 246.877 444.315 169.747 428.611C96.789 413.721 87.1589 456.297 87.1589 456.297C46.5921 455.442 26.8282 442.853 17.3083 429.329C69.1382 312.351 195.286 383.101 245.452 361.325C302.969 336.372 294.369 288.424 287.356 267.339C283.889 256.987 278.781 246.949 272.169 237.496C241.982 194.217 157.898 147.92 114.516 186.948C135.835 163.349 184.099 153.935 249.011 184.517Z" fill="url(#paint9_linear_105_1297)"/>
<path d="M353.669 197.598C346.364 188.406 337.715 179.05 320.675 158.962C292.932 126.204 270.745 72.4019 326.56 61.5221C363.157 54.3852 392.533 71.2744 415.479 90.6559C394.093 74.7663 357.622 66.0984 321.61 87.2369C281.814 110.61 326.489 160.056 353.669 197.598Z" fill="url(#paint10_linear_105_1297)"/>
<g style="mix-blend-mode:multiply" opacity="0.27">
<path d="M114.513 186.966C135.836 163.349 184.099 153.935 249.012 184.516C267.822 193.282 285.29 204.041 300.924 216.491C286.084 207.894 245.337 186.439 200.546 182.327C169.695 169.406 136.75 166.969 114.513 186.966Z" fill="#632C53"/>
</g>
<g style="mix-blend-mode:color-dodge" opacity="0.6">
<path d="M199.769 292.075C201.159 295.161 184.063 287.384 187.481 285.595C190.899 283.806 197.982 288.351 199.769 292.075Z" fill="#8C8789"/>
</g>
<g style="mix-blend-mode:color-dodge" opacity="0.6">
<path d="M341.69 191.516C341.327 193.297 335.001 185.826 337.574 185.702C340.148 185.577 342.134 189.342 341.69 191.516Z" fill="#8C8789"/>
</g>
<g style="mix-blend-mode:color-dodge" opacity="0.6">
<path d="M183.512 285.472C182.378 283.607 185.455 281.915 186.066 284.991C186.678 288.067 184.89 287.72 183.512 285.472Z" fill="#8C8789"/>
</g>
<g style="mix-blend-mode:multiply" opacity="0.33">
<path d="M309.228 306.489C324.27 307.127 322.852 329.034 306.89 330.992C290.929 332.95 294.165 305.846 309.228 306.489Z" fill="#632C53"/>
</g>
<path d="M309.554 303.994C324.617 304.637 323.174 326.558 307.238 328.502C291.302 330.446 294.446 303.342 309.554 303.994Z" fill="#2AAC83"/>
<g style="mix-blend-mode:multiply" opacity="0.49">
<g style="mix-blend-mode:multiply" opacity="0.49">
<path d="M308.85 310.031C316.471 310.361 315.7 321.451 307.67 322.447C299.639 323.444 301.224 309.718 308.85 310.031Z" fill="black"/>
</g>
</g>
<g style="mix-blend-mode:multiply">
<g style="mix-blend-mode:multiply">
<path d="M308.535 312.472C311.95 312.612 313.68 314.933 313.839 317.526C314.919 314.146 313.333 310.222 308.85 310.031C304.367 309.84 302.29 313.945 302.348 317.483C303.136 314.748 305.29 312.293 308.535 312.472Z" fill="black"/>
</g>
</g>
<g style="mix-blend-mode:multiply" opacity="0.33">
<path d="M337.794 322.397C352.836 323.035 351.418 344.942 335.456 346.9C319.495 348.857 322.731 321.754 337.794 322.397Z" fill="#632C53"/>
</g>
<path d="M339.377 320.827C354.441 321.47 353.001 343.372 337.039 345.33C321.078 347.287 324.336 320.188 339.377 320.827Z" fill="#2AAC83"/>
<g style="mix-blend-mode:multiply" opacity="0.33">
<path d="M302.65 271.128C316.884 268.076 323.473 289.891 309.339 295.71C295.206 301.53 288.416 274.181 302.65 271.128Z" fill="#632C53"/>
</g>
<path d="M303.452 268.211C317.69 265.14 324.274 286.973 310.145 292.775C296.015 298.577 289.218 271.263 303.452 268.211Z" fill="#2AAC83"/>
<g style="mix-blend-mode:multiply" opacity="0.49">
<g style="mix-blend-mode:multiply" opacity="0.49">
<path d="M305.057 274.292C312.261 272.737 315.568 283.86 308.441 286.73C301.313 289.6 297.836 275.824 305.057 274.292Z" fill="black"/>
</g>
</g>
<g style="mix-blend-mode:multiply">
<g style="mix-blend-mode:multiply">
<path d="M305.613 276.743C308.853 276.05 311.298 277.903 312.371 280.405C312.162 276.818 309.219 273.359 305.057 274.291C300.896 275.224 300.347 279.714 301.683 283.179C301.42 280.305 302.541 277.397 305.613 276.743Z" fill="black"/>
</g>
</g>
<g style="mix-blend-mode:multiply" opacity="0.33">
<path d="M332.294 282.542C346.506 279.485 353.094 301.3 338.983 307.124C324.872 312.948 318.075 285.634 332.294 282.542Z" fill="#632C53"/>
</g>
<path d="M333.87 280.896C348.104 277.843 354.692 299.658 340.559 305.478C326.426 311.298 319.636 283.948 333.87 280.896Z" fill="#2AAC83"/>
<g style="mix-blend-mode:multiply" opacity="0.49">
<g style="mix-blend-mode:multiply" opacity="0.49">
<path d="M335.467 286.9C342.667 285.363 346 296.473 338.869 299.361C331.738 302.248 328.249 288.527 335.467 286.9Z" fill="black"/>
</g>
</g>
<g style="mix-blend-mode:multiply">
<g style="mix-blend-mode:multiply">
<path d="M336.027 289.446C339.267 288.753 341.712 290.606 342.785 293.108C342.576 289.521 339.632 286.062 335.453 286.972C331.273 287.882 330.761 292.417 332.1 295.864C331.837 292.99 333.043 290.118 336.027 289.446Z" fill="black"/>
</g>
</g>
<g style="mix-blend-mode:multiply" opacity="0.33">
<path d="M285.475 242.03C296.26 234.172 313.201 252.384 304 262.829C294.798 273.274 274.69 249.888 285.475 242.03Z" fill="#632C53"/>
</g>
<path d="M285.451 239.334C296.236 231.476 313.177 249.688 304.001 260.12C294.826 270.552 274.644 247.188 285.451 239.334Z" fill="#2AAC83"/>
<g style="mix-blend-mode:multiply" opacity="0.49">
<g style="mix-blend-mode:multiply" opacity="0.49">
<path d="M289.999 244.494C295.403 240.511 304.077 249.742 299.33 255.009C294.582 260.276 284.526 248.481 289.999 244.494Z" fill="black"/>
</g>
</g>
<g style="mix-blend-mode:multiply">
<g style="mix-blend-mode:multiply">
<path d="M291.769 246.619C294.221 244.836 297.303 245.707 299.535 247.703C297.502 244.392 293.207 242.161 289.999 244.494C286.791 246.828 288.621 251.247 291.662 254.113C289.961 251.428 289.426 248.312 291.769 246.619Z" fill="black"/>
</g>
</g>
<g style="mix-blend-mode:multiply" opacity="0.33">
<path d="M318.144 249.532C328.929 241.674 345.98 259.908 336.694 270.318C327.408 280.727 307.359 257.39 318.144 249.532Z" fill="#632C53"/>
</g>
<path d="M318.136 247.545C328.921 239.687 345.862 257.899 336.683 268.349C327.504 278.799 307.351 255.403 318.136 247.545Z" fill="#2AAC83"/>
<g style="mix-blend-mode:multiply" opacity="0.49">
<g style="mix-blend-mode:multiply" opacity="0.49">
<path d="M322.677 252.74C328.08 248.758 336.754 257.989 332.003 263.273C327.252 268.558 317.211 256.691 322.677 252.74Z" fill="black"/>
</g>
</g>
<g style="mix-blend-mode:multiply">
<g style="mix-blend-mode:multiply">
<path d="M324.453 254.83C326.906 253.047 329.988 253.917 332.22 255.913C330.187 252.603 325.891 250.372 322.683 252.705C319.476 255.039 321.305 259.458 324.347 262.324C322.646 259.639 322.111 256.523 324.453 254.83Z" fill="black"/>
</g>
</g>
<g style="mix-blend-mode:multiply" opacity="0.33">
<path d="M262.194 214.173C268.754 208.682 288.239 223.2 283.691 230.642C279.142 238.084 255.611 219.659 262.194 214.173Z" fill="#632C53"/>
</g>
<path d="M262.777 212.324C269.356 206.856 288.823 221.352 284.296 228.798C279.77 236.244 256.217 217.815 262.777 212.324Z" fill="#2AAC83"/>
<g style="mix-blend-mode:multiply" opacity="0.49">
<g style="mix-blend-mode:multiply" opacity="0.49">
<path d="M270.611 215.891C270.592 213.622 278.695 219.693 279.692 222.792C280.689 225.891 270.634 218.141 270.611 215.891Z" fill="black"/>
</g>
</g>
<g style="mix-blend-mode:multiply">
<g style="mix-blend-mode:multiply">
<path d="M272.398 217.257C272.374 216.25 274.027 216.921 275.917 218.235C273.39 216.105 270.609 214.554 270.611 215.89C270.614 217.227 273.67 220.022 276.276 221.872C274.232 220.193 272.407 218.224 272.398 217.257Z" fill="black"/>
</g>
</g>
<g style="mix-blend-mode:multiply" opacity="0.33">
<path d="M232.252 193.196C236.721 186.369 259.663 196.545 257.704 204.905C255.745 213.265 227.772 199.965 232.252 193.196Z" fill="#632C53"/>
</g>
<path d="M232.215 191.24C236.703 184.435 259.648 194.593 257.69 202.953C255.731 211.313 227.717 198.098 232.215 191.24Z" fill="#2AAC83"/>
<g style="mix-blend-mode:multiply" opacity="0.49">
<g style="mix-blend-mode:multiply" opacity="0.49">
<path d="M240.721 193.087C240.004 190.862 249.487 195.117 251.472 197.991C253.456 200.864 241.434 195.329 240.721 193.087Z" fill="black"/>
</g>
</g>
<g style="mix-blend-mode:multiply">
<g style="mix-blend-mode:multiply">
<path d="M242.837 194.076C242.512 193.082 244.26 193.402 246.465 194.297C243.433 192.732 240.3 191.777 240.714 193.123C241.127 194.47 244.92 196.58 247.918 197.86C245.857 196.999 244.092 195.685 242.837 194.076Z" fill="black"/>
</g>
</g>
<g style="mix-blend-mode:multiply" opacity="0.33">
<path d="M200.73 177.15C203.398 171.161 225.705 179.5 225.576 186.767C225.447 194.035 198.062 183.138 200.73 177.15Z" fill="#632C53"/>
</g>
<path d="M200.364 175.46C203.032 169.472 225.339 177.811 225.206 185.096C225.074 192.381 197.67 181.462 200.364 175.46Z" fill="#2AAC83"/>
<g style="mix-blend-mode:multiply" opacity="0.49">
<g style="mix-blend-mode:multiply" opacity="0.49">
<path d="M208.24 176.9C207.165 174.973 216.478 178.489 218.718 180.895C220.958 183.301 209.298 178.805 208.24 176.9Z" fill="black"/>
</g>
</g>
<g style="mix-blend-mode:multiply">
<g style="mix-blend-mode:multiply">
<path d="M210.302 177.711C209.834 176.855 211.439 177.09 213.562 177.82C210.568 176.522 207.6 175.768 208.241 176.901C208.882 178.034 212.63 179.801 215.539 180.84C213.543 180.145 211.745 179.071 210.302 177.711Z" fill="black"/>
</g>
</g>
<g style="mix-blend-mode:multiply" opacity="0.33">
<path d="M298.838 109.072C305.281 107.641 311.866 123.962 305.819 127.386C299.772 130.81 292.284 110.482 298.838 109.072Z" fill="#632C53"/>
</g>
<path d="M299.878 108.023C306.344 106.596 312.907 122.912 306.86 126.337C300.813 129.761 293.416 109.433 299.878 108.023Z" fill="#2AAC83"/>
<g style="mix-blend-mode:multiply" opacity="0.49">
<g style="mix-blend-mode:multiply" opacity="0.49">
<path d="M303.419 113.051C304.345 111.551 306.932 118.334 306.434 120.774C305.936 123.215 302.512 114.573 303.419 113.051Z" fill="black"/>
</g>
</g>
<g style="mix-blend-mode:multiply">
<g style="mix-blend-mode:multiply">
<path d="M303.999 114.599C304.416 113.905 305.189 114.842 305.915 116.456C305.188 114.174 304.031 112.193 303.486 113.065C302.94 113.938 303.75 116.831 304.573 118.985C303.944 117.555 303.747 116.047 303.999 114.599Z" fill="black"/>
</g>
</g>
<g style="mix-blend-mode:multiply" opacity="0.33">
<path d="M307.136 135.895C312.776 133.111 324.049 147.828 319.466 152.516C314.883 157.204 301.517 138.682 307.136 135.895Z" fill="#632C53"/>
</g>
<path d="M307.915 134.662C313.578 131.883 324.829 146.595 320.246 151.283C315.662 155.971 302.234 137.418 307.915 134.662Z" fill="#2AAC83"/>
<g style="mix-blend-mode:multiply" opacity="0.49">
<g style="mix-blend-mode:multiply" opacity="0.49">
<path d="M312.843 138.861C313.188 137.168 317.921 143.33 318.073 145.848C318.225 148.366 312.449 140.562 312.843 138.861Z" fill="black"/>
</g>
</g>
<g style="mix-blend-mode:multiply">
<g style="mix-blend-mode:multiply">
<path d="M313.866 140.257C314.022 139.491 315.092 140.322 316.189 141.696C314.789 139.555 313.09 137.872 312.842 138.86C313.266 140.863 314.276 142.79 315.783 144.471C314.744 143.189 314.085 141.742 313.866 140.257Z" fill="black"/>
</g>
</g>
<g style="mix-blend-mode:multiply" opacity="0.33">
<path d="M225.158 177.681C227.827 171.693 250.111 180.027 249.982 187.294C249.854 194.561 222.49 183.669 225.158 177.681Z" fill="#632C53"/>
</g>
<path d="M224.769 175.987C227.46 170.003 249.745 178.337 249.612 185.623C249.479 192.908 221.991 181.953 224.769 175.987Z" fill="#2AAC83"/>
<g style="mix-blend-mode:multiply" opacity="0.49">
<g style="mix-blend-mode:multiply" opacity="0.49">
<path d="M232.673 177.414C231.615 175.51 240.892 179.092 243.15 181.409C245.409 183.725 233.748 179.341 232.673 177.414Z" fill="black"/>
</g>
</g>
<g style="mix-blend-mode:multiply">
<g style="mix-blend-mode:multiply">
<path d="M234.756 178.229C234.266 177.368 235.892 177.607 238.012 178.355C234.996 177.053 232.05 176.304 232.673 177.414C233.295 178.525 237.058 180.332 239.968 181.371C237.979 180.67 236.189 179.591 234.756 178.229Z" fill="black"/>
</g>
</g>
<g style="mix-blend-mode:multiply" opacity="0.33">
<path d="M168.691 166.9C169.813 160.503 193.306 165.168 194.943 172.443C196.579 179.718 167.544 173.31 168.691 166.9Z" fill="#632C53"/>
</g>
<path d="M167.895 165.289C169.021 158.875 192.536 163.544 194.15 170.815C195.765 178.085 166.707 171.672 167.895 165.289Z" fill="#2AAC83"/>
<g style="mix-blend-mode:multiply" opacity="0.49">
<g style="mix-blend-mode:multiply" opacity="0.49">
<path d="M175.858 165.411C174.375 163.68 184.162 165.659 186.875 167.66C189.589 169.661 177.337 167.161 175.858 165.411Z" fill="black"/>
</g>
</g>
<g style="mix-blend-mode:multiply">
<g style="mix-blend-mode:multiply">
<path d="M178.032 165.892C177.366 165.106 178.978 165.082 181.214 165.483C178.008 164.662 174.986 164.398 175.858 165.411C176.73 166.424 180.782 167.603 183.837 168.153C181.747 167.783 179.754 167.007 178.032 165.892Z" fill="black"/>
</g>
</g>
<g style="mix-blend-mode:multiply" opacity="0.33">
<path d="M295.584 220.95C301.446 214.723 321.017 228.59 317.201 236.72C313.384 244.849 289.69 227.115 295.584 220.95Z" fill="#632C53"/>
</g>
<path d="M296.006 218.995C301.868 212.767 321.461 226.639 317.626 234.746C313.791 242.853 290.115 225.142 296.006 218.995Z" fill="#2AAC83"/>
<g style="mix-blend-mode:multiply" opacity="0.49">
<g style="mix-blend-mode:multiply" opacity="0.49">
<path d="M303.714 222.164C303.552 219.81 311.68 225.645 312.831 228.775C313.983 231.906 303.873 224.534 303.714 222.164Z" fill="black"/>
</g>
</g>
<g style="mix-blend-mode:multiply">
<g style="mix-blend-mode:multiply">
<path d="M305.509 223.495C305.426 222.439 307.028 223.026 308.928 224.286C306.387 222.227 303.605 220.787 303.715 222.164C303.824 223.541 306.909 226.305 309.401 228.039C307.46 226.418 305.58 224.494 305.509 223.495Z" fill="black"/>
</g>
</g>
<g style="mix-blend-mode:multiply" opacity="0.33">
<path d="M265.539 197.559C270.224 190.683 291.77 202.188 289.445 210.771C287.119 219.353 260.879 204.421 265.539 197.559Z" fill="#632C53"/>
</g>
<path d="M265.63 195.536C270.315 188.66 291.861 200.165 289.536 208.747C287.211 217.33 260.944 202.411 265.63 195.536Z" fill="#2AAC83"/>
<g style="mix-blend-mode:multiply" opacity="0.49">
<g style="mix-blend-mode:multiply" opacity="0.49">
<path d="M273.725 197.818C273.148 195.474 282.122 200.312 283.799 203.345C285.475 206.378 274.299 200.181 273.725 197.818Z" fill="black"/>
</g>
</g>
<g style="mix-blend-mode:multiply">
<g style="mix-blend-mode:multiply">
<path d="M275.703 198.928C275.436 197.871 277.122 198.271 279.184 199.304C276.354 197.539 273.389 196.433 273.726 197.819C274.062 199.205 277.555 201.551 280.402 203.005C278.43 202.012 276.799 200.597 275.703 198.928Z" fill="black"/>
</g>
</g>
<g style="mix-blend-mode:multiply" opacity="0.33">
<path d="M320.711 70.1641C324.77 73.5538 315.325 81.1468 309.835 78.4675C304.345 75.7882 316.655 66.7567 320.711 70.1641Z" fill="#632C53"/>
</g>
<path d="M322.52 69.9581C326.58 73.3477 317.134 80.9408 311.644 78.2615C306.155 75.5821 318.464 66.5507 322.52 69.9581Z" fill="#2AAC83"/>
<g style="mix-blend-mode:multiply" opacity="0.49">
<g style="mix-blend-mode:multiply" opacity="0.49">
<path d="M319.76 72.0121C321.698 73.7624 316.826 77.5007 314.151 76.101C311.476 74.7013 317.756 70.2482 319.76 72.0121Z" fill="black"/>
</g>
</g>
<g style="mix-blend-mode:multiply">
<g style="mix-blend-mode:multiply">
<path d="M318.634 72.803C319.532 73.58 319.042 74.7421 318.038 75.725C319.769 74.7791 321.014 73.0659 319.826 72.0254C318.638 70.985 316.324 71.9788 314.832 73.2148C316.141 72.4241 317.869 72.053 318.634 72.803Z" fill="black"/>
</g>
</g>
<g style="mix-blend-mode:multiply" opacity="0.33">
<path d="M336.794 64.5755C338.831 68.0906 328.054 70.7351 324.63 67.3823C321.205 64.0296 334.779 61.0649 336.794 64.5755Z" fill="#632C53"/>
</g>
<path d="M338.006 65.1571C340.021 68.6676 329.263 71.3345 325.952 67.9863C322.642 64.6382 336.057 61.66 338.006 65.1571Z" fill="#2AAC83"/>
<g style="mix-blend-mode:multiply" opacity="0.49">
<g style="mix-blend-mode:multiply" opacity="0.49">
<path d="M334.891 65.8013C336.054 67.5235 330.735 69.1846 328.881 67.5814C327.028 65.9783 333.727 64.0792 334.891 65.8013Z" fill="black"/>
</g>
</g>
<g style="mix-blend-mode:multiply">
<g style="mix-blend-mode:multiply">
<path d="M333.698 66.1333C334.206 66.9051 333.389 67.6477 332.237 68.1179C334.021 67.8138 335.579 66.8141 335.001 65.8238C334.422 64.8335 332.044 65.0162 330.452 65.6193C331.714 65.283 333.205 65.4016 333.698 66.1333Z" fill="black"/>
</g>
</g>
<g style="mix-blend-mode:multiply" opacity="0.33">
<path d="M343.718 62.9265C342.504 65.4998 353.736 68.3859 356.396 66.0337C359.057 63.6815 344.957 60.34 343.718 62.9265Z" fill="#632C53"/>
</g>
<path d="M342.745 63.3031C341.506 65.8896 352.76 68.7802 355.398 66.4235C358.037 64.0668 343.981 60.7343 342.745 63.3031Z" fill="#2AAC83"/>
<g style="mix-blend-mode:multiply" opacity="0.49">
<g style="mix-blend-mode:multiply" opacity="0.49">
<path d="M345.398 64.3639C344.886 65.1873 350.781 66.6687 351.958 65.9624C353.135 65.2561 345.947 63.4737 345.398 64.3639Z" fill="black"/>
</g>
</g>
<g style="mix-blend-mode:multiply">
<g style="mix-blend-mode:multiply">
<path d="M346.72 64.6341C346.482 65.0124 347.552 65.509 348.9 65.8769C347.027 65.4946 345.12 64.8271 345.405 64.3286C345.691 63.8301 348.07 64.2044 349.922 64.6935C348.401 64.3832 347.002 64.2647 346.72 64.6341Z" fill="black"/>
</g>
</g>
<g style="mix-blend-mode:multiply" opacity="0.33">
<path d="M303.261 103.368C307.035 107.368 316.46 94.9266 313.681 89.2C310.902 83.4734 299.578 99.3688 303.261 103.368Z" fill="#632C53"/>
</g>
<path d="M304.8 103.59C308.574 107.589 317.999 95.1483 315.22 89.4217C312.44 83.6951 301.117 99.5905 304.8 103.59Z" fill="#2AAC83"/>
<g style="mix-blend-mode:multiply" opacity="0.49">
<g style="mix-blend-mode:multiply" opacity="0.49">
<path d="M313.017 93.3519C311.891 91.8971 307.014 98.4739 307.621 100.788C308.227 103.101 314.169 94.7933 313.017 93.3519Z" fill="black"/>
</g>
</g>
<g style="mix-blend-mode:multiply">
<g style="mix-blend-mode:multiply">
<path d="M311.982 94.8292C311.474 94.1687 310.195 95.1511 309.023 96.6194C310.391 94.4118 312.344 92.4905 313.018 93.3517C313.691 94.213 312.133 97.0128 310.522 99.0596C311.66 97.3061 312.453 95.445 311.982 94.8292Z" fill="black"/>
</g>
</g>
<g style="mix-blend-mode:multiply" opacity="0.33">
<path d="M318.199 86.5219C319.875 89.555 328.346 83.0251 327.604 79.0134C326.862 75.0017 316.522 83.4888 318.199 86.5219Z" fill="#632C53"/>
</g>
<path d="M319.165 86.8491C320.841 89.8822 329.312 83.3523 328.574 79.3228C327.835 75.2933 317.485 83.8338 319.165 86.8491Z" fill="#2AAC83"/>
<g style="mix-blend-mode:multiply" opacity="0.49">
<g style="mix-blend-mode:multiply" opacity="0.49">
<path d="M326.287 81.4171C325.745 80.36 321.597 84.0418 321.669 85.597C321.742 87.1523 326.829 82.4741 326.287 81.4171Z" fill="black"/>
</g>
</g>
<g style="mix-blend-mode:multiply">
<g style="mix-blend-mode:multiply">
<path d="M325.382 82.2533C325.135 81.776 324.163 82.2644 323.192 83.0869C324.415 81.8148 325.955 80.7928 326.287 81.4172C326.618 82.0417 325.182 83.6788 323.848 84.817C324.834 83.8118 325.636 82.6949 325.382 82.2533Z" fill="black"/>
</g>
</g>
<g style="mix-blend-mode:multiply" opacity="0.33">
<path d="M330.209 76.2597C330.057 79.4765 339.237 77.0073 340.644 73.3783C342.05 69.7494 330.382 73.0473 330.209 76.2597Z" fill="#632C53"/>
</g>
<path d="M330.65 76.907C330.499 80.1239 339.789 77.6771 341.089 74.0079C342.389 70.3386 330.934 73.7171 330.65 76.907Z" fill="#2AAC83"/>
<g style="mix-blend-mode:multiply" opacity="0.49">
<g style="mix-blend-mode:multiply" opacity="0.49">
<path d="M338.355 74.6932C338.309 73.5703 333.79 75.469 333.319 76.8762C332.848 78.2834 338.405 75.7984 338.355 74.6932Z" fill="black"/>
</g>
</g>
<g style="mix-blend-mode:multiply">
<g style="mix-blend-mode:multiply">
<path d="M337.373 75.1238C337.335 74.6336 336.417 74.7433 335.372 75.1424C336.758 74.4231 338.328 74.0383 338.355 74.6934C338.382 75.3485 336.692 76.3212 335.269 76.8844C336.395 76.3162 337.388 75.6095 337.373 75.1238Z" fill="black"/>
</g>
</g>
<g style="mix-blend-mode:multiply" opacity="0.33">
<path d="M343.71 70.4965C341.601 73.0726 351.564 74.8646 354.944 72.3622C358.323 69.8598 345.801 67.8982 343.71 70.4965Z" fill="#632C53"/>
</g>
<path d="M343.807 71.259C341.716 73.8573 351.661 75.6271 355.041 73.1247C358.42 70.6223 345.895 68.6784 343.807 71.259Z" fill="#2AAC83"/>
<g style="mix-blend-mode:multiply" opacity="0.49">
<g style="mix-blend-mode:multiply" opacity="0.49">
<path d="M346.081 71.9267C345.29 72.7674 350.504 73.646 351.971 72.869C353.438 72.0919 346.839 71.135 346.081 71.9267Z" fill="black"/>
</g>
</g>
<g style="mix-blend-mode:multiply">
<g style="mix-blend-mode:multiply">
<path d="M347.227 72.1606C346.871 72.552 347.735 72.9324 348.925 73.1752C347.217 72.9938 345.598 72.4962 346.067 71.998C346.535 71.4998 348.668 71.6196 350.303 71.9346C348.955 71.7895 347.553 71.8002 347.227 72.1606Z" fill="black"/>
</g>
</g>
<g style="mix-blend-mode:multiply" opacity="0.33">
<path d="M300.435 81.4487C307.531 82.8968 303.548 99.9377 295.605 100.395C287.661 100.853 293.307 79.9383 300.435 81.4487Z" fill="#632C53"/>
</g>
<path d="M302.259 81.0602C309.354 82.5082 305.372 99.5491 297.432 99.9888C289.492 100.428 295.09 79.5229 302.259 81.0602Z" fill="#2AAC83"/>
<g style="mix-blend-mode:multiply" opacity="0.49">
<g style="mix-blend-mode:multiply" opacity="0.49">
<path d="M302.392 86.9334C304.233 86.01 302.536 93.0873 300.396 94.9147C298.255 96.7421 300.573 87.8613 302.392 86.9334Z" fill="black"/>
</g>
</g>
<g style="mix-blend-mode:multiply">
<g style="mix-blend-mode:multiply">
<path d="M301.98 88.5011C302.798 88.0927 302.918 89.305 302.591 90.9085C303.335 88.6106 303.511 86.4008 302.392 86.9334C301.274 87.4661 300.244 90.3738 299.771 92.5786C300.088 91.0668 300.845 89.669 301.98 88.5011Z" fill="black"/>
</g>
</g>
<defs>
<linearGradient id="paint0_linear_105_1297" x1="600.367" y1="242.809" x2="212.287" y2="302.037" gradientUnits="userSpaceOnUse">
<stop stop-color="#1F1F1F"/>
<stop offset="1" stop-color="#282828"/>
</linearGradient>
<linearGradient id="paint1_linear_105_1297" x1="159.377" y1="296.638" x2="197.453" y2="242.596" gradientUnits="userSpaceOnUse">
<stop stop-color="white"/>
<stop offset="1" stop-color="#282828"/>
</linearGradient>
<linearGradient id="paint2_linear_105_1297" x1="-80068.5" y1="-4032.36" x2="-79830.5" y2="-5198.68" gradientUnits="userSpaceOnUse">
<stop stop-color="white"/>
<stop offset="1" stop-color="#1C1B1B"/>
</linearGradient>
<linearGradient id="paint3_linear_105_1297" x1="-74217.4" y1="20572.5" x2="-72440.6" y2="11866.5" gradientUnits="userSpaceOnUse">
<stop stop-color="white"/>
<stop offset="1" stop-color="#2C2C2C"/>
</linearGradient>
<linearGradient id="paint4_linear_105_1297" x1="293.965" y1="300.445" x2="169.153" y2="174.196" gradientUnits="userSpaceOnUse">
<stop stop-color="#303030"/>
<stop offset="0.75" stop-color="#2E121B"/>
<stop offset="0.91" stop-color="#0D0508"/>
<stop offset="1"/>
</linearGradient>
<linearGradient id="paint5_linear_105_1297" x1="-27657.6" y1="7935.89" x2="-29214.5" y2="7618.15" gradientUnits="userSpaceOnUse">
<stop stop-color="#383838"/>
<stop offset="0.75" stop-color="#2E121B"/>
<stop offset="0.91" stop-color="#0D0508"/>
<stop offset="1"/>
</linearGradient>
<linearGradient id="paint6_linear_105_1297" x1="-115437" y1="-1734.27" x2="-127834" y2="-4264.33" gradientUnits="userSpaceOnUse">
<stop stop-color="#404040"/>
<stop offset="0.75" stop-color="#2E121B"/>
<stop offset="0.91" stop-color="#0D0508"/>
<stop offset="1"/>
</linearGradient>
<linearGradient id="paint7_linear_105_1297" x1="125.191" y1="251.605" x2="566.093" y2="211.138" gradientUnits="userSpaceOnUse">
<stop/>
<stop offset="1" stop-color="#383838"/>
</linearGradient>
<linearGradient id="paint8_linear_105_1297" x1="-52520.8" y1="14864.6" x2="-63563.8" y2="7993.18" gradientUnits="userSpaceOnUse">
<stop/>
<stop offset="1" stop-color="#383838"/>
</linearGradient>
<linearGradient id="paint9_linear_105_1297" x1="66.1647" y1="441.175" x2="329.964" y2="66.7544" gradientUnits="userSpaceOnUse">
<stop stop-color="#181818"/>
<stop offset="1" stop-color="#303030"/>
</linearGradient>
<linearGradient id="paint10_linear_105_1297" x1="-76071" y1="15838.2" x2="-69203" y2="-17814.8" gradientUnits="userSpaceOnUse">
<stop stop-color="#181818"/>
<stop offset="1" stop-color="#303030"/>
</linearGradient>
</defs>
</svg>
