<svg width="93" height="93" viewBox="0 0 93 93" fill="none" xmlns="http://www.w3.org/2000/svg">
<rect width="93" height="93" fill="#F1F1F1"/>
<g style="mix-blend-mode:multiply">
<path d="M69.7192 67.1631L51.7195 88.2633L4 78.1155L17.3688 72.4828L49.5536 84.0358L69.7192 67.1631Z" fill="#EDECEB"/>
</g>
<path d="M69.7182 67.1633L66.1447 42.0444L35.9102 40.4258L42.3337 84.1543L49.8703 85.8889L69.7182 67.1633Z" fill="#38015A"/>
<path d="M13.3809 54.1818L18.6889 78.7141L42.3353 84.1543L35.9118 40.4258L13.3809 54.1818Z" fill="#290142"/>
<path d="M66.1456 42.0444L45.8223 57.644L49.8712 85.8889L69.7191 67.1634L66.1456 42.0444Z" fill="#6C00AC"/>
<path d="M13.3809 54.1821L18.6889 78.7144L49.8719 85.8892L45.823 57.6443L13.3809 54.1821Z" fill="#4F007D"/>
<path d="M47.9512 72.4826L48.1367 73.7766L67.7643 53.4115L67.5788 52.1152L47.9512 72.4826Z" fill="#4F007D"/>
<path d="M48.3613 75.3509L48.5468 76.6449L68.1722 56.2821L67.9866 54.9858L48.3613 75.3509Z" fill="#4F007D"/>
<path d="M68.3945 57.8579L48.7715 78.2183L48.957 79.5123L68.58 59.1542L68.3945 57.8579Z" fill="#4F007D"/>
<path d="M69.7187 67.1637L69.6213 66.4727L61.2754 75.1316L69.7187 67.1637Z" fill="#4F007D"/>
<path d="M47.5391 69.6148L47.7246 70.9088L67.3545 50.5414L67.1713 49.2451L47.5391 69.6148Z" fill="#4F007D"/>
<path d="M46.3066 61.0092L46.4922 62.3031L65.649 42.4297L60.1438 46.6548L46.3066 61.0092Z" fill="#4F007D"/>
<path d="M68.9898 62.0243L68.8043 60.728L49.1836 81.0861L49.3691 82.3801L68.9898 62.0243Z" fill="#4F007D"/>
<path d="M69.3973 64.8955L69.2141 63.6016L49.5957 83.955L49.7812 85.249L69.3973 64.8955Z" fill="#4F007D"/>
<path d="M45.8945 58.1424L46.08 59.434L53.4427 51.7954L47.9375 56.0205L45.8945 58.1424Z" fill="#4F007D"/>
<path d="M46.7168 63.8773L46.9023 65.1712L66.5369 44.7969L66.3537 43.5029L46.7168 63.8773Z" fill="#4F007D"/>
<path d="M47.1289 66.7456L47.3144 68.0395L66.9467 47.6698L66.7635 46.3735L47.1289 66.7456Z" fill="#4F007D"/>
<path d="M47.376 68.4753L26.2643 55.5564L23.8711 55.3013L47.5662 69.8017L47.376 68.4753Z" fill="#340155"/>
<path d="M47.7992 71.4138L20.9596 54.9909L18.5664 54.7358L47.9893 72.7402L47.7992 71.4138Z" fill="#340155"/>
<path d="M48.2185 74.3524L15.6534 54.4233L13.3809 54.1821L13.3948 54.2517L48.4087 75.6788L48.2185 74.3524Z" fill="#340155"/>
<path d="M48.6408 77.29L13.7637 55.9463L14.0651 57.34L48.8309 78.6164L48.6408 77.29Z" fill="#340155"/>
<path d="M46.534 62.5997L36.8756 56.6887L34.4824 56.4336L46.7242 63.9238L46.534 62.5997Z" fill="#340155"/>
<path d="M39.7891 56.999L46.303 60.9853L46.1129 59.6612L42.1822 57.2564L39.7891 56.999Z" fill="#340155"/>
<path d="M46.9529 65.5377L31.5689 56.1228L29.1758 55.8677L47.143 66.8618L46.9529 65.5377Z" fill="#340155"/>
<path d="M28.2949 80.9233L17.7715 74.4858L18.0729 75.8772L25.1295 80.1951L28.2949 80.9233Z" fill="#340155"/>
<path d="M35.3143 82.5409L17.1035 71.396L17.405 72.7897L32.1489 81.8127L35.3143 82.5409Z" fill="#340155"/>
<path d="M18.6876 78.7138L21.2755 79.3098L18.4395 77.5752L18.6876 78.7138Z" fill="#340155"/>
<path d="M49.0586 80.2292L14.4297 59.0386L14.7312 60.4323L49.2488 81.5556L49.0586 80.2292Z" fill="#340155"/>
<path d="M49.4808 83.1659L15.0977 62.126L15.3991 63.5197L49.671 84.4923L49.4808 83.1659Z" fill="#340155"/>
<path d="M42.3336 84.1539L16.4355 68.3062L16.737 69.6998L39.1683 83.4257L42.3336 84.1539Z" fill="#340155"/>
<path d="M49.3534 85.7706L15.7656 65.2153L16.0694 66.609L46.188 85.0424L49.3534 85.7706Z" fill="#340155"/>
<path d="M25.7188 55.5225L31.4396 81.6177L36.1332 82.6426L31.1637 56.0234L25.7188 55.5225Z" fill="#27D89F"/>
<g style="mix-blend-mode:multiply">
<path d="M25.7188 55.5225L31.4396 81.6177L30.2709 81.4275L25.7188 55.5225Z" fill="#A000FF"/>
</g>
<path d="M55.5801 50.0188L59.68 76.7586L62.6227 73.6767L58.9866 47.5166L55.5801 50.0188Z" fill="#27D89F"/>
<g style="mix-blend-mode:multiply">
<path d="M55.5801 50.019L59.68 76.7589L58.771 77.6123L55.5801 50.019Z" fill="#A000FF"/>
</g>
<path d="M78.8553 63.3646L44.0339 44.3885L42.0442 33.9695L40.043 23.4716L45.9169 15.3691L76.4807 34.1851L86.2899 54.7357L78.8553 63.3646Z" fill="#6C00AC"/>
<path d="M78.8566 63.3651L44.0352 44.3891L52.3393 35.584L86.2912 54.7362L78.8566 63.3651Z" fill="#4F007D"/>
<path d="M52.3392 35.5835L45.918 15.3691L76.4818 34.1851L86.291 54.7357L52.3392 35.5835Z" fill="#4F007D"/>
<g style="mix-blend-mode:multiply">
<path d="M42.0449 33.9694L49.3473 25.9829L81.6782 45.1097L49.3195 26.6786L42.0449 33.9694Z" fill="#A000FF"/>
</g>
<path d="M49.3462 25.984L42.0438 33.9705L41.2832 30.1558L48.087 22.167L79.5158 40.3708L81.6771 45.1107L49.3462 25.984Z" fill="#27D89F"/>
<g style="mix-blend-mode:multiply">
<path d="M61.4967 24.9292L67.8344 44.2391L60.168 53.188L67.2176 43.8565L61.4967 24.9292Z" fill="#A000FF"/>
</g>
<path d="M60.168 53.188L67.8344 44.2391L61.4967 24.9292L66.4384 27.9717L72.7112 47.059L64.8105 55.7759L60.168 53.188Z" fill="#27D89F"/>
<path d="M72.6246 48.463C72.6246 48.463 69.1114 47.8902 68.0701 49.2654C67.7362 50.5733 67.1426 54.8077 74.9853 58.9563C82.828 63.1049 86.369 56.6953 86.3945 54.5758C85.3579 55.8883 82.7607 57.5904 81.5989 57.5116C83.9411 55.6425 82.712 53.2331 82.712 53.2331C82.712 53.2331 80.0638 59.8561 75.841 58.0009C71.6181 56.1457 70.5561 49.8938 72.6246 48.463Z" fill="#228B6A"/>
<g style="mix-blend-mode:multiply">
<path d="M66.9414 37.0796C66.9414 37.0796 73.3348 41.7453 73.4067 44.433C73.4785 47.1207 68.4719 46.8563 67.8644 49.2773C67.4933 50.7661 67.9107 52.227 68.4163 52.9482C67.7206 51.3968 67.8829 49.813 68.0522 49.3329C69.1305 48.679 69.8888 48.3428 72.5997 48.4981C72.6971 48.4541 76.0781 45.1287 76.1175 44.8643C76.1569 44.6 75.4937 42.8236 75.4937 42.8236L72.1127 39.1295L69.5618 38.2182L66.9414 37.0796Z" fill="#CCCCCC"/>
</g>
<path d="M73.8744 43.7969C74.4634 46.9692 68.8979 46.619 68.0353 49.3485C70.0527 46.9854 76.5226 50.5868 78.1969 45.8051C80.7339 38.5676 69.473 38.3381 68.0793 36.418C67.961 36.9119 67.8474 36.8493 67.168 37.0905C68.7263 38.4818 73.5173 41.8652 73.8744 43.7969Z" fill="#27D89F"/>
<g style="mix-blend-mode:multiply">
<path d="M67.3301 36.8896C72.1234 38.9256 78.0158 36.8479 81.2438 33.5874C74.9293 34.8953 67.3301 36.8896 67.3301 36.8896Z" fill="#CCCCCC"/>
</g>
<path d="M67.2441 36.7754C67.2441 36.7754 77.0835 41.3531 86.9715 27.4811L82.5655 20.7886C82.5655 20.7886 78.2082 33.1347 67.2441 36.7754Z" fill="#2AAC83"/>
<g style="mix-blend-mode:multiply">
<path d="M67.3301 36.8894C67.3301 36.8894 72.6173 28.5412 86.9995 27.5765C82.1992 26.8715 72.5176 25.7909 67.3301 36.8894Z" fill="#CCCCCC"/>
</g>
<path d="M67.3298 36.8891C67.3298 36.8891 66.5761 26.6022 82.5908 20.7979C84.3035 22.889 85.7811 25.1621 86.9969 27.5762C86.9969 27.5762 73.7765 27.3025 67.3298 36.8891Z" fill="#27D89F"/>
<path d="M63.6756 55.2534C63.6756 55.2534 64.0721 53.3101 62.0523 51.6544C58.9449 49.1036 51.8049 47.9209 49.959 56.9068C48.3056 64.9698 58.8614 66.8273 58.8614 66.8273C58.5708 65.3763 57.7277 64.0949 56.51 63.2538C59.5455 62.3541 60.4685 60.5059 60.4685 60.5059C60.4685 60.5059 56.8602 60.703 54.7824 59.5783C52.9783 58.5927 53.4142 55.6198 55.5013 55.1885C59.3739 54.3861 58.6319 58.4629 58.6319 58.4629L63.6756 55.2534Z" fill="#2AAC83"/>
<g style="mix-blend-mode:multiply">
<path d="M68.0566 36.0825C68.0566 36.0825 60.2139 36.8779 55.4136 43.0394C51.5271 48.0298 54.5695 57.7462 58.637 58.4535C56.4201 56.1345 54.0223 50.14 55.3186 46.6848C56.6149 43.2295 58.9616 39.6815 61.7954 38.6751C64.6292 37.6687 68.0566 36.0825 68.0566 36.0825Z" fill="#CCCCCC"/>
</g>
<path d="M67.8249 37.0634C67.8249 37.0634 59.1195 39.8879 58.3728 45.3351C57.6261 50.7824 61.8513 54.5298 63.6415 55.3252C62.3104 58.2146 58.6372 58.4558 58.6372 58.4558C58.6372 58.4558 53.1645 55.5107 54.3657 47.0326C55.5669 38.5545 68.0475 36.0825 68.0475 36.0825L67.8249 37.0634Z" fill="#27D89F"/>
<g style="mix-blend-mode:multiply">
<path d="M67.4512 37.0632C67.4512 37.0632 70.162 33.7077 69.5684 29.624C69.4246 32.7013 68.1028 36.2261 67.4512 37.0632Z" fill="#CCCCCC"/>
</g>
<g style="mix-blend-mode:multiply">
<path d="M62.5137 25.2158C62.5137 25.2158 66.064 30.4659 67.3093 36.1311C68.5128 33.7797 64.9138 25.6703 62.5137 25.2158Z" fill="#CCCCCC"/>
</g>
<path d="M67.4464 37.0705C67.4464 37.0705 74.5424 28.0984 62.7065 14.9824L54.7617 17.9762C54.7617 17.9762 66.382 25.1325 67.4464 37.0705Z" fill="#2AAC83"/>
<g style="mix-blend-mode:multiply">
<path d="M54.7876 17.9437C54.7876 17.9437 53.8484 31.4772 66.3128 36.6113C61.0117 26.4079 62.3427 20.0331 62.8089 15.0195C60.5479 15.3071 54.7876 17.9437 54.7876 17.9437Z" fill="#CCCCCC"/>
</g>
<path d="M67.4509 37.0631C67.4509 37.0631 56.8417 35.4909 54.7871 17.9434C57.3499 16.6692 60.0422 15.6741 62.8177 14.9751C62.8177 14.9751 59.1792 28.3903 67.4509 37.0631Z" fill="#27D89F"/>
<g style="mix-blend-mode:multiply">
<path d="M67.7736 36.0101C69.2067 36.031 69.0676 37.5221 67.3098 37.3296C65.5521 37.1371 66.0112 35.9869 67.7736 36.0101Z" fill="#CCCCCC"/>
</g>
<path d="M67.7211 36.0101C68.8806 36.031 68.7786 37.5221 67.3385 37.3296C65.8984 37.1371 66.2834 35.9869 67.7211 36.0101Z" fill="#27D89F"/>
</svg>
