<svg width="18" height="20" viewBox="0 0 18 20" fill="none" xmlns="http://www.w3.org/2000/svg">
<path d="M3.95023 15.2037C3.46098 15.6282 2.95079 15.9312 2.75329 16.5913C2.48735 17.4849 2.91076 18.5237 3.7258 18.9782C4.11144 19.1938 4.56141 19.2568 4.99754 19.2096C5.48828 19.1567 5.91955 18.8387 6.30669 18.5571C7.09479 17.9833 7.70485 17.216 8.28425 16.4412C8.50867 16.1412 8.79219 15.8375 8.96238 15.5037H9.03719C9.2272 15.8787 9.54776 16.2162 9.79911 16.5537C10.3733 17.321 10.9919 18.0418 11.7677 18.6118C12.3239 19.0206 12.9272 19.3243 13.6379 19.1987C14.8865 18.9775 15.6577 17.5832 15.1804 16.4037C14.9852 15.9207 14.5476 15.5086 14.0868 15.2787C14.3205 15.2412 14.6014 15.3391 14.8348 15.3837C15.2579 15.4647 15.7512 15.5457 16.1814 15.4928C16.518 15.4516 16.8352 15.3511 17.1165 15.158C18.1896 14.4207 18.3101 12.8254 17.3409 11.9475C16.5644 11.2439 15.5115 11.511 14.573 11.2601C14.1002 11.1337 13.4475 10.8607 13.3211 10.3285C13.1913 9.78252 13.6951 9.25938 13.9517 8.82849C14.3659 8.12632 14.6372 7.34882 14.7499 6.54091C15.0866 4.19971 13.8287 1.80863 11.7677 0.686964C10.6665 0.0869434 9.33642 -0.123064 8.10209 0.0689428C5.75797 0.43383 3.80884 2.25077 3.32483 4.59085C3.14604 5.45563 3.17521 6.31965 3.36747 7.17843C3.51297 7.82533 3.80622 8.46023 4.16306 9.016C4.40394 9.39101 4.79257 9.84777 4.67848 10.3285C4.56178 10.8191 3.97977 11.0984 3.53878 11.2226C2.56141 11.4982 1.41422 11.2267 0.621255 11.982C-0.431672 12.9851 -0.0894236 14.7541 1.21972 15.3417C1.62219 15.5225 2.0284 15.5007 2.45406 15.4696C2.94667 15.4336 3.48492 15.38 3.95023 15.2037Z" fill="#2CF2B3"/>
<path d="M13.4509 16.2963L12.4784 15.565C12.0867 15.2688 11.8279 14.8428 12.0067 14.3418C12.1679 13.8891 12.6175 13.6457 13.0768 13.6667C13.3847 13.6814 13.6816 13.8505 13.9745 13.9382C14.4527 14.0757 14.9402 14.1777 15.4333 14.2435C15.896 14.3099 16.432 14.3268 16.6893 13.8527C16.9201 13.4279 16.7151 12.8541 16.2562 12.6943C15.8743 12.5612 15.3858 12.6193 14.9844 12.5717C13.8702 12.4378 12.5315 11.918 12.1705 10.7401C11.8713 9.7606 12.4271 9.02483 12.895 8.22755C13.1455 7.80678 13.3345 7.35213 13.4561 6.8775C14.092 4.32104 12.3265 1.70833 9.74935 1.27406C9.35174 1.20731 8.91673 1.17318 8.51501 1.23056C7.93337 1.31419 7.34987 1.46607 6.83182 1.75145C5.88679 2.27114 5.15202 3.10488 4.754 4.10915C4.35598 5.11342 4.31961 6.22539 4.65116 7.25364C5.03418 8.43793 6.3119 9.46209 5.80283 10.8163C5.73418 11.0032 5.64029 11.1799 5.5238 11.3413C4.88793 12.2064 3.76019 12.4858 2.75327 12.6054C2.3998 12.6474 1.9532 12.5679 1.63115 12.7442C1.01921 13.0787 1.11572 14.035 1.78076 14.2443C2.03436 14.3238 2.34519 14.2773 2.60365 14.2405C3.17547 14.1648 3.73898 14.0358 4.28684 13.855C4.89503 13.6476 5.5309 13.5291 5.92402 14.1925C6.16341 14.596 6.04372 15.1143 5.7067 15.4188C5.35062 15.7402 4.93169 16.0091 4.54717 16.2971C4.35604 16.4407 4.13124 16.5798 3.99584 16.7816C3.67416 17.2605 4.11029 17.9816 4.65939 18.0135C5.03343 18.0345 5.39101 17.7206 5.6693 17.5057C6.49668 16.866 7.08243 15.9956 7.70296 15.1675C8.01192 14.755 8.45105 14.164 9.03567 14.2004C9.57803 14.2341 9.96367 14.7321 10.2651 15.13C10.8584 15.9134 11.4067 16.7621 12.1776 17.3872C12.5086 17.6557 12.9841 18.1046 13.4494 17.9978C13.9603 17.88 14.3119 17.1915 13.9753 16.746C13.8387 16.5626 13.6315 16.4321 13.4509 16.2963Z" fill="#2CF2B3"/>
<path d="M6.86773 5.69886C5.87128 5.92912 6.23896 7.49892 7.24177 7.25217C8.22699 7.00878 7.85408 5.47048 6.86773 5.69886ZM10.7578 5.69886C9.76056 5.92987 10.1286 7.49892 11.1318 7.26604C12.135 7.03316 11.7572 5.4671 10.7578 5.69886Z" fill="#1C1B1B"/>
</svg>
