<svg width="287" height="237" viewBox="0 0 287 237" fill="none" xmlns="http://www.w3.org/2000/svg">
<path d="M29.7135 101.669C27.3971 52.8914 100.967 -8.40482 164.39 1.82561C231.381 12.6172 290.126 148.095 226.633 193.765C163.14 239.435 32.1457 151.138 29.7135 101.669Z" fill="#F9F9F9"/>
<path d="M189.203 200.012C189.203 200.012 226.636 151.157 287.094 179.193C287.094 179.193 258.556 231.124 195.481 204.823L189.203 200.012Z" fill="url(#paint0_linear_809_3576)"/>
<g style="mix-blend-mode:soft-light">
<path d="M286.976 179.285L189.086 200.104L198.351 204.152C198.351 204.152 251.744 226.613 286.976 179.285Z" fill="#ADADAD"/>
</g>
<path d="M86.6327 202.094C86.6327 202.094 22.0288 185.901 0 106.883C0 106.883 58.1412 91.9392 101.272 181.391L86.6327 202.094Z" fill="url(#paint1_linear_809_3576)"/>
<g style="mix-blend-mode:soft-light">
<path d="M4.95703 110.746L91.613 192.263L75.3983 194.415C75.3983 194.415 18.531 174.822 4.95703 110.746Z" fill="#ADADAD"/>
</g>
<path d="M204.723 181.345C204.723 181.345 219.432 131.38 263.652 136.631C263.652 136.631 258.277 187.544 204.723 181.345Z" fill="url(#paint2_radial_809_3576)"/>
<g style="mix-blend-mode:soft-light">
<path d="M263.652 136.631L206.715 178.06C206.715 178.06 248.757 190.366 263.652 136.631Z" fill="#ADADAD"/>
</g>
<path d="M144.103 83.8203C128.924 83.8157 114.084 88.3065 101.461 96.7246C88.838 105.143 78.9981 117.11 73.1862 131.113C67.3742 145.116 65.8512 160.526 68.8097 175.393C71.7682 190.261 79.0753 203.918 89.8069 214.638C100.539 225.359 114.213 232.66 129.1 235.619C143.987 238.578 159.418 237.061 173.442 231.262C187.466 225.462 199.453 215.639 207.887 203.036C216.32 190.433 220.822 175.615 220.822 160.457C220.822 140.135 212.739 120.646 198.353 106.275C183.966 91.9033 164.452 83.8264 144.103 83.8203ZM144.103 209.149C134.482 209.149 125.077 206.3 117.078 200.963C109.078 195.625 102.843 188.038 99.1617 179.162C95.4799 170.286 94.5166 160.518 96.3935 151.095C98.2704 141.672 102.903 133.017 109.706 126.223C116.509 119.429 125.177 114.803 134.613 112.928C144.049 111.054 153.83 112.016 162.718 115.693C171.607 119.369 179.204 125.596 184.549 133.584C189.894 141.573 192.747 150.965 192.747 160.572C192.686 173.426 187.538 185.735 178.425 194.813C169.312 203.892 156.975 209.003 144.103 209.034V209.149Z" fill="url(#paint3_linear_809_3576)"/>
<path d="M69.1216 116.205C69.1216 116.205 55.0611 150.186 71.6001 185.601C71.6001 185.601 98.7713 235.867 144.103 237.093C189.435 238.319 216.583 185.601 216.583 185.601C216.583 185.601 232.496 146.277 217.254 111.787L194.739 112.157C194.739 112.157 207.201 214.262 144.103 209.15C81.0046 204.037 86.6797 133.022 86.6797 133.022L69.1216 116.205Z" fill="url(#paint4_linear_809_3576)"/>
<path d="M144.079 63.6484C128.308 63.6439 112.89 68.3102 99.775 77.0573C86.66 85.8043 76.4372 98.239 70.3997 112.789C64.3623 127.338 62.7814 143.349 65.8571 158.796C68.9327 174.243 76.5267 188.432 87.6786 199.569C98.8304 210.705 113.039 218.289 128.507 221.36C143.976 224.432 160.008 222.853 174.578 216.824C189.148 210.795 201.6 200.586 210.359 187.489C219.118 174.392 223.791 158.995 223.786 143.246C223.78 122.137 215.38 101.895 200.434 86.9687C185.487 72.0427 165.217 63.6546 144.079 63.6484ZM144.079 196.542C133.542 196.542 123.242 193.421 114.48 187.575C105.719 181.729 98.8904 173.42 94.858 163.698C90.8256 153.977 89.7705 143.279 91.8262 132.959C93.8819 122.638 98.956 113.158 106.407 105.718C113.858 98.2769 123.351 93.2097 133.686 91.1569C144.02 89.104 154.732 90.1576 164.467 94.1845C174.203 98.2113 182.523 105.031 188.377 113.78C194.232 122.529 197.356 132.815 197.356 143.338C197.319 157.437 191.695 170.949 181.711 180.918C171.728 190.888 158.198 196.505 144.079 196.542Z" fill="url(#paint5_radial_809_3576)"/>
<path d="M221.632 124.441C217.033 105.512 205.645 88.9245 189.622 77.8181C173.599 66.7117 154.055 61.8576 134.689 64.1749C115.323 66.4922 97.4802 75.82 84.5386 90.3922C71.597 104.964 64.455 123.77 64.4649 143.247C64.4543 151.648 65.7915 159.997 68.4259 167.975C71.7944 178.269 77.2292 187.768 84.3981 195.894C91.5669 204.019 100.319 210.6 110.121 215.234C120.725 220.287 132.33 222.896 144.079 222.867C165.215 222.843 185.478 214.446 200.421 199.519C215.365 184.592 223.767 164.354 223.786 143.247C223.829 136.914 223.105 130.6 221.632 124.441ZM144.172 196.543C131.114 196.547 118.51 191.762 108.752 183.097C98.9949 174.432 92.7638 162.49 91.2423 149.539C90.9821 147.452 90.8506 145.35 90.8486 143.247C90.8486 129.121 96.4677 115.574 106.47 105.586C116.472 95.5971 130.038 89.9856 144.183 89.9856C158.329 89.9856 171.894 95.5971 181.897 105.586C191.899 115.574 197.518 129.121 197.518 143.247C197.542 143.532 197.542 143.818 197.518 144.103C197.317 158.109 191.593 171.47 181.588 181.288C171.584 191.106 158.106 196.587 144.079 196.543H144.172Z" fill="url(#paint6_radial_809_3576)"/>
<path d="M144.08 90.9961C133.542 90.9961 123.242 94.1164 114.481 99.9625C105.719 105.809 98.8906 114.118 94.8582 123.84C90.8258 133.561 89.7708 144.259 91.8265 154.579C93.8822 164.9 98.9562 174.38 106.407 181.82C113.858 189.261 123.351 194.328 133.686 196.381C144.02 198.434 154.733 197.38 164.468 193.353C174.203 189.327 182.524 182.507 188.378 173.758C194.232 165.009 197.356 154.722 197.356 144.2C197.326 130.099 191.703 116.584 181.718 106.613C171.733 96.6418 158.2 91.0266 144.08 90.9961ZM144.08 194.836C134.059 194.84 124.262 191.877 115.928 186.321C107.594 180.765 101.098 172.865 97.2599 163.622C93.4221 154.378 92.4156 144.206 94.3677 134.391C96.3198 124.576 101.143 115.559 108.227 108.482C115.311 101.404 124.337 96.5839 134.165 94.63C143.992 92.6762 154.179 93.6767 163.438 97.505C172.696 101.333 180.609 107.818 186.176 116.137C191.744 124.457 194.716 134.239 194.716 144.246C194.719 150.888 193.411 157.466 190.868 163.604C188.325 169.742 184.595 175.319 179.893 180.017C175.191 184.715 169.607 188.442 163.463 190.984C157.318 193.527 150.731 194.836 144.08 194.836Z" fill="url(#paint7_linear_809_3576)"/>
<g style="mix-blend-mode:soft-light" opacity="0.5">
<path d="M134.211 195.617L110.121 215.233C100.319 210.599 91.5668 204.019 84.3979 195.893C77.2291 187.768 71.7943 178.268 68.4258 167.974L91.2422 149.469C92.5719 160.72 97.4525 171.256 105.178 179.553C112.903 187.849 123.071 193.476 134.211 195.617Z" fill="white" fill-opacity="0.8"/>
</g>
<g style="mix-blend-mode:soft-light" opacity="0.5">
<path d="M197.38 144.102C197.403 143.817 197.403 143.531 197.38 143.246C197.397 132.147 193.939 121.32 187.488 112.282C181.038 103.244 171.918 96.4463 161.406 92.8415L184.176 74.3359C193.48 79.7343 201.594 86.9558 208.031 95.5662C214.467 104.177 219.094 113.998 221.632 124.44L197.38 144.102Z" fill="white" fill-opacity="0.8"/>
</g>
<path d="M118.066 218.517C118.066 218.517 155.615 229.62 197.426 202.324C197.426 202.417 169.884 233.552 118.066 218.517Z" fill="url(#paint8_radial_809_3576)"/>
<g style="mix-blend-mode:soft-light" opacity="0.5">
<path d="M110.122 215.233L114.337 230.986C114.337 230.986 83.0894 221.063 69.4227 180.373L68.334 167.975C71.8429 178.21 77.3403 187.653 84.5111 195.763C91.6819 203.873 100.385 210.489 110.122 215.233Z" fill="white"/>
</g>
<path d="M250.887 109.704L267.542 84.166L276.413 90.2266L258.716 114.168L250.887 109.704Z" fill="#2EE6AC"/>
<path d="M58.3027 64.2971L84.2926 44.0566L90.6394 52.8005L66.8039 71.63L58.3027 64.2971Z" fill="#2EE6AC"/>
<path d="M43.5474 192.771L24.553 202.347L19.7812 192.771L39.1462 181.482L43.5474 192.771Z" fill="#454444"/>
<path d="M170.348 44.9112L183.968 59.8314L189.319 53.6783L176.463 39.5215L170.348 44.9112Z" fill="#403E3E"/>
<path d="M87.2812 131.124L104.608 101.238L142.18 131.101C142.18 131.101 184.801 87.7517 218.62 76.7871L228.048 115.256C228.048 115.256 185.45 125.596 145.515 174.427L87.2812 131.124Z" fill="url(#paint9_linear_809_3576)"/>
<path d="M87.2812 144.911L104.608 115.025L142.18 144.888C142.18 144.888 184.801 101.539 218.62 90.5742L228.048 129.043C228.048 129.043 185.45 139.383 145.515 188.214L87.2812 144.911Z" fill="url(#paint10_linear_809_3576)"/>
<path d="M218.551 76.7871V90.5738L227.978 129.042V111.67L218.551 76.7871Z" fill="#29AF85"/>
<path d="M104.608 101.238V115.025L87.2812 144.935V131.125L104.608 101.238Z" fill="#29AF85"/>
<g style="mix-blend-mode:soft-light">
<path d="M218.55 76.8809V90.7601C207.909 94.8096 197.798 100.13 188.437 106.605C171.86 118.001 156.354 130.877 142.109 145.074V131.195C152.703 120.455 164.043 110.476 176.044 101.331C183.852 95.3733 192.064 89.9628 200.621 85.139C206.302 81.7862 212.309 79.0193 218.55 76.8809Z" fill="white"/>
</g>
<g style="mix-blend-mode:soft-light">
<path d="M204.722 96.4969L188.507 106.421L183.156 96.1731C188.767 92.0779 194.64 88.3534 200.738 85.0234L204.722 96.4969Z" fill="white"/>
</g>
<defs>
<linearGradient id="paint0_linear_809_3576" x1="214.301" y1="173.122" x2="270.036" y2="212.599" gradientUnits="userSpaceOnUse">
<stop stop-color="#302E2E"/>
<stop offset="1" stop-color="#383838"/>
</linearGradient>
<linearGradient id="paint1_linear_809_3576" x1="66.1149" y1="207.197" x2="39.166" y2="97.3297" gradientUnits="userSpaceOnUse">
<stop stop-color="#353333"/>
<stop offset="1" stop-color="#464545"/>
</linearGradient>
<radialGradient id="paint2_radial_809_3576" cx="0" cy="0" r="1" gradientUnits="userSpaceOnUse" gradientTransform="translate(239.009 142.515) rotate(157.056) scale(27.9319 27.9052)">
<stop stop-color="#414040"/>
<stop offset="1" stop-color="#3F3F3F"/>
</radialGradient>
<linearGradient id="paint3_linear_809_3576" x1="67.3611" y1="160.341" x2="220.822" y2="160.341" gradientUnits="userSpaceOnUse">
<stop stop-color="#424141"/>
<stop offset="1" stop-color="#4F4D4D"/>
</linearGradient>
<linearGradient id="paint4_linear_809_3576" x1="63.5391" y1="174.336" x2="223.856" y2="174.336" gradientUnits="userSpaceOnUse">
<stop stop-color="#444444"/>
<stop offset="1" stop-color="#424141"/>
</linearGradient>
<radialGradient id="paint5_radial_809_3576" cx="0" cy="0" r="1" gradientUnits="userSpaceOnUse" gradientTransform="translate(177.736 72.0222) scale(79.7068 79.5972)">
<stop stop-color="#414040"/>
<stop offset="1" stop-color="#414040"/>
</radialGradient>
<radialGradient id="paint6_radial_809_3576" cx="0" cy="0" r="1" gradientUnits="userSpaceOnUse" gradientTransform="translate(149.939 77.6678) scale(113.758 113.601)">
<stop stop-color="#4F4C4C"/>
<stop offset="1" stop-color="#424040"/>
</radialGradient>
<linearGradient id="paint7_linear_809_3576" x1="144.08" y1="197.542" x2="144.08" y2="90.9961" gradientUnits="userSpaceOnUse">
<stop stop-color="#454545"/>
<stop offset="1" stop-color="#404040"/>
</linearGradient>
<radialGradient id="paint8_radial_809_3576" cx="0" cy="0" r="1" gradientUnits="userSpaceOnUse" gradientTransform="translate(160.665 204.198) scale(28.6768 28.6375)">
<stop stop-color="#504F4F"/>
<stop offset="1" stop-color="#413F3F"/>
</radialGradient>
<linearGradient id="paint9_linear_809_3576" x1="157.63" y1="174.427" x2="157.63" y2="76.7871" gradientUnits="userSpaceOnUse">
<stop stop-color="#279673"/>
<stop offset="1" stop-color="#29AF85"/>
</linearGradient>
<linearGradient id="paint10_linear_809_3576" x1="157.63" y1="188.214" x2="157.63" y2="90.5742" gradientUnits="userSpaceOnUse">
<stop stop-color="#279673"/>
<stop offset="1" stop-color="#2EE6AC"/>
</linearGradient>
</defs>
</svg>
