<svg width="17" height="17" viewBox="0 0 17 17" fill="none" xmlns="http://www.w3.org/2000/svg">
<path fill-rule="evenodd" clip-rule="evenodd" d="M0 8.5C0 3.80558 3.80558 0 8.5 0C13.1944 0 17 3.80558 17 8.5C17 13.1944 13.1944 17 8.5 17C3.80558 17 0 13.1944 0 8.5ZM7.04897 11.651C6.71701 11.3191 6.71701 10.7809 7.04897 10.449L8.99793 8.5L7.04897 6.55104C6.71701 6.21909 6.71701 5.68091 7.04897 5.34896C7.38089 5.01701 7.91911 5.01701 8.25103 5.34896L10.5595 7.6574C11.0248 8.12277 11.0248 8.87723 10.5595 9.3426L8.25103 11.651C7.91911 11.983 7.38089 11.983 7.04897 11.651Z" fill="#3A3A3A"/>
</svg>
