<svg width="14" height="15" viewBox="0 0 14 15" fill="none" xmlns="http://www.w3.org/2000/svg">
<path d="M7.92139 0C4.84671 0 2.35588 2.71321 2.35588 6.05923C2.35429 7.16154 2.63026 8.24324 3.15381 9.18674L0.455488 12.1245L0.46488 12.1347C0.176873 12.4349 3.33185e-08 12.8609 3.33185e-08 13.3424C-0.000173883 14.2727 0.680536 15.0002 1.53412 15C1.97013 14.9998 2.36005 14.8099 2.63832 14.5009L2.6451 14.5083L5.42916 11.4769C6.20251 11.8997 7.05603 12.1194 7.92139 12.1185C10.9962 12.1185 13.4866 9.40563 13.4866 6.05923C13.4866 2.71321 10.9961 0 7.92139 0ZM7.95513 9.73586C6.03335 9.73586 4.47662 8.04041 4.47662 5.94884C4.47662 3.85765 6.03335 2.16182 7.95513 2.16182C9.87691 2.16182 11.4333 3.85746 11.4333 5.94884C11.4335 8.04041 9.87691 9.73586 7.95513 9.73586Z" fill="#2CF2B3"/>
</svg>
