<svg width="315" height="62" viewBox="0 0 315 62" fill="none" xmlns="http://www.w3.org/2000/svg">
<path d="M77.3516 39.2109C76.168 39.2109 75.0605 38.9883 74.0293 38.543C72.998 38.0859 72.0957 37.4707 71.3223 36.6973C70.5605 35.9238 69.957 35.0156 69.5117 33.9727C69.0664 32.9297 68.8438 31.8164 68.8438 30.6328C68.8438 29.4492 69.0664 28.3359 69.5117 27.293C69.957 26.25 70.5605 25.3418 71.3223 24.5684C72.0957 23.7832 72.998 23.168 74.0293 22.7227C75.0605 22.2656 76.168 22.0371 77.3516 22.0371C78.5352 22.0371 79.6367 22.2598 80.6562 22.7051C81.6875 23.1504 82.584 23.7598 83.3457 24.5332C84.1074 25.2949 84.7109 26.1914 85.1562 27.2227C85.6016 28.2539 85.8359 29.3555 85.8594 30.5273V30.6328V37.5234C85.8594 37.9688 85.707 38.3496 85.4023 38.666C85.0977 38.9707 84.7227 39.123 84.2773 39.123C83.832 39.123 83.4688 38.9707 83.1875 38.666C82.9062 38.3496 82.7656 37.9688 82.7656 37.5234L82.748 37.2773C82.0098 37.8867 81.1836 38.3613 80.2695 38.7012C79.3555 39.041 78.3828 39.2109 77.3516 39.2109ZM77.3516 36.0996C78.125 36.0996 78.8398 35.959 79.4961 35.6777C80.1523 35.3848 80.7207 34.9922 81.2012 34.5C81.6934 33.9961 82.0742 33.416 82.3438 32.7598C82.625 32.0918 82.7656 31.3828 82.7656 30.6328C82.7656 29.8828 82.625 29.1797 82.3438 28.5234C82.0742 27.8555 81.6934 27.2754 81.2012 26.7832C80.7207 26.291 80.1523 25.9043 79.4961 25.623C78.8398 25.3301 78.125 25.1836 77.3516 25.1836C76.5898 25.1836 75.8809 25.3301 75.2246 25.623C74.5684 25.9043 74 26.291 73.5195 26.7832C73.0391 27.2754 72.6582 27.8555 72.377 28.5234C72.0957 29.1797 71.9551 29.8828 71.9551 30.6328C71.9551 31.3828 72.0957 32.0918 72.377 32.7598C72.6582 33.416 73.0391 33.9961 73.5195 34.5C74 34.9922 74.5684 35.3848 75.2246 35.6777C75.8809 35.959 76.5898 36.0996 77.3516 36.0996ZM103.068 39H91.4668V41.2676C91.4668 41.4902 91.4258 41.6953 91.3438 41.8828C91.2617 42.082 91.1504 42.252 91.0098 42.3926C90.8691 42.5332 90.7051 42.6445 90.5176 42.7266C90.3301 42.8086 90.1309 42.8496 89.9199 42.8496C89.709 42.8496 89.5039 42.8086 89.3047 42.7266C89.1172 42.6445 88.9473 42.5332 88.7949 42.3926C88.6543 42.252 88.543 42.082 88.4609 41.8828C88.3789 41.6953 88.3379 41.4902 88.3379 41.2676V37.3828C88.3379 37.1719 88.3789 36.9785 88.4609 36.8027C88.5547 36.6152 88.6719 36.4512 88.8125 36.3105C88.9648 36.1699 89.1348 36.0645 89.3223 35.9941C89.5215 35.9121 89.7266 35.8711 89.9375 35.8711H89.9902C91.2441 35.8711 92.123 35.5781 92.627 34.9922C93.1426 34.3945 93.4004 33.4629 93.4004 32.1973V23.6543C93.4004 23.2559 93.5059 22.9219 93.7168 22.6523C93.9395 22.3828 94.2148 22.2012 94.543 22.1074C94.5664 22.084 94.6309 22.0664 94.7363 22.0547C94.8418 22.043 94.9297 22.0371 95 22.0371H102.33C102.764 22.0488 103.121 22.207 103.402 22.5117C103.695 22.8164 103.842 23.1914 103.842 23.6367V35.9062H104.387C104.422 35.8945 104.51 35.8887 104.65 35.8887C104.861 35.8887 105.061 35.9297 105.248 36.0117C105.436 36.082 105.6 36.1875 105.74 36.3281C105.881 36.457 105.992 36.6152 106.074 36.8027C106.156 36.9902 106.197 37.1895 106.197 37.4004V41.2852C106.197 41.7188 106.045 42.0879 105.74 42.3926C105.447 42.6973 105.084 42.8496 104.65 42.8496C104.428 42.8496 104.217 42.8086 104.018 42.7266C103.83 42.6445 103.666 42.5332 103.525 42.3926C103.385 42.252 103.273 42.082 103.191 41.8828C103.109 41.6953 103.068 41.4961 103.068 41.2852V39ZM96.5117 32.2676C96.4883 33.709 96.2246 34.9219 95.7207 35.9062H100.748V25.1836H96.5117V32.2676ZM108.465 28.0488V27.8203C108.465 27.0234 108.617 26.2734 108.922 25.5703C109.227 24.8672 109.637 24.2578 110.152 23.7422C110.68 23.2148 111.289 22.7988 111.98 22.4941C112.684 22.1895 113.434 22.0371 114.23 22.0371C115.074 22.0371 115.854 22.207 116.568 22.5469C117.295 22.875 117.928 23.3262 118.467 23.9004C118.994 23.3262 119.615 22.875 120.33 22.5469C121.057 22.207 121.842 22.0371 122.686 22.0371C123.482 22.0371 124.238 22.1895 124.953 22.4941C125.668 22.7988 126.289 23.2148 126.816 23.7422C127.355 24.2578 127.783 24.8672 128.1 25.5703C128.416 26.2734 128.574 27.0234 128.574 27.8203V37.4531C128.574 37.8984 128.422 38.2676 128.117 38.5605C127.812 38.8535 127.449 39 127.027 39C126.594 39 126.225 38.8535 125.92 38.5605C125.627 38.2676 125.48 37.8984 125.48 37.4531V27.9961C125.48 27.6211 125.404 27.2695 125.252 26.9414C125.111 26.6016 124.912 26.3086 124.654 26.0625C124.408 25.8047 124.115 25.6055 123.775 25.4648C123.436 25.3125 123.078 25.2363 122.703 25.2363C122.352 25.2363 122.018 25.3008 121.701 25.4297C121.396 25.5586 121.121 25.7402 120.875 25.9746C120.641 26.1973 120.447 26.4609 120.295 26.7656C120.154 27.0703 120.072 27.3926 120.049 27.7324C120.061 27.7676 120.066 27.8379 120.066 27.9434V31.5293C120.066 31.752 120.025 31.957 119.943 32.1445C119.861 32.332 119.75 32.4961 119.609 32.6367C119.469 32.7773 119.305 32.8887 119.117 32.9707C118.93 33.0527 118.73 33.0938 118.52 33.0938C118.086 33.0938 117.717 32.9473 117.412 32.6543C117.119 32.3496 116.973 31.9746 116.973 31.5293V28.0137C116.973 27.627 116.902 27.2695 116.762 26.9414C116.621 26.6016 116.428 26.3027 116.182 26.0449C115.947 25.7871 115.666 25.5879 115.338 25.4473C115.01 25.2949 114.658 25.2188 114.283 25.2188C113.932 25.2188 113.604 25.2832 113.299 25.4121C112.994 25.5293 112.719 25.6934 112.473 25.9043C112.238 26.1152 112.039 26.3672 111.875 26.6602C111.723 26.9414 111.623 27.2461 111.576 27.5742C111.588 27.6328 111.594 27.6855 111.594 27.7324C111.605 27.7676 111.611 27.8145 111.611 27.873L111.559 37.4531C111.559 37.8984 111.406 38.2676 111.102 38.5605C110.797 38.8535 110.439 39 110.029 39C109.596 39 109.227 38.8535 108.922 38.5605C108.617 38.2676 108.465 37.8984 108.465 37.4531V28.0488ZM142.936 27.5918L134.094 38.3672C133.953 38.5312 133.766 38.6777 133.531 38.8066C133.309 38.9355 133.068 39 132.811 39C132.354 39 131.967 38.8477 131.65 38.543C131.346 38.2266 131.193 37.8457 131.193 37.4004V23.6543C131.193 23.209 131.346 22.8281 131.65 22.5117C131.955 22.1953 132.336 22.0371 132.793 22.0371C133.238 22.0371 133.602 22.1953 133.883 22.5117C134.164 22.8281 134.305 23.209 134.305 23.6543V33.3574L143.041 22.6699C143.193 22.4824 143.375 22.3301 143.586 22.2129C143.797 22.0957 144.037 22.0371 144.307 22.0371C144.752 22.0371 145.127 22.1953 145.432 22.5117C145.748 22.8164 145.906 23.1914 145.906 23.6367V37.4004C145.906 37.8457 145.754 38.2266 145.449 38.543C145.145 38.8477 144.77 39 144.324 39C143.879 39 143.533 38.8477 143.287 38.543C143.053 38.2266 142.936 37.8457 142.936 37.4004V27.5918ZM151.109 23.6543C151.109 23.4316 151.15 23.2207 151.232 23.0215C151.326 22.8223 151.443 22.6523 151.584 22.5117C151.736 22.3594 151.912 22.2422 152.111 22.1602C152.311 22.0781 152.516 22.0371 152.727 22.0371C153.172 22.0371 153.529 22.1953 153.799 22.5117C154.08 22.8281 154.221 23.209 154.221 23.6543V28.8574H161.814V23.6543C161.814 23.209 161.949 22.8281 162.219 22.5117C162.5 22.1953 162.863 22.0371 163.309 22.0371C163.766 22.0371 164.146 22.1953 164.451 22.5117C164.768 22.8164 164.926 23.1973 164.926 23.6543V37.418C164.926 37.6406 164.879 37.8516 164.785 38.0508C164.703 38.2383 164.586 38.4023 164.434 38.543C164.293 38.6836 164.123 38.7949 163.924 38.877C163.736 38.959 163.531 39 163.309 39C162.863 39 162.5 38.8477 162.219 38.543C161.949 38.2383 161.814 37.8633 161.814 37.418V32.0566H154.221V37.418C154.221 37.8633 154.08 38.2383 153.799 38.543C153.518 38.8477 153.154 39 152.709 39C152.264 39 151.883 38.8477 151.566 38.543C151.262 38.2383 151.109 37.8633 151.109 37.418V23.6543ZM180.693 27.5918L171.852 38.3672C171.711 38.5312 171.523 38.6777 171.289 38.8066C171.066 38.9355 170.826 39 170.568 39C170.111 39 169.725 38.8477 169.408 38.543C169.104 38.2266 168.951 37.8457 168.951 37.4004V23.6543C168.951 23.209 169.104 22.8281 169.408 22.5117C169.713 22.1953 170.094 22.0371 170.551 22.0371C170.996 22.0371 171.359 22.1953 171.641 22.5117C171.922 22.8281 172.062 23.209 172.062 23.6543V33.3574L180.799 22.6699C180.951 22.4824 181.133 22.3301 181.344 22.2129C181.555 22.0957 181.795 22.0371 182.064 22.0371C182.51 22.0371 182.885 22.1953 183.189 22.5117C183.506 22.8164 183.664 23.1914 183.664 23.6367V37.4004C183.664 37.8457 183.512 38.2266 183.207 38.543C182.902 38.8477 182.527 39 182.082 39C181.637 39 181.291 38.8477 181.045 38.543C180.811 38.2266 180.693 37.8457 180.693 37.4004V27.5918ZM187.637 30.7207C187.637 29.5137 187.859 28.3828 188.305 27.3281C188.75 26.2734 189.359 25.3535 190.133 24.5684C190.918 23.7832 191.832 23.168 192.875 22.7227C193.93 22.2656 195.061 22.0371 196.268 22.0371C197.393 22.0371 198.459 22.2363 199.467 22.6348C200.486 23.0332 201.365 23.6016 202.104 24.3398C202.291 24.5391 202.432 24.75 202.525 24.9727C202.619 25.1953 202.666 25.4121 202.666 25.623C202.666 25.8574 202.613 26.0742 202.508 26.2734C202.402 26.4609 202.268 26.6191 202.104 26.748C201.951 26.877 201.781 26.9766 201.594 27.0469C201.418 27.1172 201.254 27.1523 201.102 27.1523C200.844 27.1523 200.598 27.0879 200.363 26.959L199.133 26.0801C198.605 25.7402 198.09 25.5117 197.586 25.3945C197.082 25.2656 196.549 25.2012 195.986 25.2012C195.26 25.2246 194.58 25.3887 193.947 25.6934C193.314 25.998 192.764 26.4023 192.295 26.9062C191.838 27.3984 191.475 27.9668 191.205 28.6113C190.947 29.2559 190.818 29.9238 190.818 30.6152C190.818 31.3184 190.947 31.998 191.205 32.6543C191.475 33.3105 191.844 33.8906 192.312 34.3945C192.793 34.8867 193.355 35.2852 194 35.5898C194.645 35.8945 195.354 36.0469 196.127 36.0469C196.654 36.0469 197.164 35.9883 197.656 35.8711C198.148 35.7422 198.641 35.5078 199.133 35.168L200.363 34.3066C200.48 34.248 200.604 34.2012 200.732 34.166C200.861 34.1191 200.99 34.0957 201.119 34.0957C201.271 34.0957 201.436 34.1309 201.611 34.2012C201.799 34.2715 201.969 34.377 202.121 34.5176C202.273 34.6465 202.396 34.8047 202.49 34.9922C202.596 35.1797 202.648 35.3906 202.648 35.625C202.648 35.8477 202.602 36.0703 202.508 36.293C202.426 36.5156 202.291 36.7207 202.104 36.9082C201.377 37.6465 200.498 38.2148 199.467 38.6133C198.447 39 197.381 39.1934 196.268 39.1934C195.072 39.1934 193.953 38.9766 192.91 38.543C191.867 38.0977 190.953 37.4941 190.168 36.7324C189.383 35.9707 188.762 35.0742 188.305 34.043C187.859 33.0117 187.637 31.9043 187.637 30.7207ZM210.717 25.166H206.621C206.176 25.166 205.801 25.0195 205.496 24.7266C205.203 24.4336 205.057 24.0762 205.057 23.6543C205.057 23.1973 205.203 22.8164 205.496 22.5117C205.801 22.1953 206.176 22.0371 206.621 22.0371H217.783C218.006 22.0371 218.217 22.084 218.416 22.1777C218.615 22.2598 218.785 22.377 218.926 22.5293C219.078 22.6699 219.195 22.8398 219.277 23.0391C219.359 23.2266 219.4 23.4316 219.4 23.6543C219.4 24.0996 219.242 24.4629 218.926 24.7441C218.609 25.0254 218.229 25.166 217.783 25.166H213.828V37.418C213.828 37.8633 213.67 38.2383 213.354 38.543C213.049 38.8477 212.674 39 212.229 39C211.783 39 211.42 38.8477 211.139 38.543C210.857 38.2383 210.717 37.8633 210.717 37.418V25.166ZM222.564 30.6328C222.564 29.4492 222.787 28.3359 223.232 27.293C223.689 26.25 224.305 25.3418 225.078 24.5684C225.863 23.7832 226.777 23.168 227.82 22.7227C228.863 22.2656 229.977 22.0371 231.16 22.0371C232.344 22.0371 233.457 22.2656 234.5 22.7227C235.543 23.168 236.451 23.7832 237.225 24.5684C237.998 25.3418 238.607 26.25 239.053 27.293C239.498 28.3359 239.721 29.4492 239.721 30.6328C239.721 31.8164 239.498 32.9297 239.053 33.9727C238.607 35.0156 237.998 35.9238 237.225 36.6973C236.451 37.4707 235.543 38.0859 234.5 38.543C233.457 38.9883 232.344 39.2109 231.16 39.2109C230.094 39.2109 229.098 39.041 228.172 38.7012C227.246 38.3496 226.408 37.8574 225.658 37.2246V43.4824C225.658 43.9277 225.518 44.3086 225.236 44.625C224.967 44.9414 224.604 45.0996 224.146 45.0996C223.713 45.0996 223.338 44.9414 223.021 44.625C222.717 44.3203 222.564 43.9395 222.564 43.4824V30.6328ZM225.676 30.6328C225.676 31.3828 225.816 32.0918 226.098 32.7598C226.391 33.416 226.783 33.9961 227.275 34.5C227.768 34.9922 228.348 35.3848 229.016 35.6777C229.684 35.959 230.398 36.0996 231.16 36.0996C231.922 36.0996 232.637 35.959 233.305 35.6777C233.973 35.3848 234.553 34.9922 235.045 34.5C235.537 33.9961 235.924 33.416 236.205 32.7598C236.486 32.0918 236.627 31.3828 236.627 30.6328C236.627 29.8828 236.486 29.1797 236.205 28.5234C235.924 27.8555 235.537 27.2754 235.045 26.7832C234.553 26.291 233.973 25.9043 233.305 25.623C232.637 25.3301 231.922 25.1836 231.16 25.1836C230.398 25.1836 229.684 25.3301 229.016 25.623C228.348 25.9043 227.768 26.291 227.275 26.7832C226.783 27.2754 226.391 27.8555 226.098 28.5234C225.816 29.1797 225.676 29.8828 225.676 30.6328ZM249.863 39.2109C248.68 39.2109 247.572 38.9883 246.541 38.543C245.51 38.0859 244.607 37.4707 243.834 36.6973C243.072 35.9238 242.469 35.0156 242.023 33.9727C241.578 32.9297 241.355 31.8164 241.355 30.6328C241.355 29.4492 241.578 28.3359 242.023 27.293C242.469 26.25 243.072 25.3418 243.834 24.5684C244.607 23.7832 245.51 23.168 246.541 22.7227C247.572 22.2656 248.68 22.0371 249.863 22.0371C251.047 22.0371 252.148 22.2598 253.168 22.7051C254.199 23.1504 255.096 23.7598 255.857 24.5332C256.619 25.2949 257.223 26.1914 257.668 27.2227C258.113 28.2539 258.348 29.3555 258.371 30.5273V30.6328V37.5234C258.371 37.9688 258.219 38.3496 257.914 38.666C257.609 38.9707 257.234 39.123 256.789 39.123C256.344 39.123 255.98 38.9707 255.699 38.666C255.418 38.3496 255.277 37.9688 255.277 37.5234L255.26 37.2773C254.521 37.8867 253.695 38.3613 252.781 38.7012C251.867 39.041 250.895 39.2109 249.863 39.2109ZM249.863 36.0996C250.637 36.0996 251.352 35.959 252.008 35.6777C252.664 35.3848 253.232 34.9922 253.713 34.5C254.205 33.9961 254.586 33.416 254.855 32.7598C255.137 32.0918 255.277 31.3828 255.277 30.6328C255.277 29.8828 255.137 29.1797 254.855 28.5234C254.586 27.8555 254.205 27.2754 253.713 26.7832C253.232 26.291 252.664 25.9043 252.008 25.623C251.352 25.3301 250.637 25.1836 249.863 25.1836C249.102 25.1836 248.393 25.3301 247.736 25.623C247.08 25.9043 246.512 26.291 246.031 26.7832C245.551 27.2754 245.17 27.8555 244.889 28.5234C244.607 29.1797 244.467 29.8828 244.467 30.6328C244.467 31.3828 244.607 32.0918 244.889 32.7598C245.17 33.416 245.551 33.9961 246.031 34.5C246.512 34.9922 247.08 35.3848 247.736 35.6777C248.393 35.959 249.102 36.0996 249.863 36.0996ZM266.932 25.166H262.836C262.391 25.166 262.016 25.0195 261.711 24.7266C261.418 24.4336 261.271 24.0762 261.271 23.6543C261.271 23.1973 261.418 22.8164 261.711 22.5117C262.016 22.1953 262.391 22.0371 262.836 22.0371H273.998C274.221 22.0371 274.432 22.084 274.631 22.1777C274.83 22.2598 275 22.377 275.141 22.5293C275.293 22.6699 275.41 22.8398 275.492 23.0391C275.574 23.2266 275.615 23.4316 275.615 23.6543C275.615 24.0996 275.457 24.4629 275.141 24.7441C274.824 25.0254 274.443 25.166 273.998 25.166H270.043V37.418C270.043 37.8633 269.885 38.2383 269.568 38.543C269.264 38.8477 268.889 39 268.443 39C267.998 39 267.635 38.8477 267.354 38.543C267.072 38.2383 266.932 37.8633 266.932 37.418V25.166ZM280.221 30.6328C280.221 31.3828 280.361 32.0918 280.643 32.7598C280.936 33.416 281.328 33.9961 281.82 34.5C282.312 34.9922 282.887 35.3848 283.543 35.6777C284.211 35.959 284.926 36.0996 285.688 36.0996C286.461 36.0996 287.176 35.959 287.832 35.6777C288.5 35.3848 289.08 34.9922 289.572 34.5C290.064 33.9961 290.451 33.416 290.732 32.7598C291.014 32.0918 291.154 31.3828 291.154 30.6328C291.154 29.8828 291.014 29.1797 290.732 28.5234C290.451 27.8555 290.064 27.2754 289.572 26.7832C289.08 26.291 288.5 25.9043 287.832 25.623C287.176 25.3301 286.461 25.1836 285.688 25.1836C284.926 25.1836 284.211 25.3301 283.543 25.623C282.887 25.9043 282.312 26.291 281.82 26.7832C281.328 27.2754 280.936 27.8555 280.643 28.5234C280.361 29.1797 280.221 29.8828 280.221 30.6328ZM277.109 30.6328C277.109 29.4492 277.332 28.3359 277.777 27.293C278.234 26.25 278.85 25.3418 279.623 24.5684C280.408 23.7832 281.316 23.168 282.348 22.7227C283.391 22.2656 284.504 22.0371 285.688 22.0371C286.883 22.0371 288.002 22.2656 289.045 22.7227C290.088 23.168 290.996 23.7832 291.77 24.5684C292.543 25.3418 293.152 26.25 293.598 27.293C294.043 28.3359 294.266 29.4492 294.266 30.6328C294.266 31.8164 294.043 32.9297 293.598 33.9727C293.152 35.0156 292.543 35.9238 291.77 36.6973C290.996 37.4707 290.088 38.0859 289.045 38.543C288.002 38.9883 286.883 39.2109 285.688 39.2109C284.504 39.2109 283.391 38.9883 282.348 38.543C281.316 38.0859 280.408 37.4707 279.623 36.6973C278.85 35.9238 278.234 35.0156 277.777 33.9727C277.332 32.9297 277.109 31.8164 277.109 30.6328ZM296.604 30.6328C296.604 29.4492 296.826 28.3359 297.271 27.293C297.729 26.25 298.344 25.3418 299.117 24.5684C299.902 23.7832 300.816 23.168 301.859 22.7227C302.902 22.2656 304.016 22.0371 305.199 22.0371C306.383 22.0371 307.496 22.2656 308.539 22.7227C309.582 23.168 310.49 23.7832 311.264 24.5684C312.037 25.3418 312.646 26.25 313.092 27.293C313.537 28.3359 313.76 29.4492 313.76 30.6328C313.76 31.8164 313.537 32.9297 313.092 33.9727C312.646 35.0156 312.037 35.9238 311.264 36.6973C310.49 37.4707 309.582 38.0859 308.539 38.543C307.496 38.9883 306.383 39.2109 305.199 39.2109C304.133 39.2109 303.137 39.041 302.211 38.7012C301.285 38.3496 300.447 37.8574 299.697 37.2246V43.4824C299.697 43.9277 299.557 44.3086 299.275 44.625C299.006 44.9414 298.643 45.0996 298.186 45.0996C297.752 45.0996 297.377 44.9414 297.061 44.625C296.756 44.3203 296.604 43.9395 296.604 43.4824V30.6328ZM299.715 30.6328C299.715 31.3828 299.855 32.0918 300.137 32.7598C300.43 33.416 300.822 33.9961 301.314 34.5C301.807 34.9922 302.387 35.3848 303.055 35.6777C303.723 35.959 304.438 36.0996 305.199 36.0996C305.961 36.0996 306.676 35.959 307.344 35.6777C308.012 35.3848 308.592 34.9922 309.084 34.5C309.576 33.9961 309.963 33.416 310.244 32.7598C310.525 32.0918 310.666 31.3828 310.666 30.6328C310.666 29.8828 310.525 29.1797 310.244 28.5234C309.963 27.8555 309.576 27.2754 309.084 26.7832C308.592 26.291 308.012 25.9043 307.344 25.623C306.676 25.3301 305.961 25.1836 305.199 25.1836C304.438 25.1836 303.723 25.3301 303.055 25.623C302.387 25.9043 301.807 26.291 301.314 26.7832C300.822 27.2754 300.43 27.8555 300.137 28.5234C299.855 29.1797 299.715 29.8828 299.715 30.6328Z" fill="#2CF2B3"/>
<rect x="2.82843" y="30.5898" width="39.2609" height="39.2609" rx="3" transform="rotate(-45 2.82843 30.5898)" stroke="#00D29D" stroke-width="4"/>
<path d="M30 18.7695L20 28.7695" stroke="#00D29D" stroke-width="3.8" stroke-linecap="round"/>
<path d="M20 28.7695L30 38.7695" stroke="#00D29D" stroke-width="3.8" stroke-linecap="round"/>
<path d="M31 25L41 35" stroke="#00D29D" stroke-width="3.8" stroke-linecap="round"/>
<path d="M41 35L31 45" stroke="#00D29D" stroke-width="3.8" stroke-linecap="round"/>
</svg>
